{
.appVersion = "3129";
DisplayStrings = (
noHOt,
"aáâäàåã"
);
copyright = "Copyright 2021 The Helius Project Authors (https://github.com/IdanS01/Helius-Font/)";
customParameters = (
{
name = fsType;
value = (
);
},
{
name = "Use Typo Metrics";
value = 1;
},
{
name = glyphOrder;
value = (
.notdef,
CR,
.null,
space,
nbspace
);
},
{
name = "Enforce Compatibility Check";
value = 1;
},
{
name = license;
value = "This Font Software is licensed under the SIL Open Font License, Version 1.1. This license is available with a FAQ at: https://scripts.sil.org/OFL";
},
{
name = licenseURL;
value = "https://scripts.sil.org/OFL";
},
{
name = Axes;
value = (
{
Name = Weight;
Tag = wght;
}
);
}
);
date = "2021-10-06 15:06:18 +0000";
designer = "Moran Ein-Dor, Idan Shadi";
familyName = Helius;
featurePrefixes = (
{
automatic = 1;
code = "languagesystem DFLT dflt;\012\012languagesystem hebr dflt;\012";
name = Languagesystems;
}
);
features = (
{
automatic = 1;
code = "feature sups;\012feature frac;\012feature ordn;\012";
name = aalt;
},
{
automatic = 1;
code = "lookup ccmp_Other_1 {\012	@CombiningTopAccents = [acutecomb circumflexcomb dieresiscomb gravecomb macroncomb ringcomb tildecomb];\012	@CombiningNonTopAccents = [cedillacomb];\012	sub [i]' @CombiningTopAccents by [idotless];\012	sub [i]' @CombiningNonTopAccents @CombiningTopAccents by [idotless];\012} ccmp_Other_1;\012";
name = ccmp;
},
{
automatic = 1;
code = "sub one by onesuperior;\012sub two by twosuperior;\012sub three by threesuperior;\012sub four by foursuperior;\012";
name = sups;
},
{
automatic = 1;
code = "sub one slash four by onequarter;\012sub one slash two by onehalf;\012sub three slash four by threequarters;\012";
name = frac;
},
{
automatic = 1;
code = "sub [zero one two three four five six seven eight nine] [A a]' by ordfeminine;\012sub [zero one two three four five six seven eight nine] [O o]' by ordmasculine;\012";
name = ordn;
}
);
fontMaster = (
{
alignmentZones = (
"{680, 10}",
"{518, 10}",
"{0, -5}"
);

glyphs = (
{
glyphname = A;
lastChange = "2022-05-27 01:49:37 +0000";
layers = (
{
anchors = (
{
name = bottom;
position = "{304, 0}";
},
{
name = ogonek;
position = "{546, 10}";
},
{
name = top;
position = "{304, 680}";
}
);
layerId = "0A901A10-6B10-40AA-AC10-6ECA400C9626";
paths = (
{
closed = 1;
nodes = (
"50 0 LINE",
"304 645 LINE",
"557 0 LINE",
"587 0 LINE",
"319 683 LINE",
"289 683 LINE",
"20 0 LINE"
);
},
{
closed = 1;
nodes = (
"466 241 LINE",
"466 267 LINE",
"141 267 LINE",
"141 241 LINE"
);
}
);
width = 607;
},
{
anchors = (
{
name = bottom;
position = "{375, 0}";
},
{
name = ogonek;
position = "{674, 10}";
},
{
name = top;
position = "{375, 680}";
}
);
layerId = "88F21F75-214F-41EE-AE9C-B4AA79D6697C";
paths = (
{
closed = 1;
nodes = (
"192 0 LINE",
"374 464 LINE",
"557 0 LINE",
"729 0 LINE",
"460 680 LINE",
"289 680 LINE",
"20 0 LINE"
);
},
{
closed = 1;
nodes = (
"547 163 LINE",
"547 303 LINE",
"210 303 LINE",
"210 163 LINE"
);
}
);
width = 749;
}
);
note = A;
unicode = 0041;
},
{
glyphname = AE;
lastChange = "2021-10-11 16:54:37 +0000";
layers = (
{
layerId = "0A901A10-6B10-40AA-AC10-6ECA400C9626";
paths = (
{
closed = 1;
nodes = (
"50 0 LINE",
"145 241 LINE",
"451 241 LINE",
"451 0 LINE",
"909 0 LINE",
"909 28 LINE",
"480 28 LINE",
"480 345 LINE",
"861 345 LINE",
"861 373 LINE",
"480 373 LINE",
"480 652 LINE",
"901 652 LINE",
"901 680 LINE",
"289 680 LINE",
"20 0 LINE"
);
},
{
closed = 1;
nodes = (
"308 652 LINE",
"451 652 LINE",
"451 267 LINE",
"156 267 LINE"
);
}
);
width = 928;
},
{
layerId = "88F21F75-214F-41EE-AE9C-B4AA79D6697C";
paths = (
{
closed = 1;
nodes = (
"192 0 LINE",
"255 163 LINE",
"434 163 LINE",
"434 0 LINE",
"927 0 LINE",
"927 150 LINE",
"594 150 LINE",
"594 284 LINE",
"887 284 LINE",
"887 424 LINE",
"594 424 LINE",
"594 532 LINE",
"920 532 LINE",
"920 680 LINE",
"289 680 LINE",
"20 0 LINE"
);
},
{
closed = 1;
nodes = (
"399 533 LINE",
"434 533 LINE",
"434 303 LINE",
"310 303 LINE"
);
}
);
width = 946;
}
);
leftMetricsKey = A;
rightMetricsKey = E;
unicode = 00C6;
},
{
glyphname = B;
lastChange = "2022-05-27 01:49:38 +0000";
layers = (
{
layerId = "0A901A10-6B10-40AA-AC10-6ECA400C9626";
paths = (
{
closed = 1;
nodes = (
"335 0 LINE SMOOTH",
"478 0 OFFCURVE",
"553 96 OFFCURVE",
"553 193 CURVE SMOOTH",
"553 276 OFFCURVE",
"497 341 OFFCURVE",
"419 366 CURVE",
"481 392 OFFCURVE",
"521 451 OFFCURVE",
"521 521 CURVE SMOOTH",
"521 625 OFFCURVE",
"433 680 OFFCURVE",
"335 680 CURVE SMOOTH",
"50 680 LINE",
"50 0 LINE"
);
},
{
closed = 1;
nodes = (
"78 350 LINE",
"339 350 LINE SMOOTH",
"468 350 OFFCURVE",
"525 269 OFFCURVE",
"525 191 CURVE SMOOTH",
"525 110 OFFCURVE",
"460 28 OFFCURVE",
"335 28 CURVE SMOOTH",
"78 28 LINE"
);
},
{
closed = 1;
nodes = (
"78 652 LINE",
"335 652 LINE SMOOTH",
"444 652 OFFCURVE",
"493 587 OFFCURVE",
"493 519 CURVE SMOOTH",
"493 450 OFFCURVE",
"440 378 OFFCURVE",
"339 378 CURVE SMOOTH",
"78 378 LINE"
);
}
);
width = 582;
},
{
layerId = "88F21F75-214F-41EE-AE9C-B4AA79D6697C";
paths = (
{
closed = 1;
nodes = (
"370 0 LINE SMOOTH",
"542 0 OFFCURVE",
"638 75 OFFCURVE",
"638 206 CURVE SMOOTH",
"638 276 OFFCURVE",
"611 324 OFFCURVE",
"537 358 CURVE",
"587 385 OFFCURVE",
"613 445 OFFCURVE",
"613 501 CURVE SMOOTH",
"613 609 OFFCURVE",
"516 680 OFFCURVE",
"370 680 CURVE SMOOTH",
"50 680 LINE",
"50 0 LINE"
);
},
{
closed = 1;
nodes = (
"210 284 LINE",
"379 284 LINE SMOOTH",
"431 284 OFFCURVE",
"463 260 OFFCURVE",
"463 214 CURVE SMOOTH",
"463 164 OFFCURVE",
"437 140 OFFCURVE",
"369 140 CURVE SMOOTH",
"210 140 LINE"
);
},
{
closed = 1;
nodes = (
"210 540 LINE",
"369 540 LINE SMOOTH",
"427 540 OFFCURVE",
"453 524 OFFCURVE",
"453 480 CURVE SMOOTH",
"453 428 OFFCURVE",
"418 416 OFFCURVE",
"359 416 CURVE SMOOTH",
"210 416 LINE"
);
}
);
width = 667;
}
);
note = B;
unicode = 0042;
},
{
glyphname = C;
lastChange = "2022-05-27 01:49:38 +0000";
layers = (
{
anchors = (
{
name = bottom;
position = "{320, 0}";
},
{
name = top;
position = "{320, 680}";
}
);
layerId = "0A901A10-6B10-40AA-AC10-6ECA400C9626";
paths = (
{
closed = 1;
nodes = (
"468 -5 OFFCURVE",
"596 86 OFFCURVE",
"608 221 CURVE",
"576 221 LINE",
"564 93 OFFCURVE",
"440 23 OFFCURVE",
"325 23 CURVE SMOOTH",
"182 23 OFFCURVE",
"62 131 OFFCURVE",
"62 341 CURVE SMOOTH",
"62 550 OFFCURVE",
"180 660 OFFCURVE",
"332 660 CURVE SMOOTH",
"460 660 OFFCURVE",
"567 582 OFFCURVE",
"577 457 CURVE",
"609 457 LINE",
"599 586 OFFCURVE",
"484 688 OFFCURVE",
"330 688 CURVE SMOOTH",
"142 688 OFFCURVE",
"30 536 OFFCURVE",
"30 340 CURVE SMOOTH",
"30 141 OFFCURVE",
"145 -5 OFFCURVE",
"325 -5 CURVE SMOOTH"
);
}
);
width = 639;
},
{
anchors = (
{
name = bottom;
position = "{358, 0}";
},
{
name = top;
position = "{358, 680}";
}
);
layerId = "88F21F75-214F-41EE-AE9C-B4AA79D6697C";
paths = (
{
closed = 1;
nodes = (
"532 -5 OFFCURVE",
"685 91 OFFCURVE",
"695 268 CURVE",
"509 268 LINE",
"499 188 OFFCURVE",
"435 155 OFFCURVE",
"362 155 CURVE SMOOTH",
"257 155 OFFCURVE",
"200 222 OFFCURVE",
"200 340 CURVE SMOOTH",
"200 457 OFFCURVE",
"257 528 OFFCURVE",
"362 528 CURVE SMOOTH",
"434 528 OFFCURVE",
"498 494 OFFCURVE",
"508 415 CURVE",
"694 415 LINE",
"684 591 OFFCURVE",
"530 688 OFFCURVE",
"362 688 CURVE SMOOTH",
"160 688 OFFCURVE",
"20 548 OFFCURVE",
"20 340 CURVE SMOOTH",
"20 129 OFFCURVE",
"163 -5 OFFCURVE",
"362 -5 CURVE SMOOTH"
);
}
);
width = 715;
}
);
leftMetricsKey = O;
note = C;
rightMetricsKey = O;
unicode = 0043;
},
{
glyphname = D;
lastChange = "2022-05-27 01:49:38 +0000";
layers = (
{
layerId = "0A901A10-6B10-40AA-AC10-6ECA400C9626";
paths = (
{
closed = 1;
nodes = (
"236 0 LINE SMOOTH",
"477 0 OFFCURVE",
"578 149 OFFCURVE",
"578 342 CURVE SMOOTH",
"578 535 OFFCURVE",
"476 680 OFFCURVE",
"236 680 CURVE SMOOTH",
"50 680 LINE",
"50 0 LINE"
);
},
{
closed = 1;
nodes = (
"78 652 LINE",
"236 652 LINE SMOOTH",
"485 652 OFFCURVE",
"550 492 OFFCURVE",
"550 337 CURVE SMOOTH",
"550 161 OFFCURVE",
"458 28 OFFCURVE",
"236 28 CURVE SMOOTH",
"78 28 LINE"
);
}
);
width = 608;
},
{
layerId = "88F21F75-214F-41EE-AE9C-B4AA79D6697C";
paths = (
{
closed = 1;
nodes = (
"316 0 LINE SMOOTH",
"529 0 OFFCURVE",
"666 134 OFFCURVE",
"666 342 CURVE SMOOTH",
"666 549 OFFCURVE",
"529 680 OFFCURVE",
"316 680 CURVE SMOOTH",
"50 680 LINE",
"50 0 LINE"
);
},
{
closed = 1;
nodes = (
"210 530 LINE",
"316 530 LINE SMOOTH",
"441 530 OFFCURVE",
"506 460 OFFCURVE",
"506 341 CURVE SMOOTH",
"506 222 OFFCURVE",
"441 150 OFFCURVE",
"316 150 CURVE SMOOTH",
"210 150 LINE"
);
}
);
width = 686;
}
);
leftMetricsKey = N;
note = D;
rightMetricsKey = O;
unicode = 0044;
},
{
glyphname = E;
lastChange = "2022-05-27 01:49:38 +0000";
layers = (
{
anchors = (
{
name = bottom;
position = "{264, 0}";
},
{
name = ogonek;
position = "{474, 10}";
},
{
name = top;
position = "{264, 680}";
},
{
name = topleft;
position = "{20, 680}";
}
);
layerId = "0A901A10-6B10-40AA-AC10-6ECA400C9626";
paths = (
{
closed = 1;
nodes = (
"508 0 LINE",
"508 28 LINE",
"79 28 LINE",
"79 345 LINE",
"460 345 LINE",
"460 373 LINE",
"79 373 LINE",
"79 652 LINE",
"500 652 LINE",
"500 680 LINE",
"50 680 LINE",
"50 0 LINE"
);
}
);
width = 527;
},
{
anchors = (
{
name = bottom;
position = "{281, 0}";
},
{
name = ogonek;
position = "{506, 10}";
},
{
name = top;
position = "{281, 680}";
},
{
name = topleft;
position = "{20, 680}";
}
);
layerId = "88F21F75-214F-41EE-AE9C-B4AA79D6697C";
paths = (
{
closed = 1;
nodes = (
"543 0 LINE",
"543 150 LINE",
"210 150 LINE",
"210 284 LINE",
"503 284 LINE",
"503 424 LINE",
"210 424 LINE",
"210 530 LINE",
"536 530 LINE",
"536 680 LINE",
"50 680 LINE",
"50 0 LINE"
);
}
);
width = 562;
}
);
note = E;
unicode = 0045;
},
{
glyphname = F;
lastChange = "2022-05-27 01:49:38 +0000";
layers = (
{
layerId = "0A901A10-6B10-40AA-AC10-6ECA400C9626";
paths = (
{
closed = 1;
nodes = (
"79 0 LINE",
"79 345 LINE",
"460 345 LINE",
"460 373 LINE",
"79 373 LINE",
"79 655 LINE",
"500 655 LINE",
"500 683 LINE",
"50 683 LINE",
"50 0 LINE"
);
}
);
width = 519;
},
{
layerId = "88F21F75-214F-41EE-AE9C-B4AA79D6697C";
paths = (
{
closed = 1;
nodes = (
"210 0 LINE",
"210 282 LINE",
"502 282 LINE",
"502 422 LINE",
"210 422 LINE",
"210 530 LINE",
"542 530 LINE",
"542 680 LINE",
"50 680 LINE",
"50 0 LINE"
);
}
);
width = 561;
}
);
note = F;
unicode = 0046;
},
{
glyphname = G;
lastChange = "2022-05-27 01:49:38 +0000";
layers = (
{
layerId = "0A901A10-6B10-40AA-AC10-6ECA400C9626";
paths = (
{
closed = 1;
nodes = (
"505 -4 OFFCURVE",
"619 135 OFFCURVE",
"619 317 CURVE SMOOTH",
"619 333 LINE",
"285 333 LINE",
"285 305 LINE",
"613 305 LINE",
"591 324 LINE",
"591 139 OFFCURVE",
"474 24 OFFCURVE",
"331 23 CURVE SMOOTH",
"179 23 OFFCURVE",
"62 131 OFFCURVE",
"62 340 CURVE SMOOTH",
"62 550 OFFCURVE",
"180 660 OFFCURVE",
"331 660 CURVE SMOOTH",
"438 660 OFFCURVE",
"567 584 OFFCURVE",
"577 457 CURVE",
"609 457 LINE",
"599 592 OFFCURVE",
"465 688 OFFCURVE",
"331 688 CURVE SMOOTH",
"141 688 OFFCURVE",
"30 536 OFFCURVE",
"30 339 CURVE SMOOTH",
"30 141 OFFCURVE",
"141 -4 OFFCURVE",
"330 -4 CURVE SMOOTH"
);
}
);
width = 649;
},
{
layerId = "88F21F75-214F-41EE-AE9C-B4AA79D6697C";
paths = (
{
closed = 1;
nodes = (
"543 -5 OFFCURVE",
"697 128 OFFCURVE",
"697 325 CURVE SMOOTH",
"697 383 LINE",
"376 383 LINE",
"376 253 LINE",
"560 253 LINE",
"528 288 LINE",
"512 191 OFFCURVE",
"434 155 OFFCURVE",
"362 155 CURVE SMOOTH",
"257 155 OFFCURVE",
"200 222 OFFCURVE",
"200 340 CURVE SMOOTH",
"200 457 OFFCURVE",
"257 528 OFFCURVE",
"362 528 CURVE SMOOTH",
"434 528 OFFCURVE",
"488 494 OFFCURVE",
"498 435 CURVE",
"684 435 LINE",
"674 591 OFFCURVE",
"530 688 OFFCURVE",
"362 688 CURVE SMOOTH",
"160 688 OFFCURVE",
"20 548 OFFCURVE",
"20 340 CURVE SMOOTH",
"20 129 OFFCURVE",
"163 -5 OFFCURVE",
"362 -5 CURVE SMOOTH"
);
}
);
width = 717;
}
);
leftMetricsKey = O;
note = G;
rightMetricsKey = O;
unicode = 0047;
},
{
glyphname = H;
lastChange = "2022-05-27 01:49:38 +0000";
layers = (
{
layerId = "0A901A10-6B10-40AA-AC10-6ECA400C9626";
paths = (
{
closed = 1;
nodes = (
"78 0 LINE",
"78 350 LINE",
"505 350 LINE",
"505 0 LINE",
"532 0 LINE",
"532 683 LINE",
"505 683 LINE",
"505 376 LINE",
"78 376 LINE",
"78 683 LINE",
"50 683 LINE",
"50 0 LINE"
);
}
);
width = 582;
},
{
layerId = "88F21F75-214F-41EE-AE9C-B4AA79D6697C";
paths = (
{
closed = 1;
nodes = (
"210 0 LINE",
"210 297 LINE",
"505 297 LINE",
"505 0 LINE",
"665 0 LINE",
"665 683 LINE",
"505 683 LINE",
"505 437 LINE",
"210 437 LINE",
"210 683 LINE",
"50 683 LINE",
"50 0 LINE"
);
}
);
width = 715;
}
);
leftMetricsKey = N;
note = H;
rightMetricsKey = N;
unicode = 0048;
},
{
glyphname = I;
lastChange = "2022-05-27 01:49:38 +0000";
layers = (
{
anchors = (
{
name = bottom;
position = "{66, 0}";
},
{
name = ogonek;
position = "{118, 10}";
},
{
name = top;
position = "{66, 680}";
},
{
name = topleft;
position = "{20, 680}";
}
);
layerId = "0A901A10-6B10-40AA-AC10-6ECA400C9626";
paths = (
{
closed = 1;
nodes = (
"81 0 LINE",
"81 684 LINE",
"50 684 LINE",
"50 0 LINE"
);
}
);
width = 131;
},
{
anchors = (
{
name = bottom;
position = "{130, 0}";
},
{
name = ogonek;
position = "{234, 10}";
},
{
name = top;
position = "{130, 680}";
},
{
name = topleft;
position = "{20, 680}";
}
);
layerId = "88F21F75-214F-41EE-AE9C-B4AA79D6697C";
paths = (
{
closed = 1;
nodes = (
"210 0 LINE",
"210 683 LINE",
"50 683 LINE",
"50 0 LINE"
);
}
);
width = 260;
}
);
note = I;
unicode = 0049;
},
{
glyphname = J;
lastChange = "2022-05-27 01:49:38 +0000";
layers = (
{
layerId = "0A901A10-6B10-40AA-AC10-6ECA400C9626";
paths = (
{
closed = 1;
nodes = (
"325 -4 OFFCURVE",
"401 76 OFFCURVE",
"401 191 CURVE SMOOTH",
"401 684 LINE",
"373 684 LINE",
"373 191 LINE SMOOTH",
"373 92 OFFCURVE",
"309 24 OFFCURVE",
"215 24 CURVE SMOOTH",
"125 24 OFFCURVE",
"58 91 OFFCURVE",
"58 181 CURVE SMOOTH",
"58 212 LINE",
"30 212 LINE",
"30 181 LINE SMOOTH",
"30 75 OFFCURVE",
"109 -4 OFFCURVE",
"215 -4 CURVE SMOOTH"
);
}
);
width = 441;
},
{
layerId = "88F21F75-214F-41EE-AE9C-B4AA79D6697C";
paths = (
{
closed = 1;
nodes = (
"440 -5 OFFCURVE",
"533 104 OFFCURVE",
"533 280 CURVE SMOOTH",
"533 683 LINE",
"373 683 LINE",
"373 272 LINE SMOOTH",
"373 191 OFFCURVE",
"347 155 OFFCURVE",
"282 155 CURVE SMOOTH",
"224 155 OFFCURVE",
"190 185 OFFCURVE",
"190 240 CURVE SMOOTH",
"190 279 LINE",
"30 279 LINE",
"30 240 LINE SMOOTH",
"30 95 OFFCURVE",
"142 -5 OFFCURVE",
"289 -5 CURVE SMOOTH"
);
}
);
width = 573;
}
);
note = J;
unicode = 004A;
},
{
glyphname = K;
lastChange = "2022-05-27 01:49:37 +0000";
layers = (
{
layerId = "0A901A10-6B10-40AA-AC10-6ECA400C9626";
paths = (
{
closed = 1;
nodes = (
"78 0 LINE",
"78 244 LINE",
"230 383 LINE",
"547 0 LINE",
"584 0 LINE",
"251 402 LINE",
"560 683 LINE",
"518 683 LINE",
"78 282 LINE",
"78 683 LINE",
"50 683 LINE",
"50 0 LINE"
);
}
);
width = 604;
},
{
layerId = "88F21F75-214F-41EE-AE9C-B4AA79D6697C";
paths = (
{
closed = 1;
nodes = (
"210 0 LINE",
"210 216 LINE",
"284 288 LINE",
"498 0 LINE",
"697 0 LINE",
"399 400 LINE",
"691 683 LINE",
"461 683 LINE",
"210 439 LINE",
"210 683 LINE",
"50 683 LINE",
"50 0 LINE"
);
}
);
width = 717;
}
);
note = K;
unicode = 004B;
},
{
glyphname = L;
lastChange = "2022-05-27 01:49:38 +0000";
layers = (
{
layerId = "0A901A10-6B10-40AA-AC10-6ECA400C9626";
paths = (
{
closed = 1;
nodes = (
"474 0 LINE",
"474 28 LINE",
"78 28 LINE",
"78 683 LINE",
"50 683 LINE",
"50 0 LINE"
);
}
);
width = 493;
},
{
layerId = "88F21F75-214F-41EE-AE9C-B4AA79D6697C";
paths = (
{
closed = 1;
nodes = (
"540 0 LINE",
"540 150 LINE",
"210 150 LINE",
"210 683 LINE",
"50 683 LINE",
"50 0 LINE"
);
}
);
width = 550;
}
);
leftMetricsKey = N;
note = L;
unicode = 004C;
},
{
glyphname = M;
lastChange = "2022-05-27 01:49:38 +0000";
layers = (
{
layerId = "0A901A10-6B10-40AA-AC10-6ECA400C9626";
paths = (
{
closed = 1;
nodes = (
"78 0 LINE",
"78 619 LINE",
"362 0 LINE",
"393 0 LINE",
"677 619 LINE",
"677 0 LINE",
"704 0 LINE",
"704 683 LINE",
"676 683 LINE",
"378 34 LINE",
"79 683 LINE",
"50 683 LINE",
"50 0 LINE"
);
}
);
width = 754;
},
{
layerId = "88F21F75-214F-41EE-AE9C-B4AA79D6697C";
paths = (
{
closed = 1;
nodes = (
"210 0 LINE",
"210 347 LINE",
"356 0 LINE",
"531 0 LINE",
"677 347 LINE",
"677 0 LINE",
"836 0 LINE",
"836 683 LINE",
"669 683 LINE",
"444 142 LINE",
"218 683 LINE",
"50 683 LINE",
"50 0 LINE"
);
}
);
width = 886;
}
);
leftMetricsKey = N;
note = M;
rightMetricsKey = N;
unicode = 004D;
},
{
glyphname = N;
lastChange = "2022-05-27 01:49:38 +0000";
layers = (
{
anchors = (
{
name = bottom;
position = "{296, 0}";
},
{
name = top;
position = "{296, 680}";
}
);
layerId = "0A901A10-6B10-40AA-AC10-6ECA400C9626";
paths = (
{
closed = 1;
nodes = (
"78 0 LINE",
"78 637 LINE",
"511 0 LINE",
"541 0 LINE",
"541 683 LINE",
"514 683 LINE",
"514 46 LINE",
"81 683 LINE",
"50 683 LINE",
"50 0 LINE"
);
}
);
width = 591;
},
{
anchors = (
{
name = bottom;
position = "{363, 0}";
},
{
name = top;
position = "{363, 680}";
}
);
layerId = "88F21F75-214F-41EE-AE9C-B4AA79D6697C";
paths = (
{
closed = 1;
nodes = (
"210 0 LINE",
"210 433 LINE",
"499 0 LINE",
"675 0 LINE",
"675 680 LINE",
"514 680 LINE",
"514 250 LINE",
"225 680 LINE",
"50 680 LINE",
"50 0 LINE"
);
}
);
width = 725;
}
);
note = N;
unicode = 004E;
},
{
glyphname = O;
lastChange = "2022-05-27 01:49:38 +0000";
layers = (
{
anchors = (
{
name = bottom;
position = "{345, 0}";
},
{
name = center;
position = "{345, 340}";
},
{
name = ogonek;
position = "{621, 10}";
},
{
name = top;
position = "{345, 680}";
},
{
name = topleft;
position = "{20, 680}";
},
{
name = topright;
position = "{670, 680}";
}
);
layerId = "0A901A10-6B10-40AA-AC10-6ECA400C9626";
paths = (
{
closed = 1;
nodes = (
"532 -5 OFFCURVE",
"660 144 OFFCURVE",
"660 339 CURVE SMOOTH",
"660 536 OFFCURVE",
"530 688 OFFCURVE",
"341 688 CURVE SMOOTH",
"151 688 OFFCURVE",
"30 536 OFFCURVE",
"30 339 CURVE SMOOTH",
"30 141 OFFCURVE",
"152 -5 OFFCURVE",
"341 -5 CURVE SMOOTH"
);
},
{
closed = 1;
nodes = (
"189 23 OFFCURVE",
"62 131 OFFCURVE",
"62 340 CURVE SMOOTH",
"62 550 OFFCURVE",
"190 660 OFFCURVE",
"341 660 CURVE SMOOTH",
"492 660 OFFCURVE",
"628 550 OFFCURVE",
"628 340 CURVE SMOOTH",
"628 131 OFFCURVE",
"493 23 OFFCURVE",
"341 23 CURVE SMOOTH"
);
}
);
width = 690;
},
{
anchors = (
{
name = bottom;
position = "{363, 0}";
},
{
name = center;
position = "{363, 340}";
},
{
name = ogonek;
position = "{653, 10}";
},
{
name = top;
position = "{363, 680}";
},
{
name = topleft;
position = "{20, 680}";
},
{
name = topright;
position = "{705, 680}";
}
);
layerId = "88F21F75-214F-41EE-AE9C-B4AA79D6697C";
paths = (
{
closed = 1;
nodes = (
"563 -5 OFFCURVE",
"705 130 OFFCURVE",
"705 340 CURVE SMOOTH",
"705 551 OFFCURVE",
"562 688 OFFCURVE",
"362 688 CURVE SMOOTH",
"160 688 OFFCURVE",
"20 548 OFFCURVE",
"20 340 CURVE SMOOTH",
"20 129 OFFCURVE",
"163 -5 OFFCURVE",
"362 -5 CURVE SMOOTH"
);
},
{
closed = 1;
nodes = (
"257 155 OFFCURVE",
"200 222 OFFCURVE",
"200 340 CURVE SMOOTH",
"200 457 OFFCURVE",
"257 528 OFFCURVE",
"362 528 CURVE SMOOTH",
"468 528 OFFCURVE",
"525 457 OFFCURVE",
"525 340 CURVE SMOOTH",
"525 222 OFFCURVE",
"468 155 OFFCURVE",
"362 155 CURVE SMOOTH"
);
}
);
width = 725;
}
);
note = O;
unicode = 004F;
},
{
glyphname = Oslash;
lastChange = "2021-12-27 21:32:25 +0000";
layers = (
{
components = (
{
name = O;
}
);
layerId = "0A901A10-6B10-40AA-AC10-6ECA400C9626";
paths = (
{
closed = 1;
nodes = (
"84 0 LINE",
"645 684 LINE",
"611 684 LINE",
"50 0 LINE"
);
}
);
width = 690;
},
{
components = (
{
name = O;
}
);
layerId = "88F21F75-214F-41EE-AE9C-B4AA79D6697C";
paths = (
{
closed = 1;
nodes = (
"205 0 LINE",
"713 683 LINE",
"543 683 LINE",
"35 0 LINE"
);
}
);
width = 733;
}
);
leftMetricsKey = O;
rightMetricsKey = O;
unicode = 00D8;
},
{
glyphname = OE;
lastChange = "2021-10-11 16:51:44 +0000";
layers = (
{
layerId = "0A901A10-6B10-40AA-AC10-6ECA400C9626";
paths = (
{
closed = 1;
nodes = (
"484 -5 OFFCURVE",
"586 78 OFFCURVE",
"628 201 CURVE",
"628 0 LINE",
"1086 0 LINE",
"1086 28 LINE",
"657 28 LINE",
"657 345 LINE",
"1038 345 LINE",
"1038 373 LINE",
"657 373 LINE",
"657 655 LINE",
"1078 655 LINE",
"1078 683 LINE",
"628 683 LINE",
"628 478 LINE",
"585 603 OFFCURVE",
"482 688 OFFCURVE",
"341 688 CURVE SMOOTH",
"151 688 OFFCURVE",
"30 536 OFFCURVE",
"30 339 CURVE SMOOTH",
"30 141 OFFCURVE",
"152 -5 OFFCURVE",
"341 -5 CURVE SMOOTH"
);
},
{
closed = 1;
nodes = (
"189 23 OFFCURVE",
"62 131 OFFCURVE",
"62 340 CURVE SMOOTH",
"62 550 OFFCURVE",
"190 660 OFFCURVE",
"341 660 CURVE SMOOTH",
"492 660 OFFCURVE",
"628 550 OFFCURVE",
"628 340 CURVE SMOOTH",
"628 131 OFFCURVE",
"493 23 OFFCURVE",
"341 23 CURVE SMOOTH"
);
}
);
width = 1105;
},
{
layerId = "88F21F75-214F-41EE-AE9C-B4AA79D6697C";
paths = (
{
closed = 1;
nodes = (
"412 -5 OFFCURVE",
"482 27 OFFCURVE",
"524 84 CURVE",
"524 0 LINE",
"1017 0 LINE",
"1017 150 LINE",
"684 150 LINE",
"684 284 LINE",
"977 284 LINE",
"977 424 LINE",
"684 424 LINE",
"684 532 LINE",
"1010 532 LINE",
"1010 682 LINE",
"524 682 LINE",
"524 609 LINE",
"493 655 OFFCURVE",
"425 688 OFFCURVE",
"352 688 CURVE SMOOTH",
"160 688 OFFCURVE",
"20 548 OFFCURVE",
"20 340 CURVE SMOOTH",
"20 129 OFFCURVE",
"163 -5 OFFCURVE",
"322 -5 CURVE SMOOTH"
);
},
{
closed = 1;
nodes = (
"257 155 OFFCURVE",
"200 222 OFFCURVE",
"200 340 CURVE SMOOTH",
"200 457 OFFCURVE",
"257 528 OFFCURVE",
"362 528 CURVE SMOOTH",
"467 528 OFFCURVE",
"524 457 OFFCURVE",
"524 340 CURVE SMOOTH",
"524 222 OFFCURVE",
"467 155 OFFCURVE",
"362 155 CURVE SMOOTH"
);
}
);
width = 1036;
}
);
leftMetricsKey = O;
rightMetricsKey = E;
unicode = 0152;
},
{
glyphname = P;
lastChange = "2022-05-27 01:49:38 +0000";
layers = (
{
layerId = "0A901A10-6B10-40AA-AC10-6ECA400C9626";
paths = (
{
closed = 1;
nodes = (
"78 0 LINE",
"78 309 LINE",
"305 309 LINE SMOOTH",
"436 309 OFFCURVE",
"521 384 OFFCURVE",
"521 499 CURVE SMOOTH",
"521 613 OFFCURVE",
"438 683 OFFCURVE",
"305 683 CURVE SMOOTH",
"50 683 LINE",
"50 0 LINE"
);
},
{
closed = 1;
nodes = (
"78 655 LINE",
"305 655 LINE SMOOTH",
"422 655 OFFCURVE",
"493 596 OFFCURVE",
"493 499 CURVE SMOOTH",
"493 401 OFFCURVE",
"419 337 OFFCURVE",
"305 337 CURVE SMOOTH",
"78 337 LINE"
);
}
);
width = 541;
},
{
layerId = "88F21F75-214F-41EE-AE9C-B4AA79D6697C";
paths = (
{
closed = 1;
nodes = (
"210 0 LINE",
"210 236 LINE",
"361 236 LINE SMOOTH",
"520 236 OFFCURVE",
"613 304 OFFCURVE",
"613 453 CURVE SMOOTH",
"613 599 OFFCURVE",
"522 680 OFFCURVE",
"361 680 CURVE SMOOTH",
"50 680 LINE",
"50 0 LINE"
);
},
{
closed = 1;
nodes = (
"210 530 LINE",
"369 530 LINE SMOOTH",
"428 530 OFFCURVE",
"453 504 OFFCURVE",
"453 453 CURVE SMOOTH",
"453 403 OFFCURVE",
"427 376 OFFCURVE",
"369 376 CURVE SMOOTH",
"210 376 LINE"
);
}
);
width = 623;
}
);
note = P;
unicode = 0050;
},
{
glyphname = Thorn;
lastChange = "2021-10-22 22:04:10 +0000";
layers = (
{
layerId = "0A901A10-6B10-40AA-AC10-6ECA400C9626";
paths = (
{
closed = 1;
nodes = (
"78 0 LINE",
"78 169 LINE",
"225 169 LINE SMOOTH",
"356 169 OFFCURVE",
"441 244 OFFCURVE",
"441 359 CURVE SMOOTH",
"441 473 OFFCURVE",
"358 543 OFFCURVE",
"225 543 CURVE SMOOTH",
"78 543 LINE",
"78 683 LINE",
"50 683 LINE",
"50 0 LINE"
);
},
{
closed = 1;
nodes = (
"78 515 LINE",
"225 515 LINE SMOOTH",
"342 515 OFFCURVE",
"413 456 OFFCURVE",
"413 359 CURVE SMOOTH",
"413 261 OFFCURVE",
"339 197 OFFCURVE",
"225 197 CURVE SMOOTH",
"78 197 LINE"
);
}
);
width = 461;
},
{
layerId = "88F21F75-214F-41EE-AE9C-B4AA79D6697C";
paths = (
{
closed = 1;
nodes = (
"210 0 LINE",
"210 118 LINE",
"311 118 LINE SMOOTH",
"470 118 OFFCURVE",
"563 186 OFFCURVE",
"563 335 CURVE SMOOTH",
"563 481 OFFCURVE",
"472 562 OFFCURVE",
"311 562 CURVE SMOOTH",
"210 562 LINE",
"210 683 LINE",
"50 683 LINE",
"50 0 LINE"
);
},
{
closed = 1;
nodes = (
"210 412 LINE",
"319 412 LINE SMOOTH",
"378 412 OFFCURVE",
"403 386 OFFCURVE",
"403 335 CURVE SMOOTH",
"403 285 OFFCURVE",
"377 258 OFFCURVE",
"319 258 CURVE SMOOTH",
"210 258 LINE"
);
}
);
width = 573;
}
);
leftMetricsKey = P;
rightMetricsKey = P;
unicode = 00DE;
},
{
glyphname = Q;
lastChange = "2022-05-27 01:49:38 +0000";
layers = (
{
layerId = "0A901A10-6B10-40AA-AC10-6ECA400C9626";
paths = (
{
closed = 1;
nodes = (
"402 -5 OFFCURVE",
"470 22 OFFCURVE",
"525 71 CURVE",
"617 2 LINE",
"634 24 LINE",
"545 91 LINE",
"608 160 OFFCURVE",
"640 247 OFFCURVE",
"640 338 CURVE SMOOTH",
"640 516 OFFCURVE",
"515 688 OFFCURVE",
"331 688 CURVE SMOOTH",
"146 688 OFFCURVE",
"20 516 OFFCURVE",
"20 339 CURVE SMOOTH",
"20 164 OFFCURVE",
"144 -5 OFFCURVE",
"329 -5 CURVE SMOOTH"
);
},
{
closed = 1;
nodes = (
"174 23 OFFCURVE",
"48 165 OFFCURVE",
"48 341 CURVE SMOOTH",
"48 516 OFFCURVE",
"174 660 OFFCURVE",
"330 660 CURVE SMOOTH",
"485 660 OFFCURVE",
"612 516 OFFCURVE",
"612 340 CURVE SMOOTH",
"612 248 OFFCURVE",
"577 166 OFFCURVE",
"522 108 CURVE",
"404 198 LINE",
"387 175 LINE",
"502 89 LINE",
"454 48 OFFCURVE",
"395 23 OFFCURVE",
"330 23 CURVE SMOOTH"
);
}
);
width = 670;
},
{
layerId = "88F21F75-214F-41EE-AE9C-B4AA79D6697C";
paths = (
{
closed = 1;
nodes = (
"422 -5 OFFCURVE",
"478 10 OFFCURVE",
"527 37 CURVE",
"635 -42 LINE",
"712 68 LINE",
"632 127 LINE",
"678 185 OFFCURVE",
"705 260 OFFCURVE",
"705 340 CURVE SMOOTH",
"705 531 OFFCURVE",
"552 688 OFFCURVE",
"362 688 CURVE SMOOTH",
"170 688 OFFCURVE",
"20 528 OFFCURVE",
"20 340 CURVE SMOOTH",
"20 149 OFFCURVE",
"173 -5 OFFCURVE",
"362 -5 CURVE SMOOTH"
);
},
{
closed = 1;
nodes = (
"260 155 OFFCURVE",
"180 236 OFFCURVE",
"180 340 CURVE SMOOTH",
"180 444 OFFCURVE",
"262 528 OFFCURVE",
"362 528 CURVE SMOOTH",
"463 528 OFFCURVE",
"545 444 OFFCURVE",
"545 340 CURVE SMOOTH",
"545 294 OFFCURVE",
"529 253 OFFCURVE",
"503 221 CURVE",
"424 279 LINE",
"347 169 LINE",
"366 155 LINE",
"361 155 OFFCURVE",
"355 155 OFFCURVE",
"350 155 CURVE SMOOTH"
);
}
);
width = 736;
}
);
note = Q;
unicode = 0051;
},
{
glyphname = R;
lastChange = "2022-05-27 01:49:38 +0000";
layers = (
{
components = (
{
name = P;
}
);
layerId = "0A901A10-6B10-40AA-AC10-6ECA400C9626";
paths = (
{
closed = 1;
nodes = (
"491 0 LINE",
"342 319 LINE",
"311 319 LINE",
"461 0 LINE"
);
}
);
width = 541;
},
{
components = (
{
name = P;
}
);
layerId = "88F21F75-214F-41EE-AE9C-B4AA79D6697C";
paths = (
{
closed = 1;
nodes = (
"630 0 LINE",
"506 264 LINE",
"339 264 LINE",
"463 0 LINE"
);
}
);
width = 640;
}
);
note = R;
rightMetricsKey = P;
unicode = 0052;
},
{
glyphname = S;
lastChange = "2022-05-27 01:49:38 +0000";
layers = (
{
layerId = "0A901A10-6B10-40AA-AC10-6ECA400C9626";
paths = (
{
closed = 1;
nodes = (
"407 -5 OFFCURVE",
"521 56 OFFCURVE",
"521 185 CURVE SMOOTH",
"521 314 OFFCURVE",
"399 346 OFFCURVE",
"284 376 CURVE SMOOTH",
"180 403 OFFCURVE",
"82 429 OFFCURVE",
"82 523 CURVE SMOOTH",
"82 606 OFFCURVE",
"158 660 OFFCURVE",
"267 660 CURVE SMOOTH",
"329 660 OFFCURVE",
"474 642 OFFCURVE",
"474 474 CURVE",
"502 474 LINE",
"502 617 OFFCURVE",
"402 688 OFFCURVE",
"272 688 CURVE SMOOTH",
"168 688 OFFCURVE",
"54 643 OFFCURVE",
"54 525 CURVE SMOOTH",
"54 407 OFFCURVE",
"167 377 OFFCURVE",
"278 349 CURVE SMOOTH",
"387 322 OFFCURVE",
"493 295 OFFCURVE",
"493 183 CURVE SMOOTH",
"493 74 OFFCURVE",
"392 23 OFFCURVE",
"289 23 CURVE SMOOTH",
"174 23 OFFCURVE",
"58 88 OFFCURVE",
"58 213 CURVE",
"30 213 LINE",
"30 71 OFFCURVE",
"158 -5 OFFCURVE",
"289 -5 CURVE SMOOTH"
);
}
);
width = 550;
},
{
layerId = "88F21F75-214F-41EE-AE9C-B4AA79D6697C";
paths = (
{
closed = 1;
nodes = (
"498 -5 OFFCURVE",
"613 87 OFFCURVE",
"613 218 CURVE SMOOTH",
"613 335 OFFCURVE",
"547 401 OFFCURVE",
"329 430 CURVE SMOOTH",
"238 442 OFFCURVE",
"212 453 OFFCURVE",
"212 476 CURVE SMOOTH",
"212 509 OFFCURVE",
"251 528 OFFCURVE",
"318 528 CURVE SMOOTH",
"391 528 OFFCURVE",
"436 503 OFFCURVE",
"436 448 CURVE",
"596 448 LINE",
"596 592 OFFCURVE",
"486 688 OFFCURVE",
"319 688 CURVE SMOOTH",
"161 688 OFFCURVE",
"52 606 OFFCURVE",
"52 487 CURVE SMOOTH",
"52 376 OFFCURVE",
"119 323 OFFCURVE",
"298 300 CURVE SMOOTH",
"422 284 OFFCURVE",
"453 266 OFFCURVE",
"453 218 CURVE SMOOTH",
"453 181 OFFCURVE",
"404 155 OFFCURVE",
"336 155 CURVE SMOOTH",
"254 155 OFFCURVE",
"190 191 OFFCURVE",
"190 238 CURVE",
"30 238 LINE",
"30 99 OFFCURVE",
"160 -5 OFFCURVE",
"333 -5 CURVE SMOOTH"
);
}
);
width = 642;
},
{
associatedMasterId = "88F21F75-214F-41EE-AE9C-B4AA79D6697C";
layerId = "8416854E-BE92-4C76-94F3-904E6428969B";
name = "22 Jun 21, 15:05";
paths = (
{
closed = 1;
nodes = (
"470 -5 OFFCURVE",
"613 65 OFFCURVE",
"613 218 CURVE SMOOTH",
"613 389 OFFCURVE",
"448 413 OFFCURVE",
"329 430 CURVE SMOOTH",
"263 439 OFFCURVE",
"212 446 OFFCURVE",
"212 476 CURVE SMOOTH",
"212 515 OFFCURVE",
"263 528 OFFCURVE",
"318 528 CURVE SMOOTH",
"436 528 OFFCURVE",
"436 467 OFFCURVE",
"436 448 CURVE",
"596 448 LINE",
"596 612 OFFCURVE",
"463 688 OFFCURVE",
"319 688 CURVE SMOOTH",
"193 688 OFFCURVE",
"52 630 OFFCURVE",
"52 487 CURVE SMOOTH",
"52 335 OFFCURVE",
"185 316 OFFCURVE",
"298 300 CURVE SMOOTH",
"381 288 OFFCURVE",
"453 278 OFFCURVE",
"453 218 CURVE SMOOTH",
"453 168 OFFCURVE",
"380 155 OFFCURVE",
"336 155 CURVE SMOOTH",
"283 155 OFFCURVE",
"190 175 OFFCURVE",
"190 238 CURVE",
"30 238 LINE",
"30 77 OFFCURVE",
"187 -5 OFFCURVE",
"333 -5 CURVE SMOOTH"
);
}
);
width = 642;
}
);
note = S;
unicode = 0053;
},
{
glyphname = T;
lastChange = "2022-05-27 01:49:38 +0000";
layers = (
{
layerId = "0A901A10-6B10-40AA-AC10-6ECA400C9626";
paths = (
{
closed = 1;
nodes = (
"286 0 LINE",
"286 655 LINE",
"530 655 LINE",
"530 683 LINE",
"10 683 LINE",
"10 655 LINE",
"258 655 LINE",
"258 0 LINE"
);
}
);
width = 540;
},
{
layerId = "88F21F75-214F-41EE-AE9C-B4AA79D6697C";
paths = (
{
closed = 1;
nodes = (
"392 0 LINE",
"392 530 LINE",
"610 530 LINE",
"610 680 LINE",
"10 680 LINE",
"10 530 LINE",
"232 530 LINE",
"232 0 LINE"
);
}
);
width = 620;
}
);
note = T;
unicode = 0054;
},
{
glyphname = U;
lastChange = "2022-05-27 01:49:38 +0000";
layers = (
{
anchors = (
{
name = bottom;
position = "{287, 0}";
},
{
name = ogonek;
position = "{517, 10}";
},
{
name = top;
position = "{287, 680}";
},
{
name = topright;
position = "{554, 680}";
}
);
layerId = "0A901A10-6B10-40AA-AC10-6ECA400C9626";
paths = (
{
closed = 1;
nodes = (
"424 -5 OFFCURVE",
"535 76 OFFCURVE",
"535 243 CURVE SMOOTH",
"535 683 LINE",
"507 683 LINE",
"507 243 LINE SMOOTH",
"507 91 OFFCURVE",
"409 23 OFFCURVE",
"288 23 CURVE SMOOTH",
"166 23 OFFCURVE",
"68 91 OFFCURVE",
"68 243 CURVE SMOOTH",
"68 683 LINE",
"40 683 LINE",
"40 243 LINE SMOOTH",
"40 76 OFFCURVE",
"151 -5 OFFCURVE",
"288 -5 CURVE SMOOTH"
);
}
);
width = 574;
},
{
anchors = (
{
name = bottom;
position = "{345, 0}";
},
{
name = ogonek;
position = "{620, 10}";
},
{
name = top;
position = "{345, 680}";
},
{
name = topright;
position = "{669, 680}";
}
);
layerId = "88F21F75-214F-41EE-AE9C-B4AA79D6697C";
paths = (
{
closed = 1;
nodes = (
"512 -5 OFFCURVE",
"650 101 OFFCURVE",
"650 300 CURVE SMOOTH",
"650 683 LINE",
"490 683 LINE",
"490 340 LINE SMOOTH",
"490 222 OFFCURVE",
"439 155 OFFCURVE",
"345 155 CURVE SMOOTH",
"251 155 OFFCURVE",
"200 222 OFFCURVE",
"200 340 CURVE SMOOTH",
"200 683 LINE",
"40 683 LINE",
"40 300 LINE SMOOTH",
"40 103 OFFCURVE",
"176 -5 OFFCURVE",
"345 -5 CURVE SMOOTH"
);
}
);
width = 689;
}
);
note = U;
unicode = 0055;
},
{
glyphname = V;
lastChange = "2022-05-27 01:49:38 +0000";
layers = (
{
layerId = "0A901A10-6B10-40AA-AC10-6ECA400C9626";
paths = (
{
closed = 1;
nodes = (
"305 0 LINE",
"565 683 LINE",
"535 683 LINE",
"290 39 LINE",
"45 683 LINE",
"15 683 LINE",
"275 0 LINE"
);
}
);
width = 579;
},
{
layerId = "88F21F75-214F-41EE-AE9C-B4AA79D6697C";
paths = (
{
closed = 1;
nodes = (
"446 0 LINE",
"706 683 LINE",
"535 683 LINE",
"361 225 LINE",
"186 683 LINE",
"15 683 LINE",
"275 0 LINE"
);
}
);
width = 720;
}
);
note = V;
unicode = 0056;
},
{
glyphname = W;
lastChange = "2022-05-27 01:49:38 +0000";
layers = (
{
layerId = "0A901A10-6B10-40AA-AC10-6ECA400C9626";
paths = (
{
closed = 1;
nodes = (
"252 0 LINE",
"440 633 LINE",
"628 0 LINE",
"657 0 LINE",
"860 683 LINE",
"831 683 LINE",
"642 49 LINE",
"455 683 LINE",
"425 683 LINE",
"237 49 LINE",
"49 683 LINE",
"20 683 LINE",
"223 0 LINE"
);
}
);
width = 879;
},
{
layerId = "88F21F75-214F-41EE-AE9C-B4AA79D6697C";
paths = (
{
closed = 1;
nodes = (
"390 0 LINE",
"509 401 LINE",
"628 0 LINE",
"795 0 LINE",
"998 683 LINE",
"831 683 LINE",
"711 281 LINE",
"592 683 LINE",
"426 683 LINE",
"306 281 LINE",
"187 683 LINE",
"20 683 LINE",
"223 0 LINE"
);
}
);
width = 1017;
}
);
note = W;
unicode = 0057;
},
{
glyphname = X;
lastChange = "2022-05-27 01:49:37 +0000";
layers = (
{
layerId = "0A901A10-6B10-40AA-AC10-6ECA400C9626";
paths = (
{
closed = 1;
nodes = (
"55 0 LINE",
"297 331 LINE",
"540 0 LINE",
"575 0 LINE",
"315 354 LINE",
"556 683 LINE",
"521 683 LINE",
"297 378 LINE",
"74 683 LINE",
"39 683 LINE",
"280 354 LINE",
"20 0 LINE"
);
}
);
width = 595;
},
{
layerId = "88F21F75-214F-41EE-AE9C-B4AA79D6697C";
paths = (
{
closed = 1;
nodes = (
"217 0 LINE",
"371 217 LINE",
"526 0 LINE",
"722 0 LINE",
"469 355 LINE",
"703 683 LINE",
"507 683 LINE",
"371 493 LINE",
"235 683 LINE",
"39 683 LINE",
"273 355 LINE",
"20 0 LINE"
);
}
);
width = 742;
}
);
note = X;
unicode = 0058;
},
{
glyphname = Y;
lastChange = "2022-05-27 01:49:38 +0000";
layers = (
{
anchors = (
{
name = bottom;
position = "{283, 0}";
},
{
name = top;
position = "{283, 680}";
},
{
name = topleft;
position = "{20, 680}";
}
);
layerId = "0A901A10-6B10-40AA-AC10-6ECA400C9626";
paths = (
{
closed = 1;
nodes = (
"297 0 LINE",
"297 258 LINE",
"551 683 LINE",
"518 683 LINE",
"283 289 LINE",
"48 683 LINE",
"15 683 LINE",
"269 258 LINE",
"269 0 LINE"
);
}
);
width = 566;
},
{
anchors = (
{
name = bottom;
position = "{360, 0}";
},
{
name = top;
position = "{360, 680}";
},
{
name = topleft;
position = "{20, 680}";
}
);
layerId = "88F21F75-214F-41EE-AE9C-B4AA79D6697C";
paths = (
{
closed = 1;
nodes = (
"440 0 LINE",
"440 239 LINE",
"705 683 LINE",
"518 683 LINE",
"360 418 LINE",
"201 683 LINE",
"15 683 LINE",
"280 239 LINE",
"280 0 LINE"
);
}
);
width = 720;
}
);
note = Y;
unicode = 0059;
},
{
glyphname = Z;
lastChange = "2022-05-27 01:49:37 +0000";
layers = (
{
layerId = "0A901A10-6B10-40AA-AC10-6ECA400C9626";
paths = (
{
closed = 1;
nodes = (
"539 0 LINE",
"539 28 LINE",
"55 28 LINE",
"535 651 LINE",
"535 680 LINE",
"24 680 LINE",
"24 652 LINE",
"501 652 LINE",
"20 28 LINE",
"20 0 LINE"
);
}
);
width = 559;
},
{
layerId = "88F21F75-214F-41EE-AE9C-B4AA79D6697C";
paths = (
{
closed = 1;
nodes = (
"559 0 LINE",
"559 150 LINE",
"220 150 LINE",
"555 531 LINE",
"555 680 LINE",
"24 680 LINE",
"24 530 LINE",
"355 530 LINE",
"20 158 LINE",
"20 0 LINE"
);
}
);
width = 585;
}
);
note = Z;
unicode = 005A;
},
{
glyphname = G.001;
lastChange = "2022-05-27 01:49:38 +0000";
layers = (
{
layerId = "0A901A10-6B10-40AA-AC10-6ECA400C9626";
paths = (
{
closed = 1;
nodes = (
"505 -4 OFFCURVE",
"619 135 OFFCURVE",
"619 317 CURVE SMOOTH",
"619 333 LINE",
"285 333 LINE",
"285 305 LINE",
"613 305 LINE",
"591 324 LINE",
"591 139 OFFCURVE",
"474 24 OFFCURVE",
"331 23 CURVE SMOOTH",
"179 23 OFFCURVE",
"62 131 OFFCURVE",
"62 340 CURVE SMOOTH",
"62 550 OFFCURVE",
"180 660 OFFCURVE",
"331 660 CURVE SMOOTH",
"438 660 OFFCURVE",
"567 584 OFFCURVE",
"577 457 CURVE",
"609 457 LINE",
"599 592 OFFCURVE",
"465 688 OFFCURVE",
"331 688 CURVE SMOOTH",
"141 688 OFFCURVE",
"30 536 OFFCURVE",
"30 339 CURVE SMOOTH",
"30 141 OFFCURVE",
"141 -4 OFFCURVE",
"330 -4 CURVE SMOOTH"
);
}
);
width = 649;
},
{
layerId = "88F21F75-214F-41EE-AE9C-B4AA79D6697C";
paths = (
{
closed = 1;
nodes = (
"532 -5 OFFCURVE",
"697 103 OFFCURVE",
"697 325 CURVE SMOOTH",
"697 383 LINE",
"376 383 LINE",
"376 253 LINE",
"560 253 LINE",
"528 288 LINE",
"508 188 OFFCURVE",
"435 155 OFFCURVE",
"362 155 CURVE SMOOTH",
"257 155 OFFCURVE",
"200 222 OFFCURVE",
"200 340 CURVE SMOOTH",
"200 457 OFFCURVE",
"257 528 OFFCURVE",
"362 528 CURVE SMOOTH",
"434 528 OFFCURVE",
"498 494 OFFCURVE",
"508 415 CURVE",
"694 415 LINE",
"684 591 OFFCURVE",
"530 688 OFFCURVE",
"362 688 CURVE SMOOTH",
"160 688 OFFCURVE",
"20 548 OFFCURVE",
"20 340 CURVE SMOOTH",
"20 129 OFFCURVE",
"163 -5 OFFCURVE",
"362 -5 CURVE SMOOTH"
);
}
);
width = 717;
}
);
leftMetricsKey = O;
note = G;
rightMetricsKey = O;
},
{
glyphname = a;
lastChange = "2022-05-27 01:49:37 +0000";
layers = (
{
anchors = (
{
name = bottom;
position = "{259, 0}";
},
{
name = ogonek;
position = "{466, 10}";
},
{
name = top;
position = "{259, 518}";
}
);
layerId = "0A901A10-6B10-40AA-AC10-6ECA400C9626";
paths = (
{
closed = 1;
nodes = (
"343 -6 OFFCURVE",
"407 45 OFFCURVE",
"438 128 CURVE",
"442 128 LINE",
"442 0 LINE",
"468 0 LINE",
"468 518 LINE",
"442 518 LINE",
"442 385 LINE",
"438 385 LINE",
"406 469 OFFCURVE",
"342 522 OFFCURVE",
"244 522 CURVE SMOOTH",
"101 522 OFFCURVE",
"20 413 OFFCURVE",
"20 257 CURVE SMOOTH",
"20 101 OFFCURVE",
"101 -6 OFFCURVE",
"244 -6 CURVE SMOOTH"
);
},
{
closed = 1;
nodes = (
"118 22 OFFCURVE",
"50 117 OFFCURVE",
"50 257 CURVE SMOOTH",
"50 398 OFFCURVE",
"119 494 OFFCURVE",
"244 494 CURVE SMOOTH",
"369 494 OFFCURVE",
"438 398 OFFCURVE",
"438 257 CURVE SMOOTH",
"438 117 OFFCURVE",
"370 22 OFFCURVE",
"244 22 CURVE SMOOTH"
);
}
);
width = 518;
},
{
anchors = (
{
name = bottom;
position = "{319, 0}";
},
{
name = ogonek;
position = "{573, 10}";
},
{
name = top;
position = "{319, 518}";
}
);
layerId = "88F21F75-214F-41EE-AE9C-B4AA79D6697C";
rightMetricsKey = "=|n";
paths = (
{
closed = 1;
nodes = (
"347 -7 OFFCURVE",
"398 33 OFFCURVE",
"420 79 CURVE",
"424 79 LINE",
"424 0 LINE",
"577 0 LINE",
"577 518 LINE",
"424 518 LINE",
"424 437 LINE",
"420 437 LINE",
"398 483 OFFCURVE",
"337 523 OFFCURVE",
"264 523 CURVE SMOOTH",
"135 523 OFFCURVE",
"40 415 OFFCURVE",
"40 258 CURVE SMOOTH",
"40 101 OFFCURVE",
"135 -7 OFFCURVE",
"264 -7 CURVE SMOOTH"
);
},
{
closed = 1;
nodes = (
"231 151 OFFCURVE",
"198 190 OFFCURVE",
"198 258 CURVE SMOOTH",
"198 326 OFFCURVE",
"231 367 OFFCURVE",
"292 367 CURVE SMOOTH",
"353 367 OFFCURVE",
"386 326 OFFCURVE",
"386 258 CURVE SMOOTH",
"386 190 OFFCURVE",
"353 151 OFFCURVE",
"292 151 CURVE SMOOTH"
);
}
);
width = 637;
}
);
leftMetricsKey = o;
note = a;
unicode = 0061;
},
{
glyphname = ae;
lastChange = "2021-12-27 21:26:48 +0000";
layers = (
{
layerId = "0A901A10-6B10-40AA-AC10-6ECA400C9626";
paths = (
{
closed = 1;
nodes = (
"343 -6 OFFCURVE",
"407 45 OFFCURVE",
"438 128 CURVE",
"442 128 LINE",
"442 0 LINE",
"468 0 LINE",
"468 128 LINE",
"472 128 LINE",
"503 45 OFFCURVE",
"564 -6 OFFCURVE",
"663 -6 CURVE SMOOTH",
"766 -6 OFFCURVE",
"858 50 OFFCURVE",
"868 170 CURVE",
"836 170 LINE",
"826 67 OFFCURVE",
"748 22 OFFCURVE",
"662 22 CURVE SMOOTH",
"536 22 OFFCURVE",
"468 117 OFFCURVE",
"468 268 CURVE",
"867 268 LINE",
"867 284 LINE SMOOTH",
"867 453 OFFCURVE",
"763 522 OFFCURVE",
"664 522 CURVE SMOOTH",
"568 522 OFFCURVE",
"504 469 OFFCURVE",
"472 385 CURVE",
"468 385 LINE",
"468 518 LINE",
"442 518 LINE",
"442 385 LINE",
"438 385 LINE",
"406 469 OFFCURVE",
"342 522 OFFCURVE",
"244 522 CURVE SMOOTH",
"101 522 OFFCURVE",
"20 413 OFFCURVE",
"20 257 CURVE SMOOTH",
"20 101 OFFCURVE",
"101 -6 OFFCURVE",
"244 -6 CURVE SMOOTH"
);
},
{
closed = 1;
nodes = (
"118 22 OFFCURVE",
"50 117 OFFCURVE",
"50 257 CURVE SMOOTH",
"50 398 OFFCURVE",
"119 494 OFFCURVE",
"244 494 CURVE SMOOTH",
"369 494 OFFCURVE",
"438 398 OFFCURVE",
"438 257 CURVE SMOOTH",
"438 117 OFFCURVE",
"370 22 OFFCURVE",
"244 22 CURVE SMOOTH"
);
},
{
closed = 1;
nodes = (
"482 415 OFFCURVE",
"549 494 OFFCURVE",
"662 494 CURVE SMOOTH",
"747 494 OFFCURVE",
"826 449 OFFCURVE",
"836 296 CURVE",
"470 296 LINE"
);
}
);
width = 888;
},
{
layerId = "88F21F75-214F-41EE-AE9C-B4AA79D6697C";
paths = (
{
closed = 1;
nodes = (
"336 -7 OFFCURVE",
"394 26 OFFCURVE",
"420 79 CURVE",
"424 79 LINE",
"424 0 LINE",
"577 0 LINE",
"577 79 LINE",
"581 79 LINE",
"596 27 OFFCURVE",
"652 -7 OFFCURVE",
"723 -7 CURVE SMOOTH",
"823 -7 OFFCURVE",
"893 61 OFFCURVE",
"921 185 CURVE",
"766 185 LINE",
"747 157 OFFCURVE",
"715 140 OFFCURVE",
"681 140 CURVE SMOOTH",
"637 140 OFFCURVE",
"605 166 OFFCURVE",
"592 212 CURVE",
"929 212 LINE",
"929 250 LINE SMOOTH",
"929 409 OFFCURVE",
"845 523 OFFCURVE",
"728 523 CURVE SMOOTH",
"658 523 OFFCURVE",
"611 495 OFFCURVE",
"581 437 CURVE",
"577 437 LINE",
"577 518 LINE",
"424 518 LINE",
"424 437 LINE",
"420 437 LINE",
"396 488 OFFCURVE",
"331 523 OFFCURVE",
"261 523 CURVE SMOOTH",
"133 523 OFFCURVE",
"40 412 OFFCURVE",
"40 258 CURVE SMOOTH",
"40 103 OFFCURVE",
"134 -7 OFFCURVE",
"266 -7 CURVE SMOOTH"
);
},
{
closed = 1;
nodes = (
"232 151 OFFCURVE",
"198 189 OFFCURVE",
"198 258 CURVE SMOOTH",
"198 327 OFFCURVE",
"232 367 OFFCURVE",
"292 367 CURVE SMOOTH",
"352 367 OFFCURVE",
"386 327 OFFCURVE",
"386 258 CURVE SMOOTH",
"386 189 OFFCURVE",
"352 151 OFFCURVE",
"292 151 CURVE SMOOTH"
);
},
{
closed = 1;
nodes = (
"612 350 OFFCURVE",
"641 373 OFFCURVE",
"678 373 CURVE SMOOTH",
"715 373 OFFCURVE",
"749 348 OFFCURVE",
"761 311 CURVE",
"596 311 LINE"
);
}
);
width = 969;
}
);
leftMetricsKey = a;
rightMetricsKey = e;
unicode = 00E6;
},
{
glyphname = b;
lastChange = "2022-05-27 01:49:38 +0000";
layers = (
{
components = (
{
name = a;
transform = "{-1, 0, 0, 1, 518, 0}";
}
);
layerId = "0A901A10-6B10-40AA-AC10-6ECA400C9626";
leftMetricsKey = "=|a";
paths = (
{
closed = 1;
nodes = (
"76 388 LINE",
"76 683 LINE",
"50 683 LINE",
"50 388 LINE"
);
}
);
width = 518;
},
{
components = (
{
name = a;
transform = "{-1, 0, 0, 1, 637, 0}";
}
);
layerId = "88F21F75-214F-41EE-AE9C-B4AA79D6697C";
leftMetricsKey = "=|a";
paths = (
{
closed = 1;
nodes = (
"213 504 LINE",
"213 683 LINE",
"60 683 LINE",
"60 504 LINE"
);
}
);
width = 637;
}
);
note = b;
rightMetricsKey = o;
unicode = 0062;
},
{
glyphname = c;
lastChange = "2022-05-27 01:49:38 +0000";
layers = (
{
anchors = (
{
name = bottom;
position = "{235, 0}";
},
{
name = top;
position = "{235, 518}";
}
);
layerId = "0A901A10-6B10-40AA-AC10-6ECA400C9626";
paths = (
{
closed = 1;
nodes = (
"347 -6 OFFCURVE",
"440 50 OFFCURVE",
"450 170 CURVE",
"418 170 LINE",
"408 67 OFFCURVE",
"330 22 OFFCURVE",
"244 22 CURVE SMOOTH",
"118 22 OFFCURVE",
"50 117 OFFCURVE",
"50 257 CURVE SMOOTH",
"50 398 OFFCURVE",
"119 494 OFFCURVE",
"244 494 CURVE SMOOTH",
"329 494 OFFCURVE",
"408 449 OFFCURVE",
"418 346 CURVE",
"449 346 LINE",
"439 465 OFFCURVE",
"345 522 OFFCURVE",
"244 522 CURVE SMOOTH",
"101 522 OFFCURVE",
"20 413 OFFCURVE",
"20 257 CURVE SMOOTH",
"20 101 OFFCURVE",
"101 -6 OFFCURVE",
"244 -6 CURVE SMOOTH"
);
}
);
width = 470;
},
{
anchors = (
{
name = bottom;
position = "{292, 0}";
},
{
name = top;
position = "{292, 518}";
}
);
layerId = "88F21F75-214F-41EE-AE9C-B4AA79D6697C";
paths = (
{
closed = 1;
nodes = (
"436 -5 OFFCURVE",
"534 79 OFFCURVE",
"544 216 CURVE",
"376 216 LINE",
"366 173 OFFCURVE",
"333 154 OFFCURVE",
"294 154 CURVE SMOOTH",
"237 154 OFFCURVE",
"202 194 OFFCURVE",
"202 258 CURVE SMOOTH",
"202 322 OFFCURVE",
"238 364 OFFCURVE",
"294 364 CURVE SMOOTH",
"332 364 OFFCURVE",
"366 344 OFFCURVE",
"376 291 CURVE",
"544 291 LINE",
"534 438 OFFCURVE",
"434 523 OFFCURVE",
"294 523 CURVE SMOOTH",
"134 523 OFFCURVE",
"40 414 OFFCURVE",
"40 258 CURVE SMOOTH",
"40 102 OFFCURVE",
"134 -5 OFFCURVE",
"294 -5 CURVE SMOOTH"
);
}
);
width = 584;
}
);
leftMetricsKey = o;
note = c;
rightMetricsKey = o;
unicode = 0063;
},
{
glyphname = eth;
lastChange = "2022-05-27 01:49:38 +0000";
layers = (
{
layerId = "0A901A10-6B10-40AA-AC10-6ECA400C9626";
paths = (
{
closed = 1;
nodes = (
"343 -6 OFFCURVE",
"407 45 OFFCURVE",
"438 128 CURVE",
"442 128 LINE",
"442 0 LINE",
"468 0 LINE",
"468 612 LINE SMOOTH",
"468 693 OFFCURVE",
"418 711 OFFCURVE",
"358 722 CURVE SMOOTH",
"245 742 LINE",
"245 714 LINE",
"358 694 LINE SMOOTH",
"402 686 OFFCURVE",
"442 677 OFFCURVE",
"442 612 CURVE SMOOTH",
"442 385 LINE",
"438 385 LINE",
"406 469 OFFCURVE",
"342 522 OFFCURVE",
"244 522 CURVE SMOOTH",
"101 522 OFFCURVE",
"20 413 OFFCURVE",
"20 257 CURVE SMOOTH",
"20 101 OFFCURVE",
"101 -6 OFFCURVE",
"244 -6 CURVE SMOOTH"
);
},
{
closed = 1;
nodes = (
"118 22 OFFCURVE",
"50 117 OFFCURVE",
"50 257 CURVE SMOOTH",
"50 398 OFFCURVE",
"119 494 OFFCURVE",
"244 494 CURVE SMOOTH",
"369 494 OFFCURVE",
"438 398 OFFCURVE",
"438 257 CURVE SMOOTH",
"438 117 OFFCURVE",
"370 22 OFFCURVE",
"244 22 CURVE SMOOTH"
);
},
{
closed = 1;
nodes = (
"319 623 LINE",
"355 782 LINE",
"327 782 LINE",
"291 623 LINE"
);
}
);
width = 518;
},
{
layerId = "88F21F75-214F-41EE-AE9C-B4AA79D6697C";
paths = (
{
closed = 1;
nodes = (
"347 -7 OFFCURVE",
"398 33 OFFCURVE",
"420 79 CURVE",
"424 79 LINE",
"424 0 LINE",
"577 0 LINE",
"577 604 LINE SMOOTH",
"577 706 OFFCURVE",
"530 749 OFFCURVE",
"399 782 CURVE SMOOTH",
"198 832 LINE",
"198 672 LINE",
"379 625 LINE SMOOTH",
"416 615 OFFCURVE",
"424 606 OFFCURVE",
"424 573 CURVE SMOOTH",
"424 437 LINE",
"420 437 LINE",
"398 483 OFFCURVE",
"337 523 OFFCURVE",
"264 523 CURVE SMOOTH",
"135 523 OFFCURVE",
"40 415 OFFCURVE",
"40 258 CURVE SMOOTH",
"40 101 OFFCURVE",
"135 -7 OFFCURVE",
"264 -7 CURVE SMOOTH"
);
},
{
closed = 1;
nodes = (
"231 151 OFFCURVE",
"198 190 OFFCURVE",
"198 258 CURVE SMOOTH",
"198 326 OFFCURVE",
"231 367 OFFCURVE",
"292 367 CURVE SMOOTH",
"353 367 OFFCURVE",
"386 326 OFFCURVE",
"386 258 CURVE SMOOTH",
"386 190 OFFCURVE",
"353 151 OFFCURVE",
"292 151 CURVE SMOOTH"
);
},
{
closed = 1;
nodes = (
"316 579 LINE",
"386 865 LINE",
"319 865 LINE",
"249 579 LINE"
);
}
);
width = 637;
}
);
leftMetricsKey = d;
rightMetricsKey = d;
unicode = 00F0;
},
{
glyphname = e;
lastChange = "2022-05-27 01:49:38 +0000";
layers = (
{
anchors = (
{
name = bottom;
position = "{239, 0}";
},
{
name = ogonek;
position = "{429, 10}";
},
{
name = top;
position = "{239, 518}";
}
);
layerId = "0A901A10-6B10-40AA-AC10-6ECA400C9626";
paths = (
{
closed = 1;
nodes = (
"347 -6 OFFCURVE",
"440 50 OFFCURVE",
"450 170 CURVE",
"418 170 LINE",
"408 67 OFFCURVE",
"330 22 OFFCURVE",
"244 22 CURVE SMOOTH",
"118 22 OFFCURVE",
"50 117 OFFCURVE",
"50 257 CURVE SMOOTH",
"50 398 OFFCURVE",
"119 494 OFFCURVE",
"244 494 CURVE SMOOTH",
"329 494 OFFCURVE",
"408 449 OFFCURVE",
"418 296 CURVE",
"37 296 LINE",
"37 268 LINE",
"449 268 LINE",
"449 296 LINE",
"439 465 OFFCURVE",
"345 522 OFFCURVE",
"244 522 CURVE SMOOTH",
"101 522 OFFCURVE",
"20 413 OFFCURVE",
"20 257 CURVE SMOOTH",
"20 101 OFFCURVE",
"101 -6 OFFCURVE",
"244 -6 CURVE SMOOTH"
);
}
);
width = 470;
},
{
anchors = (
{
name = bottom;
position = "{292, 0}";
},
{
name = ogonek;
position = "{526, 10}";
},
{
name = top;
position = "{292, 518}";
}
);
layerId = "88F21F75-214F-41EE-AE9C-B4AA79D6697C";
paths = (
{
closed = 1;
nodes = (
"425 -5 OFFCURVE",
"511 73 OFFCURVE",
"536 185 CURVE",
"381 185 LINE",
"367 164 OFFCURVE",
"340 140 OFFCURVE",
"294 140 CURVE SMOOTH",
"232 140 OFFCURVE",
"202 194 OFFCURVE",
"202 258 CURVE SMOOTH",
"202 323 OFFCURVE",
"238 373 OFFCURVE",
"294 373 CURVE SMOOTH",
"334 373 OFFCURVE",
"366 343 OFFCURVE",
"376 311 CURVE",
"161 311 LINE",
"161 212 LINE",
"544 212 LINE",
"544 250 LINE SMOOTH",
"544 414 OFFCURVE",
"442 523 OFFCURVE",
"289 523 CURVE SMOOTH",
"140 523 OFFCURVE",
"40 417 OFFCURVE",
"40 258 CURVE SMOOTH",
"40 109 OFFCURVE",
"132 -5 OFFCURVE",
"292 -5 CURVE SMOOTH"
);
}
);
width = 584;
}
);
leftMetricsKey = o;
note = e;
rightMetricsKey = o;
unicode = 0065;
},
{
glyphname = f;
lastChange = "2022-05-27 01:49:38 +0000";
layers = (
{
layerId = "0A901A10-6B10-40AA-AC10-6ECA400C9626";
paths = (
{
closed = 1;
nodes = (
"149 0 LINE",
"149 490 LINE",
"250 490 LINE",
"250 518 LINE",
"149 518 LINE",
"149 573 LINE SMOOTH",
"149 618 OFFCURVE",
"186 655 OFFCURVE",
"231 655 CURVE SMOOTH",
"264 655 LINE",
"264 683 LINE",
"231 683 LINE SMOOTH",
"170 683 OFFCURVE",
"121 634 OFFCURVE",
"121 573 CURVE SMOOTH",
"121 518 LINE",
"20 518 LINE",
"20 490 LINE",
"121 490 LINE",
"121 0 LINE"
);
}
);
width = 283;
},
{
layerId = "88F21F75-214F-41EE-AE9C-B4AA79D6697C";
paths = (
{
closed = 1;
nodes = (
"230 0 LINE",
"230 373 LINE",
"320 373 LINE",
"320 518 LINE",
"230 518 LINE",
"230 523 LINE SMOOTH",
"230 540 OFFCURVE",
"238 556 OFFCURVE",
"266 556 CURVE SMOOTH",
"320 556 LINE",
"320 716 LINE",
"248 716 LINE SMOOTH",
"150 716 OFFCURVE",
"70 669 OFFCURVE",
"70 538 CURVE SMOOTH",
"70 518 LINE",
"20 518 LINE",
"20 373 LINE",
"70 373 LINE",
"70 0 LINE"
);
}
);
width = 340;
}
);
note = f;
unicode = 0066;
},
{
glyphname = g;
lastChange = "2022-05-27 01:49:38 +0000";
layers = (
{
components = (
{
name = a;
}
);
layerId = "0A901A10-6B10-40AA-AC10-6ECA400C9626";
paths = (
{
closed = 1;
nodes = (
"389 -165 OFFCURVE",
"468 -101 OFFCURVE",
"468 0 CURVE",
"442 0 LINE",
"442 -84 OFFCURVE",
"378 -137 OFFCURVE",
"274 -137 CURVE SMOOTH",
"224 -137 OFFCURVE",
"169 -125 OFFCURVE",
"134 -100 CURVE",
"117 -123 LINE",
"157 -151 OFFCURVE",
"218 -165 OFFCURVE",
"272 -165 CURVE SMOOTH"
);
}
);
width = 508;
},
{
components = (
{
name = a;
}
);
layerId = "88F21F75-214F-41EE-AE9C-B4AA79D6697C";
rightMetricsKey = "=|n";
paths = (
{
closed = 1;
nodes = (
"494 -225 OFFCURVE",
"577 -149 OFFCURVE",
"577 0 CURVE",
"424 0 LINE",
"424 -38 OFFCURVE",
"382 -65 OFFCURVE",
"324 -65 CURVE SMOOTH",
"290 -65 OFFCURVE",
"245 -54 OFFCURVE",
"226 -41 CURVE",
"131 -169 LINE",
"184 -206 OFFCURVE",
"253 -225 OFFCURVE",
"333 -225 CURVE SMOOTH"
);
}
);
width = 637;
}
);
leftMetricsKey = o;
note = g;
unicode = 0067;
},
{
glyphname = h;
lastChange = "2022-05-27 01:49:38 +0000";
layers = (
{
components = (
{
name = n;
}
);
layerId = "0A901A10-6B10-40AA-AC10-6ECA400C9626";
paths = (
{
closed = 1;
nodes = (
"76 388 LINE",
"76 683 LINE",
"50 683 LINE",
"50 388 LINE"
);
}
);
width = 479;
},
{
components = (
{
name = n;
}
);
layerId = "88F21F75-214F-41EE-AE9C-B4AA79D6697C";
paths = (
{
closed = 1;
nodes = (
"213 504 LINE",
"213 683 LINE",
"60 683 LINE",
"60 504 LINE"
);
}
);
width = 621;
}
);
leftMetricsKey = n;
note = h;
rightMetricsKey = n;
unicode = 0068;
},
{
glyphname = i;
lastChange = "2022-05-27 01:49:38 +0000";
layers = (
{
layerId = "0A901A10-6B10-40AA-AC10-6ECA400C9626";
paths = (
{
closed = 1;
nodes = (
"78 0 LINE",
"78 518 LINE",
"50 518 LINE",
"50 0 LINE"
);
},
{
closed = 1;
nodes = (
"78 583 LINE",
"78 683 LINE",
"50 683 LINE",
"50 583 LINE"
);
}
);
width = 128;
},
{
layerId = "88F21F75-214F-41EE-AE9C-B4AA79D6697C";
paths = (
{
closed = 1;
nodes = (
"210 0 LINE",
"210 518 LINE",
"50 518 LINE",
"50 0 LINE"
);
},
{
closed = 1;
nodes = (
"210 568 LINE",
"210 694 LINE",
"50 694 LINE",
"50 568 LINE"
);
}
);
width = 260;
}
);
note = i;
unicode = 0069;
},
{
glyphname = idotless;
lastChange = "2021-10-22 16:01:53 +0000";
layers = (
{
anchors = (
{
name = bottom;
position = "{64, 0}";
},
{
name = ogonek;
position = "{115, 10}";
},
{
name = top;
position = "{64, 518}";
}
);
layerId = "0A901A10-6B10-40AA-AC10-6ECA400C9626";
paths = (
{
closed = 1;
nodes = (
"78 0 LINE",
"78 518 LINE",
"50 518 LINE",
"50 0 LINE"
);
}
);
width = 128;
},
{
anchors = (
{
name = bottom;
position = "{130, 0}";
},
{
name = ogonek;
position = "{234, 10}";
},
{
name = top;
position = "{130, 518}";
}
);
layerId = "88F21F75-214F-41EE-AE9C-B4AA79D6697C";
paths = (
{
closed = 1;
nodes = (
"210 0 LINE",
"210 495 LINE",
"50 495 LINE",
"50 0 LINE"
);
}
);
width = 260;
}
);
leftMetricsKey = i;
rightMetricsKey = i;
unicode = 0131;
},
{
glyphname = j;
lastChange = "2022-05-27 01:49:38 +0000";
layers = (
{
layerId = "0A901A10-6B10-40AA-AC10-6ECA400C9626";
paths = (
{
closed = 1;
nodes = (
"16 -165 LINE SMOOTH",
"78 -165 OFFCURVE",
"128 -133 OFFCURVE",
"128 -53 CURVE SMOOTH",
"128 518 LINE",
"100 518 LINE",
"100 -53 LINE SMOOTH",
"100 -111 OFFCURVE",
"62 -137 OFFCURVE",
"16 -137 CURVE SMOOTH",
"-8 -137 LINE",
"-8 -165 LINE"
);
},
{
closed = 1;
nodes = (
"128 583 LINE",
"128 683 LINE",
"100 683 LINE",
"100 583 LINE"
);
}
);
width = 177;
},
{
layerId = "88F21F75-214F-41EE-AE9C-B4AA79D6697C";
paths = (
{
closed = 1;
nodes = (
"16 -215 LINE SMOOTH",
"114 -215 OFFCURVE",
"194 -168 OFFCURVE",
"194 -37 CURVE SMOOTH",
"194 495 LINE",
"34 495 LINE",
"34 -22 LINE SMOOTH",
"34 -39 OFFCURVE",
"26 -55 OFFCURVE",
"-2 -55 CURVE SMOOTH",
"-56 -55 LINE",
"-56 -215 LINE"
);
},
{
closed = 1;
nodes = (
"194 545 LINE",
"194 694 LINE",
"34 694 LINE",
"34 545 LINE"
);
}
);
width = 243;
}
);
note = j;
unicode = 006A;
},
{
glyphname = k;
lastChange = "2022-05-27 01:49:38 +0000";
layers = (
{
layerId = "0A901A10-6B10-40AA-AC10-6ECA400C9626";
paths = (
{
closed = 1;
nodes = (
"78 0 LINE",
"78 190 LINE",
"195 290 LINE",
"415 0 LINE",
"450 0 LINE",
"217 308 LINE",
"463 518 LINE",
"420 518 LINE",
"78 227 LINE",
"78 683 LINE",
"50 683 LINE",
"50 0 LINE"
);
}
);
width = 483;
},
{
layerId = "88F21F75-214F-41EE-AE9C-B4AA79D6697C";
paths = (
{
closed = 1;
nodes = (
"210 0 LINE",
"210 164 LINE",
"239 194 LINE",
"352 0 LINE",
"538 0 LINE",
"354 313 LINE",
"553 518 LINE",
"330 518 LINE",
"210 394 LINE",
"210 683 LINE",
"50 683 LINE",
"50 0 LINE"
);
}
);
width = 573;
}
);
note = k;
unicode = 006B;
},
{
glyphname = l;
lastChange = "2022-05-27 01:49:38 +0000";
layers = (
{
layerId = "0A901A10-6B10-40AA-AC10-6ECA400C9626";
paths = (
{
closed = 1;
nodes = (
"78 0 LINE",
"78 683 LINE",
"50 683 LINE",
"50 0 LINE"
);
}
);
width = 128;
},
{
layerId = "88F21F75-214F-41EE-AE9C-B4AA79D6697C";
paths = (
{
closed = 1;
nodes = (
"210 0 LINE",
"210 683 LINE",
"50 683 LINE",
"50 0 LINE"
);
}
);
width = 260;
}
);
note = l;
unicode = 006C;
},
{
glyphname = m;
lastChange = "2022-05-27 01:49:38 +0000";
layers = (
{
layerId = "0A901A10-6B10-40AA-AC10-6ECA400C9626";
paths = (
{
closed = 1;
nodes = (
"78 -5 LINE",
"78 262 LINE SMOOTH",
"78 403 OFFCURVE",
"152 490 OFFCURVE",
"260 490 CURVE SMOOTH",
"353 490 OFFCURVE",
"406 432 OFFCURVE",
"406 311 CURVE SMOOTH",
"406 -5 LINE",
"434 -5 LINE",
"434 262 LINE SMOOTH",
"434 403 OFFCURVE",
"508 490 OFFCURVE",
"616 490 CURVE SMOOTH",
"709 490 OFFCURVE",
"762 432 OFFCURVE",
"762 311 CURVE SMOOTH",
"762 -5 LINE",
"790 -5 LINE",
"790 313 LINE SMOOTH",
"790 450 OFFCURVE",
"728 518 OFFCURVE",
"618 518 CURVE SMOOTH",
"528 518 OFFCURVE",
"456 468 OFFCURVE",
"429 377 CURVE",
"411 471 OFFCURVE",
"353 518 OFFCURVE",
"262 518 CURVE SMOOTH",
"171 518 OFFCURVE",
"106 469 OFFCURVE",
"80 384 CURVE",
"76 384 LINE",
"76 513 LINE",
"50 513 LINE",
"50 -5 LINE"
);
}
);
width = 830;
},
{
layerId = "88F21F75-214F-41EE-AE9C-B4AA79D6697C";
paths = (
{
closed = 1;
nodes = (
"220 0 LINE",
"220 239 LINE SMOOTH",
"220 321 OFFCURVE",
"251 363 OFFCURVE",
"324 363 CURVE SMOOTH",
"384 363 OFFCURVE",
"411 326 OFFCURVE",
"411 246 CURVE SMOOTH",
"411 0 LINE",
"571 0 LINE",
"571 239 LINE SMOOTH",
"571 321 OFFCURVE",
"602 363 OFFCURVE",
"675 363 CURVE SMOOTH",
"735 363 OFFCURVE",
"762 326 OFFCURVE",
"762 246 CURVE SMOOTH",
"762 0 LINE",
"922 0 LINE",
"922 315 LINE SMOOTH",
"922 438 OFFCURVE",
"853 523 OFFCURVE",
"734 523 CURVE SMOOTH",
"661 523 OFFCURVE",
"587 486 OFFCURVE",
"547 427 CURVE",
"517 487 OFFCURVE",
"461 523 OFFCURVE",
"383 523 CURVE SMOOTH",
"300 523 OFFCURVE",
"246 485 OFFCURVE",
"217 437 CURVE",
"213 437 LINE",
"213 518 LINE",
"60 518 LINE",
"60 0 LINE"
);
}
);
width = 962;
}
);
leftMetricsKey = n;
note = m;
rightMetricsKey = n;
unicode = 006D;
},
{
glyphname = n;
lastChange = "2022-05-27 01:49:38 +0000";
layers = (
{
anchors = (
{
name = bottom;
position = "{240, 0}";
},
{
name = top;
position = "{240, 518}";
}
);
layerId = "0A901A10-6B10-40AA-AC10-6ECA400C9626";
paths = (
{
closed = 1;
nodes = (
"78 0 LINE",
"78 267 LINE SMOOTH",
"78 408 OFFCURVE",
"152 495 OFFCURVE",
"260 495 CURVE SMOOTH",
"353 495 OFFCURVE",
"411 431 OFFCURVE",
"411 316 CURVE SMOOTH",
"411 0 LINE",
"439 0 LINE",
"439 318 LINE SMOOTH",
"439 451 OFFCURVE",
"372 523 OFFCURVE",
"262 523 CURVE SMOOTH",
"171 523 OFFCURVE",
"106 474 OFFCURVE",
"80 389 CURVE",
"76 389 LINE",
"76 518 LINE",
"50 518 LINE",
"50 0 LINE"
);
}
);
width = 479;
},
{
anchors = (
{
name = bottom;
position = "{311, 0}";
},
{
name = top;
position = "{311, 518}";
}
);
layerId = "88F21F75-214F-41EE-AE9C-B4AA79D6697C";
paths = (
{
closed = 1;
nodes = (
"220 0 LINE",
"220 239 LINE SMOOTH",
"220 321 OFFCURVE",
"251 363 OFFCURVE",
"324 363 CURVE SMOOTH",
"392 363 OFFCURVE",
"421 326 OFFCURVE",
"421 246 CURVE SMOOTH",
"421 0 LINE",
"581 0 LINE",
"581 315 LINE SMOOTH",
"581 438 OFFCURVE",
"512 523 OFFCURVE",
"383 523 CURVE SMOOTH",
"300 523 OFFCURVE",
"246 485 OFFCURVE",
"217 437 CURVE",
"213 437 LINE",
"213 518 LINE",
"60 518 LINE",
"60 0 LINE"
);
}
);
width = 621;
}
);
note = n;
unicode = 006E;
},
{
glyphname = o;
lastChange = "2022-05-27 01:49:38 +0000";
layers = (
{
anchors = (
{
name = bottom;
position = "{244, 0}";
},
{
name = center;
position = "{244, 259}";
},
{
name = ogonek;
position = "{439, 10}";
},
{
name = top;
position = "{244, 518}";
},
{
name = topright;
position = "{468, 518}";
}
);
layerId = "0A901A10-6B10-40AA-AC10-6ECA400C9626";
paths = (
{
closed = 1;
nodes = (
"387 -6 OFFCURVE",
"468 101 OFFCURVE",
"468 257 CURVE SMOOTH",
"468 412 OFFCURVE",
"385 522 OFFCURVE",
"244 522 CURVE SMOOTH",
"101 522 OFFCURVE",
"20 413 OFFCURVE",
"20 257 CURVE SMOOTH",
"20 101 OFFCURVE",
"101 -6 OFFCURVE",
"244 -6 CURVE SMOOTH"
);
},
{
closed = 1;
nodes = (
"118 22 OFFCURVE",
"50 117 OFFCURVE",
"50 257 CURVE SMOOTH",
"50 398 OFFCURVE",
"119 494 OFFCURVE",
"244 494 CURVE SMOOTH",
"369 494 OFFCURVE",
"438 398 OFFCURVE",
"438 257 CURVE SMOOTH",
"438 117 OFFCURVE",
"370 22 OFFCURVE",
"244 22 CURVE SMOOTH"
);
}
);
width = 488;
},
{
anchors = (
{
name = bottom;
position = "{292, 0}";
},
{
name = center;
position = "{292, 259}";
},
{
name = ogonek;
position = "{526, 10}";
},
{
name = top;
position = "{292, 518}";
},
{
name = topright;
position = "{564, 518}";
}
);
layerId = "88F21F75-214F-41EE-AE9C-B4AA79D6697C";
paths = (
{
closed = 1;
nodes = (
"452 -5 OFFCURVE",
"544 109 OFFCURVE",
"544 258 CURVE SMOOTH",
"544 407 OFFCURVE",
"451 523 OFFCURVE",
"292 523 CURVE SMOOTH",
"132 523 OFFCURVE",
"40 407 OFFCURVE",
"40 258 CURVE SMOOTH",
"40 109 OFFCURVE",
"132 -5 OFFCURVE",
"292 -5 CURVE SMOOTH"
);
},
{
closed = 1;
nodes = (
"231 151 OFFCURVE",
"198 190 OFFCURVE",
"198 258 CURVE SMOOTH",
"198 326 OFFCURVE",
"231 367 OFFCURVE",
"292 367 CURVE SMOOTH",
"353 367 OFFCURVE",
"386 326 OFFCURVE",
"386 258 CURVE SMOOTH",
"386 190 OFFCURVE",
"353 151 OFFCURVE",
"292 151 CURVE SMOOTH"
);
}
);
width = 584;
}
);
note = o;
unicode = 006F;
},
{
color = 0;
glyphname = oslash;
lastChange = "2022-05-27 00:59:10 +0000";
layers = (
{
components = (
{
name = o;
}
);
layerId = "0A901A10-6B10-40AA-AC10-6ECA400C9626";
paths = (
{
closed = 1;
nodes = (
"44 0 LINE",
"469 518 LINE",
"435 518 LINE",
"10 0 LINE"
);
}
);
width = 479;
},
{
components = (
{
name = o;
transform = "{1, 0, 0, 1, 6, 0}";
}
);
layerId = "88F21F75-214F-41EE-AE9C-B4AA79D6697C";
paths = (
{
closed = 1;
nodes = (
"190 0 LINE",
"575 518 LINE",
"405 518 LINE",
"20 0 LINE"
);
}
);
width = 595;
}
);
unicode = 00F8;
},
{
glyphname = oe;
lastChange = "2021-12-27 21:31:36 +0000";
layers = (
{
layerId = "0A901A10-6B10-40AA-AC10-6ECA400C9626";
paths = (
{
closed = 1;
nodes = (
"387 -6 OFFCURVE",
"468 101 OFFCURVE",
"468 257 CURVE SMOOTH",
"468 412 OFFCURVE",
"385 522 OFFCURVE",
"244 522 CURVE SMOOTH",
"101 522 OFFCURVE",
"20 413 OFFCURVE",
"20 257 CURVE SMOOTH",
"20 101 OFFCURVE",
"101 -6 OFFCURVE",
"244 -6 CURVE SMOOTH"
);
},
{
closed = 1;
nodes = (
"118 22 OFFCURVE",
"50 117 OFFCURVE",
"50 257 CURVE SMOOTH",
"50 398 OFFCURVE",
"119 494 OFFCURVE",
"244 494 CURVE SMOOTH",
"369 494 OFFCURVE",
"438 398 OFFCURVE",
"438 257 CURVE SMOOTH",
"438 117 OFFCURVE",
"370 22 OFFCURVE",
"244 22 CURVE SMOOTH"
);
},
{
closed = 1;
nodes = (
"765 -6 OFFCURVE",
"858 50 OFFCURVE",
"868 170 CURVE",
"836 170 LINE",
"826 67 OFFCURVE",
"748 22 OFFCURVE",
"662 22 CURVE SMOOTH",
"536 22 OFFCURVE",
"468 117 OFFCURVE",
"468 257 CURVE SMOOTH",
"468 398 OFFCURVE",
"537 494 OFFCURVE",
"662 494 CURVE SMOOTH",
"747 494 OFFCURVE",
"826 449 OFFCURVE",
"836 296 CURVE",
"455 296 LINE",
"455 268 LINE",
"867 268 LINE",
"867 296 LINE",
"857 465 OFFCURVE",
"763 522 OFFCURVE",
"662 522 CURVE SMOOTH",
"519 522 OFFCURVE",
"438 413 OFFCURVE",
"438 257 CURVE SMOOTH",
"438 101 OFFCURVE",
"519 -6 OFFCURVE",
"662 -6 CURVE SMOOTH"
);
}
);
width = 888;
},
{
layerId = "88F21F75-214F-41EE-AE9C-B4AA79D6697C";
paths = (
{
closed = 1;
nodes = (
"452 -5 OFFCURVE",
"544 109 OFFCURVE",
"544 258 CURVE SMOOTH",
"544 407 OFFCURVE",
"451 523 OFFCURVE",
"292 523 CURVE SMOOTH",
"132 523 OFFCURVE",
"40 407 OFFCURVE",
"40 258 CURVE SMOOTH",
"40 109 OFFCURVE",
"132 -5 OFFCURVE",
"292 -5 CURVE SMOOTH"
);
},
{
closed = 1;
nodes = (
"231 151 OFFCURVE",
"198 190 OFFCURVE",
"198 258 CURVE SMOOTH",
"198 326 OFFCURVE",
"231 367 OFFCURVE",
"292 367 CURVE SMOOTH",
"353 367 OFFCURVE",
"386 326 OFFCURVE",
"386 258 CURVE SMOOTH",
"386 190 OFFCURVE",
"353 151 OFFCURVE",
"292 151 CURVE SMOOTH"
);
},
{
closed = 1;
nodes = (
"771 -5 OFFCURVE",
"857 73 OFFCURVE",
"882 185 CURVE",
"727 185 LINE",
"713 164 OFFCURVE",
"686 140 OFFCURVE",
"640 140 CURVE SMOOTH",
"578 140 OFFCURVE",
"548 194 OFFCURVE",
"548 258 CURVE SMOOTH",
"548 323 OFFCURVE",
"584 364 OFFCURVE",
"640 364 CURVE SMOOTH",
"680 364 OFFCURVE",
"712 343 OFFCURVE",
"722 311 CURVE",
"507 311 LINE",
"507 212 LINE",
"890 212 LINE",
"890 250 LINE SMOOTH",
"890 414 OFFCURVE",
"788 523 OFFCURVE",
"635 523 CURVE SMOOTH",
"486 523 OFFCURVE",
"386 417 OFFCURVE",
"386 258 CURVE SMOOTH",
"386 109 OFFCURVE",
"478 -5 OFFCURVE",
"638 -5 CURVE SMOOTH"
);
}
);
width = 930;
}
);
leftMetricsKey = o;
rightMetricsKey = e;
unicode = 0153;
},
{
glyphname = thorn;
lastChange = "2021-10-22 14:07:27 +0000";
layers = (
{
components = (
{
name = p;
}
);
layerId = "0A901A10-6B10-40AA-AC10-6ECA400C9626";
paths = (
{
closed = 1;
nodes = (
"76 410 LINE",
"76 683 LINE",
"50 683 LINE",
"50 410 LINE"
);
}
);
width = 518;
},
{
components = (
{
name = p;
}
);
layerId = "88F21F75-214F-41EE-AE9C-B4AA79D6697C";
paths = (
{
closed = 1;
nodes = (
"213 412 LINE",
"213 683 LINE",
"60 683 LINE",
"60 412 LINE"
);
}
);
width = 637;
}
);
leftMetricsKey = p;
rightMetricsKey = p;
unicode = 00FE;
},
{
glyphname = r;
lastChange = "2022-05-27 01:49:38 +0000";
layers = (
{
layerId = "0A901A10-6B10-40AA-AC10-6ECA400C9626";
paths = (
{
closed = 1;
nodes = (
"78 0 LINE",
"78 257 LINE SMOOTH",
"78 408 OFFCURVE",
"152 495 OFFCURVE",
"260 495 CURVE",
"260 523 LINE",
"172 523 OFFCURVE",
"106 474 OFFCURVE",
"80 389 CURVE",
"76 389 LINE",
"76 518 LINE",
"50 518 LINE",
"50 0 LINE"
);
}
);
width = 270;
},
{
layerId = "88F21F75-214F-41EE-AE9C-B4AA79D6697C";
paths = (
{
closed = 1;
nodes = (
"220 0 LINE",
"220 227 LINE SMOOTH",
"220 310 OFFCURVE",
"251 363 OFFCURVE",
"383 363 CURVE",
"383 523 LINE",
"300 523 OFFCURVE",
"246 485 OFFCURVE",
"217 437 CURVE",
"213 437 LINE",
"213 518 LINE",
"60 518 LINE",
"60 0 LINE"
);
}
);
width = 423;
}
);
leftMetricsKey = n;
note = r;
unicode = 0072;
},
{
glyphname = s;
lastChange = "2022-05-27 01:49:37 +0000";
layers = (
{
layerId = "0A901A10-6B10-40AA-AC10-6ECA400C9626";
paths = (
{
closed = 1;
nodes = (
"323 -6 OFFCURVE",
"396 51 OFFCURVE",
"396 129 CURVE SMOOTH",
"396 213 OFFCURVE",
"349 256 OFFCURVE",
"217 287 CURVE SMOOTH",
"105 313 OFFCURVE",
"67 345 OFFCURVE",
"67 399 CURVE SMOOTH",
"67 458 OFFCURVE",
"121 494 OFFCURVE",
"200 494 CURVE SMOOTH",
"294 494 OFFCURVE",
"344 452 OFFCURVE",
"354 357 CURVE",
"382 357 LINE",
"373 462 OFFCURVE",
"307 522 OFFCURVE",
"206 522 CURVE SMOOTH",
"106 522 OFFCURVE",
"39 475 OFFCURVE",
"39 399 CURVE SMOOTH",
"39 333 OFFCURVE",
"86 290 OFFCURVE",
"209 261 CURVE SMOOTH",
"330 232 OFFCURVE",
"368 198 OFFCURVE",
"368 129 CURVE SMOOTH",
"368 65 OFFCURVE",
"308 22 OFFCURVE",
"220 22 CURVE SMOOTH",
"111 22 OFFCURVE",
"61 81 OFFCURVE",
"48 163 CURVE",
"20 163 LINE",
"36 59 OFFCURVE",
"101 -6 OFFCURVE",
"214 -6 CURVE SMOOTH"
);
}
);
width = 415;
},
{
layerId = "88F21F75-214F-41EE-AE9C-B4AA79D6697C";
paths = (
{
closed = 1;
nodes = (
"374 -5 OFFCURVE",
"469 52 OFFCURVE",
"469 154 CURVE SMOOTH",
"469 225 OFFCURVE",
"427 273 OFFCURVE",
"315 298 CURVE SMOOTH",
"227 318 OFFCURVE",
"207 329 OFFCURVE",
"207 350 CURVE SMOOTH",
"207 371 OFFCURVE",
"228 380 OFFCURVE",
"253 380 CURVE SMOOTH",
"283 380 OFFCURVE",
"302 364 OFFCURVE",
"302 341 CURVE",
"462 341 LINE",
"462 447 OFFCURVE",
"372 523 OFFCURVE",
"240 523 CURVE SMOOTH",
"131 523 OFFCURVE",
"40 471 OFFCURVE",
"40 369 CURVE SMOOTH",
"40 296 OFFCURVE",
"87 246 OFFCURVE",
"207 215 CURVE SMOOTH",
"293 193 OFFCURVE",
"306 186 OFFCURVE",
"306 169 CURVE SMOOTH",
"306 153 OFFCURVE",
"288 144 OFFCURVE",
"259 144 CURVE SMOOTH",
"217 144 OFFCURVE",
"192 162 OFFCURVE",
"180 192 CURVE",
"20 192 LINE",
"30 80 OFFCURVE",
"117 -5 OFFCURVE",
"258 -5 CURVE SMOOTH"
);
}
);
width = 488;
},
{
associatedMasterId = "88F21F75-214F-41EE-AE9C-B4AA79D6697C";
layerId = "F9EB1860-1828-4B4C-BEC4-4FF858DEA812";
name = "22 Jun 21, 15:28";
paths = (
{
closed = 1;
nodes = (
"362 -5 OFFCURVE",
"469 55 OFFCURVE",
"469 175 CURVE SMOOTH",
"469 326 OFFCURVE",
"202 293 OFFCURVE",
"202 350 CURVE SMOOTH",
"202 366 OFFCURVE",
"228 377 OFFCURVE",
"247 377 CURVE SMOOTH",
"275 377 OFFCURVE",
"297 367 OFFCURVE",
"297 341 CURVE",
"457 341 LINE",
"457 461 OFFCURVE",
"348 523 OFFCURVE",
"239 523 CURVE SMOOTH",
"138 523 OFFCURVE",
"35 470 OFFCURVE",
"35 354 CURVE SMOOTH",
"35 202 OFFCURVE",
"306 230 OFFCURVE",
"306 171 CURVE SMOOTH",
"306 152 OFFCURVE",
"275 144 OFFCURVE",
"251 144 CURVE SMOOTH",
"222 144 OFFCURVE",
"180 162 OFFCURVE",
"180 192 CURVE",
"20 192 LINE",
"19 147 OFFCURVE",
"35 103 OFFCURVE",
"66 69 CURVE SMOOTH",
"109 22 OFFCURVE",
"177 -5 OFFCURVE",
"251 -5 CURVE SMOOTH"
);
}
);
width = 488;
}
);
note = s;
unicode = 0073;
},
{
glyphname = germandbls;
lastChange = "2021-10-10 22:22:26 +0000";
layers = (
{
layerId = "0A901A10-6B10-40AA-AC10-6ECA400C9626";
paths = (
{
closed = 1;
nodes = (
"78 0 LINE",
"78 570 LINE SMOOTH",
"78 615 OFFCURVE",
"115 652 OFFCURVE",
"160 652 CURVE SMOOTH",
"264 652 LINE SMOOTH",
"373 652 OFFCURVE",
"422 587 OFFCURVE",
"422 519 CURVE SMOOTH",
"422 450 OFFCURVE",
"369 378 OFFCURVE",
"268 378 CURVE SMOOTH",
"157 378 LINE",
"157 350 LINE",
"268 350 LINE SMOOTH",
"397 350 OFFCURVE",
"454 269 OFFCURVE",
"454 191 CURVE SMOOTH",
"454 110 OFFCURVE",
"389 28 OFFCURVE",
"264 28 CURVE SMOOTH",
"157 28 LINE",
"157 0 LINE",
"264 0 LINE SMOOTH",
"407 0 OFFCURVE",
"482 96 OFFCURVE",
"482 193 CURVE SMOOTH",
"482 276 OFFCURVE",
"426 341 OFFCURVE",
"348 366 CURVE",
"410 392 OFFCURVE",
"450 451 OFFCURVE",
"450 521 CURVE SMOOTH",
"450 625 OFFCURVE",
"362 680 OFFCURVE",
"264 680 CURVE SMOOTH",
"160 680 LINE SMOOTH",
"99 680 OFFCURVE",
"50 631 OFFCURVE",
"50 570 CURVE SMOOTH",
"50 0 LINE"
);
}
);
width = 511;
},
{
layerId = "88F21F75-214F-41EE-AE9C-B4AA79D6697C";
paths = (
{
closed = 1;
nodes = (
"210 0 LINE",
"210 507 LINE SMOOTH",
"210 524 OFFCURVE",
"218 540 OFFCURVE",
"246 540 CURVE SMOOTH",
"330 540 LINE SMOOTH",
"388 540 OFFCURVE",
"414 524 OFFCURVE",
"414 480 CURVE SMOOTH",
"414 428 OFFCURVE",
"379 416 OFFCURVE",
"320 416 CURVE SMOOTH",
"251 416 LINE",
"251 284 LINE",
"340 284 LINE SMOOTH",
"392 284 OFFCURVE",
"424 260 OFFCURVE",
"424 214 CURVE SMOOTH",
"424 164 OFFCURVE",
"398 140 OFFCURVE",
"330 140 CURVE SMOOTH",
"251 140 LINE",
"251 0 LINE",
"331 0 LINE SMOOTH",
"503 0 OFFCURVE",
"599 75 OFFCURVE",
"599 206 CURVE SMOOTH",
"599 276 OFFCURVE",
"572 324 OFFCURVE",
"498 358 CURVE",
"548 385 OFFCURVE",
"574 445 OFFCURVE",
"574 501 CURVE SMOOTH",
"574 609 OFFCURVE",
"477 680 OFFCURVE",
"331 680 CURVE SMOOTH",
"228 680 LINE SMOOTH",
"130 680 OFFCURVE",
"50 633 OFFCURVE",
"50 502 CURVE SMOOTH",
"50 0 LINE"
);
}
);
width = 628;
}
);
leftMetricsKey = N;
rightMetricsKey = B;
unicode = 00DF;
},
{
glyphname = t;
lastChange = "2022-05-27 01:49:38 +0000";
layers = (
{
layerId = "0A901A10-6B10-40AA-AC10-6ECA400C9626";
paths = (
{
closed = 1;
nodes = (
"235 0 LINE",
"235 28 LINE",
"211 28 LINE SMOOTH",
"165 28 OFFCURVE",
"127 54 OFFCURVE",
"127 112 CURVE SMOOTH",
"127 492 LINE",
"230 492 LINE",
"230 518 LINE",
"127 518 LINE",
"127 643 LINE",
"99 643 LINE",
"99 518 LINE",
"20 518 LINE",
"20 492 LINE",
"99 492 LINE",
"99 112 LINE SMOOTH",
"99 32 OFFCURVE",
"149 0 OFFCURVE",
"211 0 CURVE SMOOTH"
);
}
);
width = 265;
},
{
layerId = "88F21F75-214F-41EE-AE9C-B4AA79D6697C";
paths = (
{
closed = 1;
nodes = (
"320 0 LINE",
"320 160 LINE",
"266 160 LINE SMOOTH",
"238 160 OFFCURVE",
"230 176 OFFCURVE",
"230 193 CURVE SMOOTH",
"230 373 LINE",
"320 373 LINE",
"320 518 LINE",
"230 518 LINE",
"230 652 LINE",
"70 652 LINE",
"70 518 LINE",
"20 518 LINE",
"20 373 LINE",
"70 373 LINE",
"70 178 LINE SMOOTH",
"70 47 OFFCURVE",
"150 0 OFFCURVE",
"248 0 CURVE SMOOTH"
);
}
);
width = 370;
}
);
note = t;
unicode = 0074;
},
{
glyphname = u;
lastChange = "2022-05-27 01:49:37 +0000";
layers = (
{
anchors = (
{
name = bottom;
position = "{237, 0}";
},
{
name = ogonek;
position = "{427, 10}";
},
{
name = top;
position = "{237, 518}";
},
{
name = topright;
position = "{454, 518}";
}
);
layerId = "0A901A10-6B10-40AA-AC10-6ECA400C9626";
leftMetricsKey = "=|n";
rightMetricsKey = "=|n";
paths = (
{
closed = 1;
nodes = (
"303 -5 OFFCURVE",
"368 44 OFFCURVE",
"394 129 CURVE",
"398 129 LINE",
"398 0 LINE",
"424 0 LINE",
"424 518 LINE",
"396 518 LINE",
"396 251 LINE SMOOTH",
"396 110 OFFCURVE",
"322 23 OFFCURVE",
"214 23 CURVE SMOOTH",
"121 23 OFFCURVE",
"68 81 OFFCURVE",
"68 202 CURVE SMOOTH",
"68 518 LINE",
"40 518 LINE",
"40 200 LINE SMOOTH",
"40 63 OFFCURVE",
"102 -5 OFFCURVE",
"212 -5 CURVE SMOOTH"
);
}
);
width = 474;
},
{
anchors = (
{
name = bottom;
position = "{306, 0}";
},
{
name = ogonek;
position = "{551, 10}";
},
{
name = top;
position = "{306, 518}";
},
{
name = topright;
position = "{592, 518}";
}
);
layerId = "88F21F75-214F-41EE-AE9C-B4AA79D6697C";
leftMetricsKey = "=|n";
rightMetricsKey = "=|n";
paths = (
{
closed = 1;
nodes = (
"315 -5 OFFCURVE",
"366 33 OFFCURVE",
"395 81 CURVE",
"399 81 LINE",
"399 0 LINE",
"552 0 LINE",
"552 518 LINE",
"392 518 LINE",
"392 279 LINE SMOOTH",
"392 198 OFFCURVE",
"361 155 OFFCURVE",
"291 155 CURVE SMOOTH",
"226 155 OFFCURVE",
"200 191 OFFCURVE",
"200 272 CURVE SMOOTH",
"200 518 LINE",
"40 518 LINE",
"40 203 LINE SMOOTH",
"40 80 OFFCURVE",
"103 -5 OFFCURVE",
"232 -5 CURVE SMOOTH"
);
}
);
width = 612;
}
);
note = u;
unicode = 0075;
},
{
glyphname = v;
lastChange = "2022-05-27 01:49:38 +0000";
layers = (
{
layerId = "0A901A10-6B10-40AA-AC10-6ECA400C9626";
paths = (
{
closed = 1;
nodes = (
"234 0 LINE",
"432 518 LINE",
"402 518 LINE",
"223 50 LINE",
"45 518 LINE",
"15 518 LINE",
"212 0 LINE"
);
}
);
width = 446;
},
{
layerId = "88F21F75-214F-41EE-AE9C-B4AA79D6697C";
paths = (
{
closed = 1;
nodes = (
"366 0 LINE",
"563 518 LINE",
"392 518 LINE",
"284 235 LINE",
"176 518 LINE",
"5 518 LINE",
"202 0 LINE"
);
}
);
width = 568;
}
);
note = v;
unicode = 0076;
},
{
glyphname = w;
lastChange = "2022-05-27 01:49:38 +0000";
layers = (
{
layerId = "0A901A10-6B10-40AA-AC10-6ECA400C9626";
paths = (
{
closed = 1;
nodes = (
"200 0 LINE",
"352 473 LINE",
"504 0 LINE",
"527 0 LINE",
"694 518 LINE",
"664 518 LINE",
"515 56 LINE",
"367 518 LINE",
"337 518 LINE",
"188 56 LINE",
"39 518 LINE",
"10 518 LINE",
"177 0 LINE"
);
}
);
width = 703;
},
{
layerId = "88F21F75-214F-41EE-AE9C-B4AA79D6697C";
paths = (
{
closed = 1;
nodes = (
"338 0 LINE",
"421 257 LINE",
"504 0 LINE",
"665 0 LINE",
"832 518 LINE",
"664 518 LINE",
"585 271 LINE",
"505 518 LINE",
"337 518 LINE",
"257 271 LINE",
"178 518 LINE",
"10 518 LINE",
"177 0 LINE"
);
}
);
width = 841;
}
);
note = w;
unicode = 0077;
},
{
glyphname = x;
lastChange = "2022-05-27 01:49:38 +0000";
layers = (
{
layerId = "0A901A10-6B10-40AA-AC10-6ECA400C9626";
paths = (
{
closed = 1;
nodes = (
"55 0 LINE",
"240 246 LINE",
"426 0 LINE",
"461 0 LINE",
"258 269 LINE",
"445 518 LINE",
"410 518 LINE",
"240 292 LINE",
"70 518 LINE",
"35 518 LINE",
"223 269 LINE",
"20 0 LINE"
);
}
);
width = 481;
},
{
layerId = "88F21F75-214F-41EE-AE9C-B4AA79D6697C";
paths = (
{
closed = 1;
nodes = (
"220 0 LINE",
"323 136 LINE",
"426 0 LINE",
"626 0 LINE",
"423 269 LINE",
"611 518 LINE",
"410 518 LINE",
"323 402 LINE",
"236 518 LINE",
"35 518 LINE",
"223 269 LINE",
"20 0 LINE"
);
}
);
width = 646;
}
);
note = x;
unicode = 0078;
},
{
glyphname = y;
lastChange = "2022-05-27 01:49:38 +0000";
layers = (
{
anchors = (
{
name = bottom;
position = "{222, 0}";
},
{
name = top;
position = "{222, 518}";
}
);
layerId = "0A901A10-6B10-40AA-AC10-6ECA400C9626";
paths = (
{
closed = 1;
nodes = (
"101 -165 LINE SMOOTH",
"145 -165 OFFCURVE",
"185 -137 OFFCURVE",
"200 -97 CURVE SMOOTH",
"434 518 LINE",
"404 518 LINE",
"225 46 LINE",
"45 518 LINE",
"15 518 LINE",
"210 7 LINE",
"174 -87 LINE SMOOTH",
"162 -117 OFFCURVE",
"133 -137 OFFCURVE",
"101 -137 CURVE SMOOTH",
"55 -137 LINE",
"55 -165 LINE"
);
}
);
width = 448;
},
{
anchors = (
{
name = bottom;
position = "{280, 0}";
},
{
name = top;
position = "{280, 518}";
}
);
layerId = "88F21F75-214F-41EE-AE9C-B4AA79D6697C";
paths = (
{
closed = 1;
nodes = (
"142 -218 LINE SMOOTH",
"232 -218 OFFCURVE",
"283 -185 OFFCURVE",
"312 -111 CURVE SMOOTH",
"555 518 LINE",
"384 518 LINE",
"280 245 LINE",
"176 518 LINE",
"5 518 LINE",
"188 36 LINE",
"196 12 LINE SMOOTH",
"207 -20 OFFCURVE",
"175 -58 OFFCURVE",
"139 -58 CURVE SMOOTH",
"90 -58 LINE",
"90 -218 LINE"
);
}
);
width = 560;
}
);
leftMetricsKey = v;
note = y;
rightMetricsKey = v;
unicode = 0079;
},
{
glyphname = z;
lastChange = "2022-05-27 01:49:38 +0000";
layers = (
{
layerId = "0A901A10-6B10-40AA-AC10-6ECA400C9626";
paths = (
{
closed = 1;
nodes = (
"424 0 LINE",
"424 28 LINE",
"55 28 LINE",
"408 490 LINE",
"408 518 LINE",
"41 518 LINE",
"41 490 LINE",
"373 490 LINE",
"20 28 LINE",
"20 0 LINE"
);
}
);
width = 443;
},
{
layerId = "88F21F75-214F-41EE-AE9C-B4AA79D6697C";
paths = (
{
closed = 1;
nodes = (
"368 0 LINE",
"368 160 LINE",
"201 160 LINE",
"368 341 LINE",
"368 518 LINE",
"31 518 LINE",
"31 358 LINE",
"166 358 LINE",
"20 199 LINE",
"20 0 LINE"
);
}
);
width = 387;
}
);
note = z;
unicode = 007A;
},
{
glyphname = ordfeminine;
lastChange = "2022-05-27 01:49:38 +0000";
layers = (
{
layerId = "0A901A10-6B10-40AA-AC10-6ECA400C9626";
paths = (
{
closed = 1;
nodes = (
"179 418 OFFCURVE",
"213 442 OFFCURVE",
"229 485 CURVE",
"231 485 LINE",
"231 421 LINE",
"259 421 LINE",
"259 680 LINE",
"231 680 LINE",
"231 614 LINE",
"229 614 LINE",
"212 657 OFFCURVE",
"179 682 OFFCURVE",
"135 682 CURVE SMOOTH",
"68 682 OFFCURVE",
"20 627 OFFCURVE",
"20 550 CURVE SMOOTH",
"20 473 OFFCURVE",
"68 418 OFFCURVE",
"135 418 CURVE SMOOTH"
);
},
{
closed = 1;
nodes = (
"82 446 OFFCURVE",
"48 485 OFFCURVE",
"48 549 CURVE SMOOTH",
"48 614 OFFCURVE",
"83 654 OFFCURVE",
"139 654 CURVE SMOOTH",
"193 654 OFFCURVE",
"225 616 OFFCURVE",
"225 550 CURVE SMOOTH",
"225 484 OFFCURVE",
"193 446 OFFCURVE",
"138 446 CURVE SMOOTH"
);
}
);
width = 309;
},
{
layerId = "88F21F75-214F-41EE-AE9C-B4AA79D6697C";
paths = (
{
closed = 1;
nodes = (
"194 418 OFFCURVE",
"219 438 OFFCURVE",
"230 461 CURVE",
"232 461 LINE",
"232 421 LINE",
"332 421 LINE",
"332 680 LINE",
"232 680 LINE",
"232 640 LINE",
"230 640 LINE",
"219 663 OFFCURVE",
"189 683 OFFCURVE",
"152 683 CURVE SMOOTH",
"88 683 OFFCURVE",
"40 629 OFFCURVE",
"40 550 CURVE SMOOTH",
"40 472 OFFCURVE",
"88 418 OFFCURVE",
"152 418 CURVE SMOOTH"
);
},
{
closed = 1;
nodes = (
"159 502 OFFCURVE",
"143 519 OFFCURVE",
"143 550 CURVE SMOOTH",
"143 581 OFFCURVE",
"159 600 OFFCURVE",
"186 600 CURVE SMOOTH",
"214 600 OFFCURVE",
"229 581 OFFCURVE",
"229 550 CURVE SMOOTH",
"229 519 OFFCURVE",
"214 502 OFFCURVE",
"186 502 CURVE SMOOTH"
);
}
);
width = 392;
}
);
leftMetricsKey = o;
rightMetricsKey = a;
unicode = 00AA;
},
{
glyphname = ordmasculine;
lastChange = "2022-05-27 01:49:38 +0000";
layers = (
{
layerId = "0A901A10-6B10-40AA-AC10-6ECA400C9626";
paths = (
{
closed = 1;
nodes = (
"201 426 OFFCURVE",
"244 477 OFFCURVE",
"244 558 CURVE SMOOTH",
"244 638 OFFCURVE",
"200 690 OFFCURVE",
"132 690 CURVE SMOOTH",
"63 690 OFFCURVE",
"20 639 OFFCURVE",
"20 558 CURVE SMOOTH",
"20 477 OFFCURVE",
"63 426 OFFCURVE",
"132 426 CURVE SMOOTH"
);
},
{
closed = 1;
nodes = (
"80 454 OFFCURVE",
"48 491 OFFCURVE",
"48 558 CURVE SMOOTH",
"48 623 OFFCURVE",
"82 662 OFFCURVE",
"132 662 CURVE SMOOTH",
"183 662 OFFCURVE",
"216 625 OFFCURVE",
"216 558 CURVE SMOOTH",
"216 491 OFFCURVE",
"182 454 OFFCURVE",
"132 454 CURVE SMOOTH"
);
}
);
width = 264;
},
{
layerId = "88F21F75-214F-41EE-AE9C-B4AA79D6697C";
paths = (
{
closed = 1;
nodes = (
"246 426 OFFCURVE",
"292 483 OFFCURVE",
"292 558 CURVE SMOOTH",
"292 632 OFFCURVE",
"246 690 OFFCURVE",
"166 690 CURVE SMOOTH",
"86 690 OFFCURVE",
"40 632 OFFCURVE",
"40 558 CURVE SMOOTH",
"40 483 OFFCURVE",
"86 426 OFFCURVE",
"166 426 CURVE SMOOTH"
);
},
{
closed = 1;
nodes = (
"139 509 OFFCURVE",
"123 527 OFFCURVE",
"123 558 CURVE SMOOTH",
"123 589 OFFCURVE",
"139 607 OFFCURVE",
"166 607 CURVE SMOOTH",
"194 607 OFFCURVE",
"209 589 OFFCURVE",
"209 558 CURVE SMOOTH",
"209 527 OFFCURVE",
"194 509 OFFCURVE",
"166 509 CURVE SMOOTH"
);
}
);
width = 332;
}
);
leftMetricsKey = o;
rightMetricsKey = o;
unicode = 00BA;
},
{
glyphname = uni05D0;
lastChange = "2022-05-27 01:49:38 +0000";
layers = (
{
layerId = "0A901A10-6B10-40AA-AC10-6ECA400C9626";
paths = (
{
closed = 1;
nodes = (
"63 0 LINE",
"63 122 OFFCURVE",
"95 271 OFFCURVE",
"171 371 CURVE",
"489 0 LINE",
"526 0 LINE",
"395 153 LINE",
"476 262 OFFCURVE",
"489 387 OFFCURVE",
"489 519 CURVE",
"461 519 LINE",
"461 397 OFFCURVE",
"451 280 OFFCURVE",
"376 175 CURVE",
"81 519 LINE",
"44 519 LINE",
"152 392 LINE",
"73 292 OFFCURVE",
"35 128 OFFCURVE",
"35 0 CURVE"
);
}
);
width = 560;
},
{
layerId = "88F21F75-214F-41EE-AE9C-B4AA79D6697C";
paths = (
{
closed = 1;
nodes = (
"195 0 LINE",
"195 121 OFFCURVE",
"215 204 OFFCURVE",
"235 253 CURVE",
"420 0 LINE",
"618 0 LINE",
"509 150 LINE",
"581 266 OFFCURVE",
"582 377 OFFCURVE",
"582 519 CURVE",
"422 519 LINE",
"422 413 OFFCURVE",
"421 353 OFFCURVE",
"402 296 CURVE",
"239 519 LINE",
"41 519 LINE",
"130 398 LINE",
"54 280 OFFCURVE",
"35 137 OFFCURVE",
"35 0 CURVE"
);
}
);
width = 652;
}
);
note = uni05D0;
unicode = 05D0;
},
{
glyphname = uni05D1;
lastChange = "2022-05-27 01:49:37 +0000";
layers = (
{
layerId = "0A901A10-6B10-40AA-AC10-6ECA400C9626";
paths = (
{
closed = 1;
nodes = (
"446 0 LINE",
"446 28 LINE",
"381 28 LINE",
"381 316 LINE SMOOTH",
"381 428 OFFCURVE",
"291 518 OFFCURVE",
"179 518 CURVE SMOOTH",
"20 518 LINE",
"20 490 LINE",
"179 490 LINE SMOOTH",
"275 490 OFFCURVE",
"353 412 OFFCURVE",
"353 316 CURVE SMOOTH",
"353 28 LINE",
"20 28 LINE",
"20 0 LINE"
);
}
);
width = 465;
},
{
layerId = "88F21F75-214F-41EE-AE9C-B4AA79D6697C";
paths = (
{
closed = 1;
nodes = (
"475 0 LINE",
"475 160 LINE",
"427 160 LINE",
"427 278 LINE SMOOTH",
"427 410 OFFCURVE",
"320 518 OFFCURVE",
"187 518 CURVE SMOOTH",
"20 518 LINE",
"20 358 LINE",
"187 358 LINE SMOOTH",
"231 358 OFFCURVE",
"267 322 OFFCURVE",
"267 278 CURVE SMOOTH",
"267 160 LINE",
"20 160 LINE",
"20 0 LINE"
);
}
);
width = 494;
}
);
note = uni05D1;
unicode = 05D1;
},
{
glyphname = uni05D2;
lastChange = "2022-05-27 01:49:38 +0000";
layers = (
{
layerId = "0A901A10-6B10-40AA-AC10-6ECA400C9626";
paths = (
{
closed = 1;
nodes = (
"119 0 OFFCURVE",
"221 65 OFFCURVE",
"258 158 CURVE",
"291 0 LINE",
"319 0 LINE",
"211 519 LINE",
"69 519 LINE",
"69 491 LINE",
"188 491 LINE",
"243 227 LINE",
"243 115 OFFCURVE",
"123 28 OFFCURVE",
"20 28 CURVE",
"20 0 LINE"
);
}
);
width = 338;
},
{
layerId = "88F21F75-214F-41EE-AE9C-B4AA79D6697C";
paths = (
{
closed = 1;
nodes = (
"81 0 OFFCURVE",
"142 21 OFFCURVE",
"193 58 CURVE",
"205 0 LINE",
"369 0 LINE",
"260 518 LINE",
"65 518 LINE",
"65 358 LINE",
"130 358 LINE",
"149 271 LINE",
"149 204 OFFCURVE",
"75 160 OFFCURVE",
"20 160 CURVE",
"20 0 LINE"
);
}
);
width = 388;
}
);
note = uni05D2;
unicode = 05D2;
},
{
glyphname = uni05D3;
lastChange = "2022-05-27 01:49:37 +0000";
layers = (
{
layerId = "0A901A10-6B10-40AA-AC10-6ECA400C9626";
paths = (
{
closed = 1;
nodes = (
"367 0 LINE",
"367 490 LINE",
"435 490 LINE",
"435 518 LINE",
"30 518 LINE",
"30 490 LINE",
"339 490 LINE",
"339 0 LINE"
);
}
);
width = 465;
},
{
layerId = "88F21F75-214F-41EE-AE9C-B4AA79D6697C";
paths = (
{
closed = 1;
nodes = (
"372 0 LINE",
"372 358 LINE",
"429 358 LINE",
"429 518 LINE",
"10 518 LINE",
"10 358 LINE",
"212 358 LINE",
"212 0 LINE"
);
}
);
width = 448;
}
);
note = uni05D3;
unicode = 05D3;
},
{
glyphname = uni05D4;
lastChange = "2022-05-27 01:49:38 +0000";
layers = (
{
layerId = "0A901A10-6B10-40AA-AC10-6ECA400C9626";
paths = (
{
closed = 1;
nodes = (
"441 0 LINE",
"441 317 LINE SMOOTH",
"441 428 OFFCURVE",
"351 518 OFFCURVE",
"240 518 CURVE SMOOTH",
"40 518 LINE",
"40 490 LINE",
"240 490 LINE SMOOTH",
"335 490 OFFCURVE",
"413 412 OFFCURVE",
"413 317 CURVE SMOOTH",
"413 0 LINE"
);
},
{
closed = 1;
nodes = (
"72 0 LINE",
"72 297 LINE",
"44 297 LINE",
"44 0 LINE"
);
}
);
width = 480;
},
{
layerId = "88F21F75-214F-41EE-AE9C-B4AA79D6697C";
paths = (
{
closed = 1;
nodes = (
"497 0 LINE",
"497 278 LINE SMOOTH",
"497 410 OFFCURVE",
"390 518 OFFCURVE",
"257 518 CURVE SMOOTH",
"40 518 LINE",
"40 358 LINE",
"257 358 LINE SMOOTH",
"301 358 OFFCURVE",
"337 322 OFFCURVE",
"337 278 CURVE SMOOTH",
"337 0 LINE"
);
},
{
closed = 1;
nodes = (
"200 0 LINE",
"200 259 LINE",
"40 259 LINE",
"40 0 LINE"
);
}
);
width = 536;
}
);
note = uni05D4;
unicode = 05D4;
},
{
glyphname = uni05D5;
lastChange = "2022-05-27 01:49:38 +0000";
layers = (
{
layerId = "0A901A10-6B10-40AA-AC10-6ECA400C9626";
paths = (
{
closed = 1;
nodes = (
"88 0 LINE",
"88 518 LINE",
"60 518 LINE",
"60 0 LINE"
);
}
);
width = 148;
},
{
layerId = "88F21F75-214F-41EE-AE9C-B4AA79D6697C";
paths = (
{
closed = 1;
nodes = (
"220 0 LINE",
"220 518 LINE",
"60 518 LINE",
"60 0 LINE"
);
}
);
width = 280;
}
);
note = uni05D5;
unicode = 05D5;
},
{
glyphname = uni05D6;
lastChange = "2022-05-27 01:49:38 +0000";
layers = (
{
layerId = "0A901A10-6B10-40AA-AC10-6ECA400C9626";
paths = (
{
closed = 1;
nodes = (
"220 0 LINE",
"220 308 LINE SMOOTH",
"220 384 OFFCURVE",
"187 452 OFFCURVE",
"121 490 CURVE",
"287 490 LINE",
"287 518 LINE",
"10 518 LINE",
"10 490 LINE",
"119 490 OFFCURVE",
"192 417 OFFCURVE",
"192 308 CURVE SMOOTH",
"192 0 LINE"
);
}
);
width = 306;
},
{
layerId = "88F21F75-214F-41EE-AE9C-B4AA79D6697C";
paths = (
{
closed = 1;
nodes = (
"286 0 LINE",
"286 242 LINE SMOOTH",
"286 324 OFFCURVE",
"251 353 OFFCURVE",
"245 358 CURVE",
"335 358 LINE",
"335 518 LINE",
"10 518 LINE",
"10 358 LINE",
"66 358 OFFCURVE",
"126 328 OFFCURVE",
"126 242 CURVE SMOOTH",
"126 0 LINE"
);
}
);
width = 354;
}
);
note = uni05D6;
unicode = 05D6;
},
{
glyphname = uni05D7;
lastChange = "2022-05-27 01:49:38 +0000";
layers = (
{
layerId = "0A901A10-6B10-40AA-AC10-6ECA400C9626";
paths = (
{
closed = 1;
nodes = (
"78 0 LINE",
"78 490 LINE",
"260 490 LINE SMOOTH",
"355 490 OFFCURVE",
"433 412 OFFCURVE",
"433 317 CURVE SMOOTH",
"433 0 LINE",
"461 0 LINE",
"461 317 LINE SMOOTH",
"461 428 OFFCURVE",
"371 518 OFFCURVE",
"260 518 CURVE SMOOTH",
"50 518 LINE",
"50 0 LINE"
);
}
);
width = 500;
},
{
layerId = "88F21F75-214F-41EE-AE9C-B4AA79D6697C";
paths = (
{
closed = 1;
nodes = (
"210 0 LINE",
"210 358 LINE",
"293 358 LINE SMOOTH",
"337 358 OFFCURVE",
"373 322 OFFCURVE",
"373 278 CURVE SMOOTH",
"373 0 LINE",
"533 0 LINE",
"533 278 LINE SMOOTH",
"533 410 OFFCURVE",
"425 518 OFFCURVE",
"293 518 CURVE SMOOTH",
"50 518 LINE",
"50 0 LINE"
);
}
);
width = 572;
}
);
note = uni05D7;
unicode = 05D7;
},
{
glyphname = uni05D8;
lastChange = "2022-05-27 01:49:37 +0000";
layers = (
{
layerId = "0A901A10-6B10-40AA-AC10-6ECA400C9626";
paths = (
{
closed = 1;
nodes = (
"412 -5 OFFCURVE",
"500 124 OFFCURVE",
"500 262 CURVE SMOOTH",
"500 396 OFFCURVE",
"416 513 OFFCURVE",
"270 513 CURVE",
"270 485 LINE",
"419 485 OFFCURVE",
"472 360 OFFCURVE",
"472 257 CURVE SMOOTH",
"472 124 OFFCURVE",
"383 23 OFFCURVE",
"270 23 CURVE SMOOTH",
"157 23 OFFCURVE",
"68 124 OFFCURVE",
"68 254 CURVE SMOOTH",
"68 513 LINE",
"40 513 LINE",
"40 254 LINE SMOOTH",
"40 121 OFFCURVE",
"130 -5 OFFCURVE",
"271 -5 CURVE SMOOTH"
);
}
);
width = 530;
},
{
layerId = "88F21F75-214F-41EE-AE9C-B4AA79D6697C";
paths = (
{
closed = 1;
nodes = (
"443 -5 OFFCURVE",
"558 115 OFFCURVE",
"558 258 CURVE SMOOTH",
"558 400 OFFCURVE",
"444 513 OFFCURVE",
"300 513 CURVE",
"300 353 LINE",
"368 353 OFFCURVE",
"398 298 OFFCURVE",
"398 254 CURVE SMOOTH",
"398 201 OFFCURVE",
"354 155 OFFCURVE",
"303 155 CURVE SMOOTH",
"248 155 OFFCURVE",
"200 208 OFFCURVE",
"200 266 CURVE SMOOTH",
"200 513 LINE",
"40 513 LINE",
"40 266 LINE SMOOTH",
"40 119 OFFCURVE",
"159 -5 OFFCURVE",
"302 -5 CURVE SMOOTH"
);
}
);
width = 588;
}
);
note = uni05D8;
unicode = 05D8;
},
{
glyphname = uni05D9;
lastChange = "2022-05-27 01:49:38 +0000";
layers = (
{
layerId = "0A901A10-6B10-40AA-AC10-6ECA400C9626";
paths = (
{
closed = 1;
nodes = (
"68 237 LINE",
"68 507 LINE",
"40 507 LINE",
"40 237 LINE"
);
}
);
width = 108;
},
{
layerId = "88F21F75-214F-41EE-AE9C-B4AA79D6697C";
paths = (
{
closed = 1;
nodes = (
"200 271 LINE",
"200 518 LINE",
"40 518 LINE",
"40 271 LINE"
);
}
);
width = 240;
}
);
note = uni05D9;
unicode = 05D9;
},
{
glyphname = uni05DA;
lastChange = "2022-05-27 01:49:38 +0000";
layers = (
{
layerId = "0A901A10-6B10-40AA-AC10-6ECA400C9626";
paths = (
{
closed = 1;
nodes = (
"361 -130 LINE",
"361 305 LINE SMOOTH",
"361 422 OFFCURVE",
"265 518 OFFCURVE",
"148 518 CURVE SMOOTH",
"10 518 LINE",
"10 490 LINE",
"148 490 LINE SMOOTH",
"250 490 OFFCURVE",
"333 407 OFFCURVE",
"333 305 CURVE SMOOTH",
"333 -130 LINE"
);
}
);
width = 381;
},
{
layerId = "88F21F75-214F-41EE-AE9C-B4AA79D6697C";
paths = (
{
closed = 1;
nodes = (
"413 -165 LINE",
"413 278 LINE SMOOTH",
"413 430 OFFCURVE",
"325 518 OFFCURVE",
"173 518 CURVE SMOOTH",
"10 518 LINE",
"10 358 LINE",
"173 358 LINE SMOOTH",
"217 358 OFFCURVE",
"253 322 OFFCURVE",
"253 278 CURVE SMOOTH",
"253 -165 LINE"
);
}
);
width = 433;
}
);
note = uni05DA;
unicode = 05DA;
},
{
glyphname = uni05DB;
lastChange = "2022-05-27 01:49:37 +0000";
layers = (
{
layerId = "0A901A10-6B10-40AA-AC10-6ECA400C9626";
paths = (
{
closed = 1;
nodes = (
"185 0 LINE SMOOTH",
"322 0 OFFCURVE",
"408 130 OFFCURVE",
"408 258 CURVE SMOOTH",
"408 386 OFFCURVE",
"321 518 OFFCURVE",
"185 518 CURVE SMOOTH",
"20 518 LINE",
"20 490 LINE",
"185 490 LINE SMOOTH",
"293 490 OFFCURVE",
"380 386 OFFCURVE",
"380 258 CURVE SMOOTH",
"380 131 OFFCURVE",
"293 28 OFFCURVE",
"185 28 CURVE SMOOTH",
"20 28 LINE",
"20 0 LINE"
);
}
);
width = 437;
},
{
layerId = "88F21F75-214F-41EE-AE9C-B4AA79D6697C";
paths = (
{
closed = 1;
nodes = (
"189 0 LINE SMOOTH",
"330 0 OFFCURVE",
"433 121 OFFCURVE",
"433 258 CURVE SMOOTH",
"433 395 OFFCURVE",
"329 518 OFFCURVE",
"189 518 CURVE SMOOTH",
"20 518 LINE",
"20 358 LINE",
"189 358 LINE SMOOTH",
"235 358 OFFCURVE",
"273 313 OFFCURVE",
"273 258 CURVE SMOOTH",
"273 204 OFFCURVE",
"235 160 OFFCURVE",
"189 160 CURVE SMOOTH",
"20 160 LINE",
"20 0 LINE"
);
}
);
width = 462;
}
);
note = uni05DB;
unicode = 05DB;
},
{
glyphname = uni05DC;
lastChange = "2022-05-27 01:49:38 +0000";
layers = (
{
layerId = "0A901A10-6B10-40AA-AC10-6ECA400C9626";
paths = (
{
closed = 1;
nodes = (
"207 0 LINE",
"406 518 LINE",
"38 518 LINE",
"38 643 LINE",
"10 643 LINE",
"10 490 LINE",
"365 490 LINE",
"177 0 LINE"
);
}
);
width = 425;
},
{
layerId = "88F21F75-214F-41EE-AE9C-B4AA79D6697C";
paths = (
{
closed = 1;
nodes = (
"310 0 LINE",
"510 518 LINE",
"170 518 LINE",
"170 683 LINE",
"10 683 LINE",
"10 358 LINE",
"277 358 LINE",
"139 0 LINE"
);
}
);
width = 529;
}
);
note = uni05DC;
unicode = 05DC;
},
{
glyphname = uni05DD;
lastChange = "2022-05-27 01:49:38 +0000";
layers = (
{
layerId = "0A901A10-6B10-40AA-AC10-6ECA400C9626";
paths = (
{
closed = 1;
nodes = (
"462 0 LINE",
"462 322 LINE SMOOTH",
"462 430 OFFCURVE",
"371 518 OFFCURVE",
"260 518 CURVE SMOOTH",
"50 518 LINE",
"50 0 LINE"
);
},
{
closed = 1;
nodes = (
"78 490 LINE",
"260 490 LINE SMOOTH",
"356 490 OFFCURVE",
"434 415 OFFCURVE",
"434 322 CURVE SMOOTH",
"434 28 LINE",
"78 28 LINE"
);
}
);
width = 502;
},
{
layerId = "88F21F75-214F-41EE-AE9C-B4AA79D6697C";
paths = (
{
closed = 1;
nodes = (
"518 0 LINE",
"518 278 LINE SMOOTH",
"518 411 OFFCURVE",
"410 518 OFFCURVE",
"278 518 CURVE SMOOTH",
"50 518 LINE",
"50 0 LINE"
);
},
{
closed = 1;
nodes = (
"210 358 LINE",
"278 358 LINE SMOOTH",
"322 358 OFFCURVE",
"358 322 OFFCURVE",
"358 278 CURVE SMOOTH",
"358 160 LINE",
"210 160 LINE"
);
}
);
width = 558;
}
);
note = uni05DD;
unicode = 05DD;
},
{
glyphname = uni05DE;
lastChange = "2022-05-27 01:49:38 +0000";
layers = (
{
layerId = "0A901A10-6B10-40AA-AC10-6ECA400C9626";
paths = (
{
closed = 1;
nodes = (
"78 0 LINE",
"78 276 LINE SMOOTH",
"78 379 OFFCURVE",
"138 495 OFFCURVE",
"280 495 CURVE SMOOTH",
"429 495 OFFCURVE",
"481 366 OFFCURVE",
"481 263 CURVE SMOOTH",
"481 130 OFFCURVE",
"393 28 OFFCURVE",
"280 28 CURVE",
"280 0 LINE",
"422 0 OFFCURVE",
"509 131 OFFCURVE",
"509 265 CURVE SMOOTH",
"509 397 OFFCURVE",
"425 523 OFFCURVE",
"282 523 CURVE SMOOTH",
"192 523 OFFCURVE",
"116 473 OFFCURVE",
"78 393 CURVE",
"78 518 LINE",
"50 518 LINE",
"50 0 LINE"
);
}
);
width = 538;
},
{
layerId = "88F21F75-214F-41EE-AE9C-B4AA79D6697C";
paths = (
{
closed = 1;
nodes = (
"210 0 LINE",
"210 253 LINE SMOOTH",
"210 310 OFFCURVE",
"265 358 OFFCURVE",
"323 358 CURVE SMOOTH",
"385 358 OFFCURVE",
"416 303 OFFCURVE",
"416 259 CURVE SMOOTH",
"416 206 OFFCURVE",
"372 160 OFFCURVE",
"318 160 CURVE",
"318 0 LINE",
"459 0 OFFCURVE",
"576 119 OFFCURVE",
"576 261 CURVE SMOOTH",
"576 400 OFFCURVE",
"465 518 OFFCURVE",
"324 518 CURVE SMOOTH",
"285 518 OFFCURVE",
"242 508 OFFCURVE",
"210 488 CURVE",
"210 518 LINE",
"50 518 LINE",
"50 0 LINE"
);
}
);
width = 605;
}
);
note = uni05DE;
unicode = 05DE;
},
{
glyphname = uni05DF;
lastChange = "2022-05-27 01:49:38 +0000";
layers = (
{
layerId = "0A901A10-6B10-40AA-AC10-6ECA400C9626";
paths = (
{
closed = 1;
nodes = (
"78 -130 LINE",
"78 518 LINE",
"50 518 LINE",
"50 -130 LINE"
);
}
);
width = 128;
},
{
layerId = "88F21F75-214F-41EE-AE9C-B4AA79D6697C";
paths = (
{
closed = 1;
nodes = (
"210 -165 LINE",
"210 518 LINE",
"50 518 LINE",
"50 -165 LINE"
);
}
);
width = 260;
}
);
note = uni05DF;
unicode = 05DF;
},
{
glyphname = uni05E0;
lastChange = "2022-05-27 01:49:37 +0000";
layers = (
{
layerId = "0A901A10-6B10-40AA-AC10-6ECA400C9626";
paths = (
{
closed = 1;
nodes = (
"88 0 LINE SMOOTH",
"171 0 OFFCURVE",
"239 68 OFFCURVE",
"239 151 CURVE SMOOTH",
"239 518 LINE",
"97 518 LINE",
"97 490 LINE",
"211 490 LINE",
"211 151 LINE SMOOTH",
"211 83 OFFCURVE",
"156 28 OFFCURVE",
"88 28 CURVE SMOOTH",
"20 28 LINE",
"20 0 LINE"
);
}
);
width = 278;
},
{
layerId = "88F21F75-214F-41EE-AE9C-B4AA79D6697C";
paths = (
{
closed = 1;
nodes = (
"89 0 LINE SMOOTH",
"199 0 OFFCURVE",
"289 90 OFFCURVE",
"289 200 CURVE SMOOTH",
"289 518 LINE",
"65 518 LINE",
"65 358 LINE",
"129 358 LINE",
"129 200 LINE SMOOTH",
"129 178 OFFCURVE",
"111 160 OFFCURVE",
"89 160 CURVE SMOOTH",
"20 160 LINE",
"20 0 LINE"
);
}
);
width = 328;
}
);
note = uni05E0;
unicode = 05E0;
},
{
glyphname = uni05E1;
lastChange = "2022-05-27 01:49:37 +0000";
layers = (
{
layerId = "0A901A10-6B10-40AA-AC10-6ECA400C9626";
paths = (
{
closed = 1;
nodes = (
"416 -5 OFFCURVE",
"500 128 OFFCURVE",
"500 265 CURVE SMOOTH",
"500 401 OFFCURVE",
"418 518 OFFCURVE",
"270 518 CURVE SMOOTH",
"40 518 LINE",
"40 259 LINE SMOOTH",
"40 124 OFFCURVE",
"127 -5 OFFCURVE",
"271 -5 CURVE SMOOTH"
);
},
{
closed = 1;
nodes = (
"157 23 OFFCURVE",
"68 129 OFFCURVE",
"68 259 CURVE SMOOTH",
"68 490 LINE",
"270 490 LINE SMOOTH",
"419 490 OFFCURVE",
"472 366 OFFCURVE",
"472 263 CURVE SMOOTH",
"472 129 OFFCURVE",
"384 23 OFFCURVE",
"270 23 CURVE SMOOTH"
);
}
);
width = 530;
},
{
layerId = "88F21F75-214F-41EE-AE9C-B4AA79D6697C";
paths = (
{
closed = 1;
nodes = (
"439 0 OFFCURVE",
"550 122 OFFCURVE",
"550 263 CURVE SMOOTH",
"550 403 OFFCURVE",
"440 518 OFFCURVE",
"296 518 CURVE SMOOTH",
"40 518 LINE",
"40 271 LINE SMOOTH",
"40 124 OFFCURVE",
"157 0 OFFCURVE",
"299 0 CURVE SMOOTH"
);
},
{
closed = 1;
nodes = (
"241 160 OFFCURVE",
"200 213 OFFCURVE",
"200 271 CURVE SMOOTH",
"200 358 LINE",
"296 358 LINE SMOOTH",
"361 358 OFFCURVE",
"390 303 OFFCURVE",
"390 259 CURVE SMOOTH",
"390 206 OFFCURVE",
"348 160 OFFCURVE",
"296 160 CURVE SMOOTH"
);
}
);
width = 580;
}
);
note = uni05E1;
unicode = 05E1;
},
{
glyphname = uni05E2;
lastChange = "2022-05-27 01:49:38 +0000";
layers = (
{
layerId = "0A901A10-6B10-40AA-AC10-6ECA400C9626";
paths = (
{
closed = 1;
nodes = (
"266 -15 OFFCURVE",
"442 98 OFFCURVE",
"442 370 CURVE SMOOTH",
"442 518 LINE",
"414 518 LINE",
"414 370 LINE SMOOTH",
"414 198 OFFCURVE",
"343 85 OFFCURVE",
"197 28 CURVE",
"83 518 LINE",
"54 518 LINE",
"171 19 LINE",
"127 5 OFFCURVE",
"76 -5 OFFCURVE",
"20 -10 CURVE",
"23 -38 LINE"
);
}
);
width = 482;
},
{
layerId = "88F21F75-214F-41EE-AE9C-B4AA79D6697C";
paths = (
{
closed = 1;
nodes = (
"365 -75 OFFCURVE",
"539 92 OFFCURVE",
"539 432 CURVE SMOOTH",
"539 518 LINE",
"379 518 LINE",
"379 432 LINE SMOOTH",
"379 319 OFFCURVE",
"359 199 OFFCURVE",
"263 129 CURVE",
"183 518 LINE",
"20 518 LINE",
"112 67 LINE",
"87 62 OFFCURVE",
"60 58 OFFCURVE",
"31 56 CURVE",
"45 -104 LINE"
);
}
);
width = 579;
}
);
note = uni05E2;
unicode = 05E2;
},
{
glyphname = uni05E3;
lastChange = "2022-05-27 01:49:37 +0000";
layers = (
{
layerId = "0A901A10-6B10-40AA-AC10-6ECA400C9626";
paths = (
{
closed = 1;
nodes = (
"403 -130 LINE",
"403 317 LINE SMOOTH",
"403 428 OFFCURVE",
"312 518 OFFCURVE",
"201 518 CURVE SMOOTH",
"40 518 LINE",
"40 243 LINE",
"68 243 LINE",
"68 490 LINE",
"201 490 LINE SMOOTH",
"297 490 OFFCURVE",
"375 412 OFFCURVE",
"375 317 CURVE SMOOTH",
"375 -130 LINE"
);
}
);
width = 443;
},
{
layerId = "88F21F75-214F-41EE-AE9C-B4AA79D6697C";
paths = (
{
closed = 1;
nodes = (
"485 -165 LINE",
"485 278 LINE SMOOTH",
"485 410 OFFCURVE",
"377 518 OFFCURVE",
"245 518 CURVE SMOOTH",
"40 518 LINE",
"40 197 LINE",
"200 197 LINE",
"200 358 LINE",
"245 358 LINE SMOOTH",
"289 358 OFFCURVE",
"325 322 OFFCURVE",
"325 278 CURVE SMOOTH",
"325 -165 LINE"
);
}
);
width = 525;
}
);
note = uni05E3;
unicode = 05E3;
},
{
glyphname = uni05E4;
lastChange = "2022-05-27 01:49:38 +0000";
layers = (
{
layerId = "0A901A10-6B10-40AA-AC10-6ECA400C9626";
paths = (
{
closed = 1;
nodes = (
"270 0 LINE SMOOTH",
"411 0 OFFCURVE",
"499 130 OFFCURVE",
"499 262 CURVE SMOOTH",
"499 396 OFFCURVE",
"410 523 OFFCURVE",
"269 523 CURVE SMOOTH",
"126 523 OFFCURVE",
"40 394 OFFCURVE",
"40 258 CURVE SMOOTH",
"40 240 OFFCURVE",
"42 221 OFFCURVE",
"45 202 CURVE",
"72 207 LINE",
"69 224 OFFCURVE",
"68 242 OFFCURVE",
"68 259 CURVE SMOOTH",
"68 371 OFFCURVE",
"131 495 OFFCURVE",
"270 495 CURVE SMOOTH",
"408 495 OFFCURVE",
"471 371 OFFCURVE",
"471 260 CURVE SMOOTH",
"471 130 OFFCURVE",
"383 28 OFFCURVE",
"270 28 CURVE SMOOTH",
"112 28 LINE",
"112 0 LINE"
);
}
);
width = 518;
},
{
layerId = "88F21F75-214F-41EE-AE9C-B4AA79D6697C";
paths = (
{
closed = 1;
nodes = (
"300 0 LINE SMOOTH",
"441 0 OFFCURVE",
"550 122 OFFCURVE",
"550 262 CURVE SMOOTH",
"550 404 OFFCURVE",
"438 518 OFFCURVE",
"290 518 CURVE SMOOTH",
"131 518 OFFCURVE",
"39 384 OFFCURVE",
"39 258 CURVE SMOOTH",
"39 248 OFFCURVE",
"40 237 OFFCURVE",
"41 227 CURVE",
"201 227 LINE",
"200 235 OFFCURVE",
"199 242 OFFCURVE",
"199 250 CURVE SMOOTH",
"199 303 OFFCURVE",
"225 358 OFFCURVE",
"290 358 CURVE SMOOTH",
"360 358 OFFCURVE",
"390 302 OFFCURVE",
"390 258 CURVE SMOOTH",
"390 206 OFFCURVE",
"350 160 OFFCURVE",
"300 160 CURVE SMOOTH",
"162 160 LINE",
"162 0 LINE"
);
}
);
width = 569;
}
);
note = uni05E4;
unicode = 05E4;
},
{
glyphname = uni05E5;
lastChange = "2022-05-27 01:49:37 +0000";
layers = (
{
layerId = "0A901A10-6B10-40AA-AC10-6ECA400C9626";
paths = (
{
closed = 1;
nodes = (
"422 -130 LINE",
"266 142 LINE",
"489 518 LINE",
"456 518 LINE",
"251 170 LINE",
"52 518 LINE",
"20 518 LINE",
"390 -130 LINE"
);
}
);
width = 509;
},
{
layerId = "88F21F75-214F-41EE-AE9C-B4AA79D6697C";
paths = (
{
closed = 1;
nodes = (
"594 -165 LINE",
"392 189 LINE",
"586 518 LINE",
"400 518 LINE",
"300 349 LINE",
"204 518 LINE",
"20 518 LINE",
"410 -165 LINE"
);
}
);
width = 614;
}
);
note = uni05E5;
unicode = 05E5;
},
{
glyphname = uni05E6;
lastChange = "2022-05-27 01:49:38 +0000";
layers = (
{
layerId = "0A901A10-6B10-40AA-AC10-6ECA400C9626";
paths = (
{
closed = 1;
nodes = (
"486 0 LINE",
"486 24 LINE",
"423 60 OFFCURVE",
"359 108 OFFCURVE",
"298 167 CURVE",
"377 235 OFFCURVE",
"462 415 OFFCURVE",
"474 518 CURVE",
"446 518 LINE",
"434 422 OFFCURVE",
"351 248 OFFCURVE",
"278 186 CURVE",
"180 283 OFFCURVE",
"92 403 OFFCURVE",
"50 518 CURVE",
"20 518 LINE",
"84 333 OFFCURVE",
"262 136 OFFCURVE",
"426 28 CURVE",
"39 28 LINE",
"39 0 LINE"
);
}
);
width = 506;
},
{
layerId = "88F21F75-214F-41EE-AE9C-B4AA79D6697C";
paths = (
{
closed = 1;
nodes = (
"552 0 LINE",
"552 149 LINE",
"523 163 OFFCURVE",
"476 192 OFFCURVE",
"447 213 CURVE",
"497 276 OFFCURVE",
"558 380 OFFCURVE",
"572 518 CURVE",
"411 518 LINE",
"401 446 OFFCURVE",
"371 377 OFFCURVE",
"327 319 CURVE",
"271 379 OFFCURVE",
"226 446 OFFCURVE",
"193 518 CURVE",
"20 518 LINE",
"70 381 OFFCURVE",
"154 259 OFFCURVE",
"260 160 CURVE",
"48 160 LINE",
"48 0 LINE"
);
}
);
width = 592;
}
);
note = uni05E6;
unicode = 05E6;
},
{
glyphname = uni05E7;
lastChange = "2022-05-27 01:49:38 +0000";
layers = (
{
layerId = "0A901A10-6B10-40AA-AC10-6ECA400C9626";
paths = (
{
closed = 1;
nodes = (
"366 0 OFFCURVE",
"456 127 OFFCURVE",
"456 259 CURVE SMOOTH",
"456 518 LINE",
"50 518 LINE",
"50 490 LINE",
"428 490 LINE",
"428 259 LINE SMOOTH",
"428 129 OFFCURVE",
"339 28 OFFCURVE",
"226 28 CURVE",
"226 0 LINE"
);
},
{
closed = 1;
nodes = (
"81 -130 LINE",
"81 357 LINE",
"53 357 LINE",
"53 -130 LINE"
);
}
);
width = 495;
},
{
layerId = "88F21F75-214F-41EE-AE9C-B4AA79D6697C";
paths = (
{
closed = 1;
nodes = (
"439 2 OFFCURVE",
"534 131 OFFCURVE",
"534 308 CURVE SMOOTH",
"534 518 LINE",
"50 518 LINE",
"50 358 LINE",
"374 358 LINE",
"374 308 LINE SMOOTH",
"374 221 OFFCURVE",
"348 162 OFFCURVE",
"253 162 CURVE",
"253 2 LINE"
);
},
{
closed = 1;
nodes = (
"210 -165 LINE",
"210 275 LINE",
"50 275 LINE",
"50 -165 LINE"
);
}
);
width = 573;
}
);
note = uni05E7;
unicode = 05E7;
},
{
glyphname = uni05E8;
lastChange = "2022-05-27 01:49:38 +0000";
layers = (
{
layerId = "0A901A10-6B10-40AA-AC10-6ECA400C9626";
paths = (
{
closed = 1;
nodes = (
"376 0 LINE",
"376 317 LINE SMOOTH",
"376 428 OFFCURVE",
"285 518 OFFCURVE",
"174 518 CURVE SMOOTH",
"10 518 LINE",
"10 490 LINE",
"174 490 LINE SMOOTH",
"270 490 OFFCURVE",
"348 412 OFFCURVE",
"348 317 CURVE SMOOTH",
"348 0 LINE"
);
}
);
width = 416;
},
{
layerId = "88F21F75-214F-41EE-AE9C-B4AA79D6697C";
paths = (
{
closed = 1;
nodes = (
"422 0 LINE",
"422 278 LINE SMOOTH",
"422 410 OFFCURVE",
"314 518 OFFCURVE",
"182 518 CURVE SMOOTH",
"10 518 LINE",
"10 358 LINE",
"182 358 LINE SMOOTH",
"226 358 OFFCURVE",
"262 322 OFFCURVE",
"262 278 CURVE SMOOTH",
"262 0 LINE"
);
}
);
width = 462;
}
);
note = uni05E8;
unicode = 05E8;
},
{
glyphname = uni05E9;
lastChange = "2022-05-27 01:49:38 +0000";
layers = (
{
layerId = "0A901A10-6B10-40AA-AC10-6ECA400C9626";
paths = (
{
closed = 1;
nodes = (
"314 0 LINE SMOOTH",
"444 0 OFFCURVE",
"528 118 OFFCURVE",
"528 240 CURVE SMOOTH",
"528 518 LINE",
"500 518 LINE",
"500 240 LINE SMOOTH",
"500 121 OFFCURVE",
"418 28 OFFCURVE",
"314 28 CURVE SMOOTH",
"117 28 LINE",
"99 153 LINE",
"207 153 OFFCURVE",
"311 180 OFFCURVE",
"311 301 CURVE SMOOTH",
"311 518 LINE",
"283 518 LINE",
"283 301 LINE SMOOTH",
"283 198 OFFCURVE",
"190 181 OFFCURVE",
"95 181 CURVE",
"48 518 LINE",
"20 518 LINE",
"92 0 LINE"
);
}
);
width = 567;
},
{
layerId = "88F21F75-214F-41EE-AE9C-B4AA79D6697C";
paths = (
{
closed = 1;
nodes = (
"354 0 LINE SMOOTH",
"529 0 OFFCURVE",
"633 114 OFFCURVE",
"633 306 CURVE SMOOTH",
"633 518 LINE",
"473 518 LINE",
"473 306 LINE SMOOTH",
"473 224 OFFCURVE",
"421 160 OFFCURVE",
"354 160 CURVE SMOOTH",
"224 160 LINE",
"221 185 LINE",
"336 185 OFFCURVE",
"424 267 OFFCURVE",
"424 374 CURVE SMOOTH",
"424 518 LINE",
"264 518 LINE",
"264 401 LINE SMOOTH",
"264 358 OFFCURVE",
"241 345 OFFCURVE",
"202 345 CURVE",
"181 518 LINE",
"20 518 LINE",
"82 0 LINE"
);
}
);
width = 672;
}
);
note = uni05E9;
unicode = 05E9;
},
{
glyphname = uni05EA;
lastChange = "2022-05-27 01:49:38 +0000";
layers = (
{
layerId = "0A901A10-6B10-40AA-AC10-6ECA400C9626";
paths = (
{
closed = 1;
nodes = (
"141 0 LINE",
"141 490 LINE",
"293 490 LINE SMOOTH",
"389 490 OFFCURVE",
"466 412 OFFCURVE",
"466 317 CURVE SMOOTH",
"466 0 LINE",
"494 0 LINE",
"494 317 LINE SMOOTH",
"494 428 OFFCURVE",
"404 518 OFFCURVE",
"293 518 CURVE SMOOTH",
"42 518 LINE",
"42 490 LINE",
"113 490 LINE",
"113 28 LINE",
"20 28 LINE",
"20 0 LINE"
);
}
);
width = 533;
},
{
layerId = "88F21F75-214F-41EE-AE9C-B4AA79D6697C";
paths = (
{
closed = 1;
nodes = (
"232 0 LINE",
"232 358 LINE",
"270 358 LINE SMOOTH",
"314 358 OFFCURVE",
"350 322 OFFCURVE",
"350 278 CURVE SMOOTH",
"350 0 LINE",
"510 0 LINE",
"510 278 LINE SMOOTH",
"510 430 OFFCURVE",
"422 518 OFFCURVE",
"270 518 CURVE SMOOTH",
"20 518 LINE",
"20 358 LINE",
"78 358 LINE",
"78 160 LINE",
"20 160 LINE",
"20 0 LINE"
);
}
);
width = 549;
}
);
note = uni05EA;
unicode = 05EA;
},
{
glyphname = zero;
lastChange = "2021-10-06 21:24:32 +0000";
layers = (
{
hints = (
{
horizontal = 1;
origin = "{0, 11}";
target = "{1, 11}";
type = Stem;
},
{
horizontal = 1;
origin = "{0, 5}";
target = "{1, 5}";
type = Stem;
},
{
origin = "{0, 8}";
target = "{1, 2}";
type = Stem;
},
{
origin = "{1, 8}";
target = "{0, 2}";
type = Stem;
}
);
layerId = "0A901A10-6B10-40AA-AC10-6ECA400C9626";
paths = (
{
closed = 1;
nodes = (
"354 -5 OFFCURVE",
"438 132 OFFCURVE",
"438 342 CURVE SMOOTH",
"438 572 OFFCURVE",
"354 690 OFFCURVE",
"233 690 CURVE SMOOTH",
"113 690 OFFCURVE",
"30 572 OFFCURVE",
"30 341 CURVE SMOOTH",
"30 131 OFFCURVE",
"114 -5 OFFCURVE",
"234 -5 CURVE SMOOTH"
);
},
{
closed = 1;
nodes = (
"130 21 OFFCURVE",
"60 148 OFFCURVE",
"60 342 CURVE SMOOTH",
"60 555 OFFCURVE",
"131 664 OFFCURVE",
"234 664 CURVE SMOOTH",
"338 664 OFFCURVE",
"408 555 OFFCURVE",
"408 342 CURVE SMOOTH",
"408 148 OFFCURVE",
"337 21 OFFCURVE",
"233 21 CURVE SMOOTH"
);
}
);
width = 468;
},
{
hints = (
{
horizontal = 1;
origin = "{0, 11}";
target = "{1, 11}";
type = Stem;
},
{
horizontal = 1;
origin = "{0, 5}";
target = "{1, 5}";
type = Stem;
},
{
origin = "{0, 8}";
target = "{1, 2}";
type = Stem;
},
{
origin = "{1, 8}";
target = "{0, 2}";
type = Stem;
}
);
layerId = "88F21F75-214F-41EE-AE9C-B4AA79D6697C";
paths = (
{
closed = 1;
nodes = (
"398 0 OFFCURVE",
"483 120 OFFCURVE",
"483 354 CURVE SMOOTH",
"483 586 OFFCURVE",
"399 690 OFFCURVE",
"255 690 CURVE SMOOTH",
"115 690 OFFCURVE",
"30 592 OFFCURVE",
"30 355 CURVE SMOOTH",
"30 119 OFFCURVE",
"114 0 OFFCURVE",
"256 0 CURVE SMOOTH"
);
},
{
closed = 1;
nodes = (
"213 158 OFFCURVE",
"189 221 OFFCURVE",
"189 345 CURVE SMOOTH",
"189 466 OFFCURVE",
"212 532 OFFCURVE",
"256 532 CURVE SMOOTH",
"300 532 OFFCURVE",
"324 467 OFFCURVE",
"324 346 CURVE SMOOTH",
"324 222 OFFCURVE",
"299 158 OFFCURVE",
"256 158 CURVE SMOOTH"
);
}
);
width = 513;
}
);
note = zero;
unicode = 0030;
},
{
glyphname = one;
lastChange = "2021-10-06 21:23:17 +0000";
layers = (
{
hints = (
{
horizontal = 1;
origin = "{0, 6}";
target = up;
type = BottomGhost;
},
{
origin = "{0, 6}";
target = "{0, 0}";
type = Stem;
},
{
origin = "{0, 4}";
target = "{0, 0}";
type = Stem;
}
);
layerId = "0A901A10-6B10-40AA-AC10-6ECA400C9626";
paths = (
{
closed = 1;
nodes = (
"161 0 LINE",
"161 680 LINE",
"134 680 LINE",
"20 607 LINE",
"20 574 LINE",
"133 646 LINE",
"133 0 LINE"
);
}
);
width = 211;
},
{
hints = (
{
horizontal = 1;
place = "{0, 21}";
target = up;
type = BottomGhost;
},
{
place = "{169, 160}";
type = Stem;
}
);
layerId = "88F21F75-214F-41EE-AE9C-B4AA79D6697C";
paths = (
{
closed = 1;
nodes = (
"317 0 LINE",
"317 680 LINE",
"190 680 LINE",
"20 566 LINE",
"20 406 LINE",
"157 492 LINE",
"157 0 LINE"
);
}
);
width = 367;
}
);
note = one;
rightMetricsKey = N;
unicode = 0031;
},
{
glyphname = two;
lastChange = "2021-12-27 17:28:57 +0000";
layers = (
{
hints = (
{
horizontal = 1;
place = "{0, 28}";
type = Stem;
},
{
horizontal = 1;
place = "{580, 28}";
type = Stem;
},
{
place = "{21, 28}";
type = Stem;
},
{
place = "{370, 28}";
type = Stem;
}
);
layerId = "0A901A10-6B10-40AA-AC10-6ECA400C9626";
paths = (
{
closed = 1;
nodes = (
"412 0 LINE",
"412 28 LINE",
"58 28 LINE",
"220 217 LINE SMOOTH",
"315 327 OFFCURVE",
"415 427 OFFCURVE",
"415 533 CURVE SMOOTH",
"415 637 OFFCURVE",
"330 690 OFFCURVE",
"230 690 CURVE SMOOTH",
"113 690 OFFCURVE",
"49 617 OFFCURVE",
"38 496 CURVE",
"66 496 LINE",
"76 617 OFFCURVE",
"148 663 OFFCURVE",
"233 663 CURVE SMOOTH",
"316 663 OFFCURVE",
"387 620 OFFCURVE",
"387 533 CURVE SMOOTH",
"387 436 OFFCURVE",
"288 337 OFFCURVE",
"199 234 CURVE SMOOTH",
"20 26 LINE",
"20 0 LINE"
);
}
);
width = 436;
},
{
hints = (
{
horizontal = 1;
place = "{0, 160}";
type = Stem;
},
{
horizontal = 1;
place = "{443, 160}";
type = Stem;
},
{
place = "{20, 160}";
type = Stem;
},
{
place = "{280, 159}";
type = Stem;
}
);
layerId = "88F21F75-214F-41EE-AE9C-B4AA79D6697C";
paths = (
{
closed = 1;
nodes = (
"424 0 LINE",
"424 160 LINE",
"235 160 LINE",
"351 301 LINE SMOOTH",
"418 383 OFFCURVE",
"436 431 OFFCURVE",
"436 493 CURVE SMOOTH",
"436 634 OFFCURVE",
"341 690 OFFCURVE",
"237 690 CURVE SMOOTH",
"105 690 OFFCURVE",
"29 602 OFFCURVE",
"17 472 CURVE",
"177 472 LINE",
"182 509 OFFCURVE",
"198 532 OFFCURVE",
"230 532 CURVE SMOOTH",
"256 532 OFFCURVE",
"277 517 OFFCURVE",
"277 484 CURVE SMOOTH",
"277 431 OFFCURVE",
"217 370 OFFCURVE",
"155 296 CURVE SMOOTH",
"20 136 LINE",
"20 0 LINE"
);
}
);
width = 469;
}
);
note = two;
unicode = 0032;
},
{
glyphname = three;
lastChange = "2021-12-27 17:28:27 +0000";
layers = (
{
hints = (
{
horizontal = 1;
place = "{-5, 28}";
type = Stem;
},
{
horizontal = 1;
place = "{310, 28}";
type = Stem;
},
{
horizontal = 1;
place = "{580, 28}";
type = Stem;
},
{
place = "{30, 28}";
type = Stem;
},
{
place = "{410, 28}";
type = Stem;
},
{
place = "{391, 28}";
type = Stem;
}
);
layerId = "0A901A10-6B10-40AA-AC10-6ECA400C9626";
paths = (
{
closed = 1;
nodes = (
"364 0 OFFCURVE",
"455 78 OFFCURVE",
"455 193 CURVE SMOOTH",
"455 282 OFFCURVE",
"403 350 OFFCURVE",
"321 376 CURVE",
"384 402 OFFCURVE",
"423 462 OFFCURVE",
"423 531 CURVE SMOOTH",
"423 624 OFFCURVE",
"347 690 OFFCURVE",
"241 690 CURVE SMOOTH",
"123 690 OFFCURVE",
"42 609 OFFCURVE",
"42 494 CURVE",
"70 494 LINE",
"70 595 OFFCURVE",
"138 662 OFFCURVE",
"240 662 CURVE SMOOTH",
"333 662 OFFCURVE",
"395 607 OFFCURVE",
"395 529 CURVE SMOOTH",
"395 453 OFFCURVE",
"336 388 OFFCURVE",
"256 388 CURVE SMOOTH",
"241 388 LINE",
"241 360 LINE",
"257 360 LINE SMOOTH",
"358 360 OFFCURVE",
"427 289 OFFCURVE",
"427 194 CURVE SMOOTH",
"427 92 OFFCURVE",
"347 28 OFFCURVE",
"241 28 CURVE SMOOTH",
"131 28 OFFCURVE",
"58 95 OFFCURVE",
"58 196 CURVE",
"30 196 LINE",
"30 81 OFFCURVE",
"118 0 OFFCURVE",
"243 0 CURVE SMOOTH"
);
}
);
width = 485;
},
{
hints = (
{
horizontal = 1;
place = "{0, 145}";
type = Stem;
},
{
horizontal = 1;
place = "{255, 103}";
type = Stem;
},
{
horizontal = 1;
place = "{463, 140}";
type = Stem;
},
{
place = "{291, 166}";
type = Stem;
},
{
place = "{284, 159}";
type = Stem;
}
);
layerId = "88F21F75-214F-41EE-AE9C-B4AA79D6697C";
paths = (
{
closed = 1;
nodes = (
"399 0 OFFCURVE",
"506 74 OFFCURVE",
"506 208 CURVE SMOOTH",
"506 283 OFFCURVE",
"473 337 OFFCURVE",
"405 368 CURVE",
"451 393 OFFCURVE",
"481 449 OFFCURVE",
"481 510 CURVE SMOOTH",
"481 619 OFFCURVE",
"385 690 OFFCURVE",
"255 690 CURVE SMOOTH",
"151 690 OFFCURVE",
"72 644 OFFCURVE",
"37 570 CURVE",
"172 506 LINE",
"189 534 OFFCURVE",
"213 550 OFFCURVE",
"251 550 CURVE SMOOTH",
"297 550 OFFCURVE",
"321 526 OFFCURVE",
"321 489 CURVE SMOOTH",
"321 449 OFFCURVE",
"294 426 OFFCURVE",
"227 426 CURVE SMOOTH",
"197 426 LINE",
"197 323 LINE",
"227 323 LINE SMOOTH",
"286 323 OFFCURVE",
"331 285 OFFCURVE",
"331 226 CURVE SMOOTH",
"331 175 OFFCURVE",
"297 140 OFFCURVE",
"249 140 CURVE SMOOTH",
"211 140 OFFCURVE",
"179 161 OFFCURVE",
"164 186 CURVE",
"30 122 LINE",
"75 44 OFFCURVE",
"150 0 OFFCURVE",
"258 0 CURVE SMOOTH"
);
}
);
width = 536;
}
);
note = three;
unicode = 0033;
},
{
glyphname = four;
lastChange = "2021-12-27 17:28:39 +0000";
layers = (
{
hints = (
{
horizontal = 1;
place = "{134, 28}";
type = Stem;
},
{
place = "{20, 33}";
type = Stem;
},
{
place = "{327, 28}";
type = Stem;
},
{
horizontal = 1;
place = "{0, 162}";
type = Stem;
}
);
layerId = "0A901A10-6B10-40AA-AC10-6ECA400C9626";
paths = (
{
closed = 1;
nodes = (
"405 0 LINE",
"405 184 LINE",
"509 184 LINE",
"509 212 LINE",
"405 212 LINE",
"405 680 LINE",
"374 680 LINE",
"20 215 LINE",
"20 184 LINE",
"377 184 LINE",
"377 0 LINE"
);
},
{
closed = 1;
nodes = (
"377 635 LINE",
"377 212 LINE",
"53 212 LINE"
);
}
);
width = 525;
},
{
hints = (
{
horizontal = 1;
place = "{0, 21}";
target = up;
type = BottomGhost;
},
{
horizontal = 1;
place = "{68, 160}";
type = Stem;
},
{
place = "{278, 160}";
type = Stem;
}
);
layerId = "88F21F75-214F-41EE-AE9C-B4AA79D6697C";
paths = (
{
closed = 1;
nodes = (
"438 0 LINE",
"438 118 LINE",
"498 118 LINE",
"498 278 LINE",
"438 278 LINE",
"438 680 LINE",
"278 680 LINE",
"20 268 LINE",
"20 118 LINE",
"278 118 LINE",
"278 0 LINE"
);
},
{
closed = 1;
nodes = (
"278 440 LINE",
"278 278 LINE",
"188 278 LINE"
);
}
);
width = 517;
}
);
note = four;
unicode = 0034;
},
{
glyphname = five;
lastChange = "2021-12-27 17:20:38 +0000";
layers = (
{
hints = (
{
horizontal = 1;
place = "{-5, 28}";
type = Stem;
},
{
horizontal = 1;
place = "{385, 28}";
type = Stem;
},
{
horizontal = 1;
place = "{575, 28}";
type = Stem;
},
{
place = "{40, 28}";
type = Stem;
},
{
place = "{421, 28}";
type = Stem;
}
);
layerId = "0A901A10-6B10-40AA-AC10-6ECA400C9626";
paths = (
{
closed = 1;
nodes = (
"369 -5 OFFCURVE",
"449 82 OFFCURVE",
"449 204 CURVE SMOOTH",
"449 326 OFFCURVE",
"369 413 OFFCURVE",
"244 413 CURVE SMOOTH",
"179 413 OFFCURVE",
"125 389 OFFCURVE",
"89 346 CURVE",
"111 652 LINE",
"409 652 LINE",
"409 680 LINE",
"86 680 LINE",
"54 286 LINE",
"83 286 LINE",
"111 349 OFFCURVE",
"167 385 OFFCURVE",
"244 385 CURVE SMOOTH",
"374 385 OFFCURVE",
"421 287 OFFCURVE",
"421 204 CURVE SMOOTH",
"421 120 OFFCURVE",
"374 23 OFFCURVE",
"244 23 CURVE SMOOTH",
"114 23 OFFCURVE",
"68 120 OFFCURVE",
"68 204 CURVE",
"40 204 LINE",
"40 81 OFFCURVE",
"120 -5 OFFCURVE",
"244 -5 CURVE SMOOTH"
);
}
);
width = 478;
},
{
hints = (
{
horizontal = 1;
origin = "{0, 30}";
target = "{0, 23}";
type = Stem;
},
{
horizontal = 1;
origin = "{0, 17}";
target = "{0, 5}";
type = Stem;
},
{
horizontal = 1;
origin = "{0, 9}";
target = "{0, 12}";
type = Stem;
},
{
horizontal = 1;
origin = "{0, 30}";
target = "{0, 27}";
type = Stem;
},
{
origin = "{0, 27}";
target = "{0, 26}";
type = Stem;
},
{
origin = "{0, 20}";
target = "{0, 2}";
type = Stem;
}
);
layerId = "88F21F75-214F-41EE-AE9C-B4AA79D6697C";
paths = (
{
closed = 1;
nodes = (
"371 0 OFFCURVE",
"459 87 OFFCURVE",
"459 206 CURVE SMOOTH",
"459 314 OFFCURVE",
"386 418 OFFCURVE",
"272 418 CURVE SMOOTH",
"259 418 OFFCURVE",
"242 417 OFFCURVE",
"226 413 CURVE",
"240 520 LINE",
"432 520 LINE",
"432 680 LINE",
"98 680 LINE",
"48 279 LINE",
"201 249 LINE",
"212 263 OFFCURVE",
"230 273 OFFCURVE",
"249 273 CURVE SMOOTH",
"283 273 OFFCURVE",
"311 245 OFFCURVE",
"311 211 CURVE SMOOTH",
"311 177 OFFCURVE",
"283 150 OFFCURVE",
"249 150 CURVE SMOOTH",
"215 150 OFFCURVE",
"188 177 OFFCURVE",
"188 211 CURVE",
"40 211 LINE",
"40 90 OFFCURVE",
"127 0 OFFCURVE",
"249 0 CURVE SMOOTH"
);
}
);
width = 488;
}
);
note = five;
unicode = 0035;
},
{
glyphname = six;
lastChange = "2021-12-27 17:25:19 +0000";
layers = (
{
hints = (
{
horizontal = 1;
place = "{-5, 28}";
type = Stem;
},
{
horizontal = 1;
place = "{345, 28}";
type = Stem;
},
{
place = "{30, 28}";
type = Stem;
},
{
place = "{380, 28}";
type = Stem;
}
);
layerId = "0A901A10-6B10-40AA-AC10-6ECA400C9626";
paths = (
{
closed = 1;
nodes = (
"323 -5 OFFCURVE",
"408 80 OFFCURVE",
"408 184 CURVE SMOOTH",
"408 288 OFFCURVE",
"329 373 OFFCURVE",
"225 373 CURVE SMOOTH",
"198 373 OFFCURVE",
"166 368 OFFCURVE",
"139 352 CURVE",
"371 680 LINE",
"337 680 LINE",
"68 299 LINE SMOOTH",
"44 265 OFFCURVE",
"30 225 OFFCURVE",
"30 184 CURVE SMOOTH",
"30 80 OFFCURVE",
"115 -5 OFFCURVE",
"219 -5 CURVE SMOOTH"
);
},
{
closed = 1;
nodes = (
"130 23 OFFCURVE",
"58 95 OFFCURVE",
"58 184 CURVE SMOOTH",
"58 271 OFFCURVE",
"132 345 OFFCURVE",
"219 345 CURVE SMOOTH",
"308 345 OFFCURVE",
"380 273 OFFCURVE",
"380 184 CURVE SMOOTH",
"380 95 OFFCURVE",
"308 23 OFFCURVE",
"219 23 CURVE SMOOTH"
);
}
);
width = 437;
},
{
hints = (
{
horizontal = 1;
place = "{0, 160}";
type = Stem;
},
{
place = "{30, 160}";
type = Stem;
},
{
place = "{340, 160}";
type = Stem;
}
);
layerId = "88F21F75-214F-41EE-AE9C-B4AA79D6697C";
paths = (
{
closed = 1;
nodes = (
"395 0 OFFCURVE",
"500 105 OFFCURVE",
"500 235 CURVE SMOOTH",
"500 333 OFFCURVE",
"433 418 OFFCURVE",
"344 443 CURVE SMOOTH",
"337 445 OFFCURVE",
"330 447 OFFCURVE",
"324 448 CURVE",
"486 680 LINE",
"291 680 LINE",
"79 378 LINE SMOOTH",
"49 336 OFFCURVE",
"30 287 OFFCURVE",
"30 233 CURVE SMOOTH",
"30 105 OFFCURVE",
"135 0 OFFCURVE",
"265 0 CURVE SMOOTH"
);
},
{
closed = 1;
nodes = (
"224 160 OFFCURVE",
"190 194 OFFCURVE",
"190 235 CURVE SMOOTH",
"190 283 OFFCURVE",
"231 310 OFFCURVE",
"265 310 CURVE SMOOTH",
"306 310 OFFCURVE",
"340 276 OFFCURVE",
"340 235 CURVE SMOOTH",
"340 194 OFFCURVE",
"306 160 OFFCURVE",
"265 160 CURVE SMOOTH"
);
}
);
width = 529;
}
);
note = six;
unicode = 0036;
},
{
glyphname = seven;
lastChange = "2021-12-27 17:21:48 +0000";
layers = (
{
hints = (
{
horizontal = 1;
place = "{0, 21}";
target = up;
type = BottomGhost;
},
{
horizontal = 1;
place = "{575, 28}";
type = Stem;
},
{
place = "{10, 365}";
type = Stem;
}
);
layerId = "0A901A10-6B10-40AA-AC10-6ECA400C9626";
paths = (
{
closed = 1;
nodes = (
"93 0 LINE",
"395 653 LINE",
"395 680 LINE",
"30 680 LINE",
"30 652 LINE",
"387 652 LINE",
"374 673 LINE",
"62 0 LINE"
);
}
);
width = 411;
},
{
hints = (
{
horizontal = 1;
place = "{0, 21}";
target = up;
type = BottomGhost;
},
{
horizontal = 1;
place = "{443, 160}";
type = Stem;
},
{
place = "{10, 423}";
type = Stem;
}
);
layerId = "88F21F75-214F-41EE-AE9C-B4AA79D6697C";
paths = (
{
closed = 1;
nodes = (
"218 0 LINE",
"463 533 LINE",
"463 680 LINE",
"40 680 LINE",
"40 520 LINE",
"325 520 LINE",
"299 561 LINE",
"41 0 LINE"
);
}
);
width = 479;
}
);
note = seven;
unicode = 0037;
},
{
glyphname = eight;
lastChange = "2021-12-27 17:30:19 +0000";
layers = (
{
hints = (
{
horizontal = 1;
place = "{-5, 28}";
type = Stem;
},
{
horizontal = 1;
place = "{310, 28}";
type = Stem;
},
{
horizontal = 1;
place = "{580, 28}";
type = Stem;
},
{
place = "{49, 28}";
type = Stem;
},
{
place = "{393, 28}";
type = Stem;
},
{
place = "{30, 28}";
type = Stem;
},
{
place = "{412, 28}";
type = Stem;
}
);
layerId = "0A901A10-6B10-40AA-AC10-6ECA400C9626";
paths = (
{
closed = 1;
nodes = (
"358 -5 OFFCURVE",
"440 82 OFFCURVE",
"440 189 CURVE SMOOTH",
"440 280 OFFCURVE",
"384 357 OFFCURVE",
"304 377 CURVE",
"374 398 OFFCURVE",
"421 459 OFFCURVE",
"421 529 CURVE SMOOTH",
"421 620 OFFCURVE",
"340 690 OFFCURVE",
"235 690 CURVE SMOOTH",
"131 690 OFFCURVE",
"49 621 OFFCURVE",
"49 532 CURVE SMOOTH",
"49 459 OFFCURVE",
"99 397 OFFCURVE",
"173 377 CURVE",
"88 357 OFFCURVE",
"30 281 OFFCURVE",
"30 190 CURVE SMOOTH",
"30 83 OFFCURVE",
"113 -5 OFFCURVE",
"235 -5 CURVE SMOOTH"
);
},
{
closed = 1;
nodes = (
"129 23 OFFCURVE",
"58 98 OFFCURVE",
"58 188 CURVE SMOOTH",
"58 288 OFFCURVE",
"133 364 OFFCURVE",
"235 364 CURVE SMOOTH",
"337 364 OFFCURVE",
"412 288 OFFCURVE",
"412 188 CURVE SMOOTH",
"412 98 OFFCURVE",
"341 23 OFFCURVE",
"235 23 CURVE SMOOTH"
);
},
{
closed = 1;
nodes = (
"144 388 OFFCURVE",
"77 447 OFFCURVE",
"77 525 CURVE SMOOTH",
"77 602 OFFCURVE",
"146 662 OFFCURVE",
"235 662 CURVE SMOOTH",
"324 662 OFFCURVE",
"393 603 OFFCURVE",
"393 526 CURVE SMOOTH",
"393 448 OFFCURVE",
"325 388 OFFCURVE",
"235 388 CURVE SMOOTH"
);
}
);
width = 470;
},
{
hints = (
{
horizontal = 1;
place = "{0, 143}";
type = Stem;
},
{
horizontal = 1;
place = "{256, 122}";
type = Stem;
},
{
horizontal = 1;
place = "{463, 140}";
type = Stem;
},
{
place = "{43, 154}";
type = Stem;
},
{
place = "{306, 154}";
type = Stem;
},
{
place = "{30, 154}";
type = Stem;
},
{
place = "{293, 154}";
type = Stem;
}
);
layerId = "88F21F75-214F-41EE-AE9C-B4AA79D6697C";
paths = (
{
closed = 1;
nodes = (
"395 -5 OFFCURVE",
"500 100 OFFCURVE",
"500 230 CURVE SMOOTH",
"500 296 OFFCURVE",
"473 356 OFFCURVE",
"429 398 CURVE",
"452 427 OFFCURVE",
"466 464 OFFCURVE",
"466 507 CURVE SMOOTH",
"466 620 OFFCURVE",
"371 690 OFFCURVE",
"264 690 CURVE SMOOTH",
"157 690 OFFCURVE",
"62 620 OFFCURVE",
"62 507 CURVE SMOOTH",
"62 463 OFFCURVE",
"76 425 OFFCURVE",
"100 396 CURVE",
"57 353 OFFCURVE",
"30 293 OFFCURVE",
"30 228 CURVE SMOOTH",
"30 100 OFFCURVE",
"135 -5 OFFCURVE",
"265 -5 CURVE SMOOTH"
);
},
{
closed = 1;
nodes = (
"224 155 OFFCURVE",
"190 189 OFFCURVE",
"190 230 CURVE SMOOTH",
"190 278 OFFCURVE",
"231 305 OFFCURVE",
"265 305 CURVE SMOOTH",
"306 305 OFFCURVE",
"340 271 OFFCURVE",
"340 230 CURVE SMOOTH",
"340 189 OFFCURVE",
"306 155 OFFCURVE",
"265 155 CURVE SMOOTH"
);
},
{
closed = 1;
nodes = (
"238 465 OFFCURVE",
"216 480 OFFCURVE",
"216 507 CURVE SMOOTH",
"216 534 OFFCURVE",
"239 550 OFFCURVE",
"264 550 CURVE SMOOTH",
"289 550 OFFCURVE",
"312 534 OFFCURVE",
"312 507 CURVE SMOOTH",
"312 480 OFFCURVE",
"290 465 OFFCURVE",
"264 465 CURVE SMOOTH"
);
}
);
width = 489;
}
);
note = eight;
unicode = 0038;
},
{
glyphname = fraction;
lastChange = "2021-12-27 21:21:55 +0000";
layers = (
{
layerId = "0A901A10-6B10-40AA-AC10-6ECA400C9626";
paths = (
{
closed = 1;
nodes = (
"31 0 LINE",
"396 680 LINE",
"366 680 LINE",
"0 0 LINE"
);
}
);
width = 396;
},
{
layerId = "88F21F75-214F-41EE-AE9C-B4AA79D6697C";
paths = (
{
closed = 1;
nodes = (
"177 0 LINE",
"542 680 LINE",
"366 680 LINE",
"0 0 LINE"
);
}
);
width = 542;
}
);
unicode = 2044;
},
{
glyphname = onesuperior;
lastChange = "2021-12-27 21:16:58 +0000";
layers = (
{
hints = (
{
horizontal = 1;
origin = "{0, 6}";
target = up;
type = BottomGhost;
},
{
origin = "{0, 6}";
target = "{0, 0}";
type = Stem;
},
{
origin = "{0, 4}";
target = "{0, 0}";
type = Stem;
}
);
layerId = "0A901A10-6B10-40AA-AC10-6ECA400C9626";
paths = (
{
closed = 1;
nodes = (
"105 340 LINE",
"105 680 LINE",
"77 680 LINE",
"20 644 LINE",
"20 612 LINE",
"77 648 LINE",
"77 340 LINE"
);
}
);
width = 155;
},
{
hints = (
{
horizontal = 1;
place = "{356, 21}";
target = up;
type = BottomGhost;
},
{
place = "{80.478, 76.192}";
type = Stem;
}
);
layerId = "88F21F75-214F-41EE-AE9C-B4AA79D6697C";
paths = (
{
closed = 1;
nodes = (
"215 356 LINE",
"215 680 LINE",
"100 680 LINE",
"20 626 LINE",
"20 499 LINE",
"85 540 LINE",
"85 356 LINE"
);
}
);
width = 265;
}
);
leftMetricsKey = one;
rightMetricsKey = one;
unicode = 00B9;
},
{
glyphname = twosuperior;
lastChange = "2021-12-27 21:18:49 +0000";
layers = (
{
hints = (
{
horizontal = 1;
place = "{345, 14}";
type = Stem;
},
{
horizontal = 1;
place = "{635, 14}";
type = Stem;
},
{
place = "{10.5, 14}";
type = Stem;
},
{
place = "{185, 14}";
type = Stem;
}
);
layerId = "0A901A10-6B10-40AA-AC10-6ECA400C9626";
paths = (
{
closed = 1;
nodes = (
"227 341 LINE",
"227 369 LINE",
"57 369 LINE",
"129 444 LINE SMOOTH",
"189 506 OFFCURVE",
"223 545 OFFCURVE",
"223 596 CURVE SMOOTH",
"223 645 OFFCURVE",
"190 690 OFFCURVE",
"121 690 CURVE SMOOTH",
"62 690 OFFCURVE",
"20 654 OFFCURVE",
"20 593 CURVE",
"47 593 LINE",
"47 643 OFFCURVE",
"82 662 OFFCURVE",
"122 662 CURVE SMOOTH",
"170 662 OFFCURVE",
"195 634 OFFCURVE",
"195 596 CURVE SMOOTH",
"195 548 OFFCURVE",
"162 514 OFFCURVE",
"102 452 CURVE SMOOTH",
"21 368 LINE",
"21 341 LINE"
);
}
);
width = 248;
},
{
layerId = "88F21F75-214F-41EE-AE9C-B4AA79D6697C";
paths = (
{
closed = 1;
nodes = (
"263 355 LINE",
"263 455 LINE",
"175 455 LINE",
"214 495 LINE SMOOTH",
"249 531 OFFCURVE",
"260 562 OFFCURVE",
"260 593 CURVE SMOOTH",
"260 649 OFFCURVE",
"218 690 OFFCURVE",
"145 690 CURVE SMOOTH",
"68 690 OFFCURVE",
"17 645 OFFCURVE",
"17 571 CURVE",
"114 571 LINE",
"114 602 OFFCURVE",
"122 609 OFFCURVE",
"136 609 CURVE SMOOTH",
"151 609 OFFCURVE",
"157 601 OFFCURVE",
"157 585 CURVE SMOOTH",
"157 557 OFFCURVE",
"119 527 OFFCURVE",
"73 484 CURVE SMOOTH",
"30 443 LINE",
"30 355 LINE"
);
}
);
width = 296;
}
);
leftMetricsKey = two;
rightMetricsKey = two;
unicode = 00B2;
},
{
glyphname = threesuperior;
lastChange = "2021-12-27 21:21:18 +0000";
layers = (
{
hints = (
{
horizontal = 1;
place = "{342.5, 14}";
type = Stem;
},
{
horizontal = 1;
place = "{500, 14}";
type = Stem;
},
{
horizontal = 1;
place = "{635, 14}";
type = Stem;
},
{
place = "{15, 14}";
type = Stem;
},
{
place = "{205, 14}";
type = Stem;
},
{
place = "{195.5, 14}";
type = Stem;
}
);
layerId = "0A901A10-6B10-40AA-AC10-6ECA400C9626";
paths = (
{
closed = 1;
nodes = (
"197 345 OFFCURVE",
"243 381 OFFCURVE",
"243 442 CURVE SMOOTH",
"243 489 OFFCURVE",
"219 524 OFFCURVE",
"178 535 CURVE",
"208 549 OFFCURVE",
"227 578 OFFCURVE",
"227 611 CURVE SMOOTH",
"227 657 OFFCURVE",
"189 690 OFFCURVE",
"136 690 CURVE SMOOTH",
"77 690 OFFCURVE",
"36 650 OFFCURVE",
"36 592 CURVE",
"64 592 LINE",
"64 637 OFFCURVE",
"90 662 OFFCURVE",
"135 662 CURVE SMOOTH",
"176 662 OFFCURVE",
"199 643 OFFCURVE",
"199 610 CURVE SMOOTH",
"199 572 OFFCURVE",
"173 546 OFFCURVE",
"133 546 CURVE SMOOTH",
"106 546 LINE",
"106 518 LINE",
"134 518 LINE SMOOTH",
"183 518 OFFCURVE",
"217 489 OFFCURVE",
"217 446 CURVE SMOOTH",
"217 400 OFFCURVE",
"185 373 OFFCURVE",
"134 373 CURVE SMOOTH",
"89 373 OFFCURVE",
"58 403 OFFCURVE",
"58 443 CURVE",
"30 443 LINE",
"30 388 OFFCURVE",
"71 345 OFFCURVE",
"134 345 CURVE SMOOTH"
);
}
);
width = 273;
},
{
layerId = "88F21F75-214F-41EE-AE9C-B4AA79D6697C";
paths = (
{
closed = 1;
nodes = (
"219 345 OFFCURVE",
"268 386 OFFCURVE",
"268 449 CURVE SMOOTH",
"268 489 OFFCURVE",
"249 514 OFFCURVE",
"209 529 CURVE",
"238 539 OFFCURVE",
"256 567 OFFCURVE",
"256 602 CURVE SMOOTH",
"256 654 OFFCURVE",
"211 690 OFFCURVE",
"145 690 CURVE SMOOTH",
"87 690 OFFCURVE",
"43 662 OFFCURVE",
"30 618 CURVE",
"114 587 LINE",
"115 603 OFFCURVE",
"126 615 OFFCURVE",
"141 615 CURVE SMOOTH",
"155 615 OFFCURVE",
"165 605 OFFCURVE",
"165 589 CURVE SMOOTH",
"165 571 OFFCURVE",
"150 558 OFFCURVE",
"129 558 CURVE SMOOTH",
"114 558 LINE",
"114 490 LINE",
"131 490 LINE SMOOTH",
"157 490 OFFCURVE",
"172 480 OFFCURVE",
"172 461 CURVE SMOOTH",
"172 445 OFFCURVE",
"159 433 OFFCURVE",
"142 433 CURVE SMOOTH",
"132 433 OFFCURVE",
"121 438 OFFCURVE",
"115 452 CURVE",
"30 406 LINE",
"54 365 OFFCURVE",
"92 345 OFFCURVE",
"144 345 CURVE SMOOTH"
);
}
);
width = 298;
}
);
leftMetricsKey = three;
rightMetricsKey = three;
unicode = 00B3;
},
{
glyphname = foursuperior;
lastChange = "2021-12-27 21:19:28 +0000";
layers = (
{
hints = (
{
horizontal = 1;
place = "{407, 14}";
type = Stem;
},
{
place = "{10, 16.5}";
type = Stem;
},
{
place = "{163.5, 14}";
type = Stem;
},
{
horizontal = 1;
place = "{340, 81}";
type = Stem;
}
);
layerId = "0A901A10-6B10-40AA-AC10-6ECA400C9626";
paths = (
{
closed = 1;
nodes = (
"227 340 LINE",
"227 418 LINE",
"265 418 LINE",
"265 446 LINE",
"227 446 LINE",
"227 680 LINE",
"197 680 LINE",
"20 448 LINE",
"20 418 LINE",
"199 418 LINE",
"199 340 LINE"
);
},
{
closed = 1;
nodes = (
"199 644 LINE",
"199 446 LINE",
"48 446 LINE"
);
}
);
width = 281;
},
{
layerId = "88F21F75-214F-41EE-AE9C-B4AA79D6697C";
paths = (
{
closed = 1;
nodes = (
"249 340 LINE",
"249 409 LINE",
"289 409 LINE",
"289 509 LINE",
"249 509 LINE",
"249 680 LINE",
"149 680 LINE",
"20 504 LINE",
"20 409 LINE",
"149 409 LINE",
"149 340 LINE"
);
},
{
closed = 1;
nodes = (
"149 570 LINE",
"149 509 LINE",
"104 509 LINE"
);
}
);
width = 308;
}
);
leftMetricsKey = four;
rightMetricsKey = four;
unicode = 2074;
},
{
glyphname = period;
lastChange = "2021-10-11 16:55:26 +0000";
layers = (
{
hints = (
{
horizontal = 1;
place = "{0, 70}";
type = Stem;
},
{
place = "{20, 55}";
type = Stem;
}
);
layerId = "0A901A10-6B10-40AA-AC10-6ECA400C9626";
paths = (
{
closed = 1;
nodes = (
"58 0 LINE",
"58 70 LINE",
"30 70 LINE",
"30 0 LINE"
);
}
);
width = 88;
},
{
hints = (
{
horizontal = 1;
place = "{0, 160}";
type = Stem;
},
{
place = "{2, 160}";
type = Stem;
}
);
layerId = "88F21F75-214F-41EE-AE9C-B4AA79D6697C";
paths = (
{
closed = 1;
nodes = (
"190 0 LINE",
"190 160 LINE",
"30 160 LINE",
"30 0 LINE"
);
}
);
width = 220;
}
);
note = period;
unicode = 002E;
},
{
glyphname = comma;
lastChange = "2021-10-11 16:55:26 +0000";
layers = (
{
hints = (
{
horizontal = 1;
place = "{-88, 164}";
type = Stem;
},
{
place = "{84, 28}";
type = Stem;
}
);
layerId = "0A901A10-6B10-40AA-AC10-6ECA400C9626";
paths = (
{
closed = 1;
nodes = (
"29 -88 LINE",
"89 76 LINE",
"61 76 LINE",
"20 -88 LINE"
);
}
);
width = 119;
},
{
hints = (
{
horizontal = 1;
place = "{-90, 203}";
type = Stem;
},
{
place = "{94, 150}";
type = Stem;
}
);
layerId = "88F21F75-214F-41EE-AE9C-B4AA79D6697C";
paths = (
{
closed = 1;
nodes = (
"75 -156 LINE",
"184 110 LINE",
"24 110 LINE",
"-24 -156 LINE"
);
}
);
width = 264;
}
);
note = comma;
unicode = 002C;
},
{
glyphname = colon;
lastChange = "2021-10-11 16:55:26 +0000";
layers = (
{
hints = (
{
horizontal = 1;
place = "{80, 70}";
type = Stem;
},
{
horizontal = 1;
place = "{373, 70}";
type = Stem;
},
{
place = "{30, 55}";
type = Stem;
}
);
layerId = "0A901A10-6B10-40AA-AC10-6ECA400C9626";
paths = (
{
closed = 1;
nodes = (
"58 448 LINE",
"58 518 LINE",
"30 518 LINE",
"30 448 LINE"
);
},
{
closed = 1;
nodes = (
"58 0 LINE",
"58 70 LINE",
"30 70 LINE",
"30 0 LINE"
);
}
);
width = 88;
},
{
hints = (
{
horizontal = 1;
place = "{60, 160}";
type = Stem;
},
{
horizontal = 1;
place = "{317, 161}";
type = Stem;
},
{
place = "{30, 160}";
type = Stem;
}
);
layerId = "88F21F75-214F-41EE-AE9C-B4AA79D6697C";
paths = (
{
closed = 1;
nodes = (
"190 357 LINE",
"190 518 LINE",
"30 518 LINE",
"30 357 LINE"
);
},
{
closed = 1;
nodes = (
"190 0 LINE",
"190 160 LINE",
"30 160 LINE",
"30 0 LINE"
);
}
);
width = 220;
}
);
note = colon;
unicode = 003A;
},
{
glyphname = semicolon;
lastChange = "2021-10-11 16:55:26 +0000";
layers = (
{
hints = (
{
horizontal = 1;
origin = "{1, 2}";
target = "{1, 3}";
type = Stem;
},
{
origin = "{1, 3}";
target = "{1, 0}";
type = Stem;
}
);
layerId = "0A901A10-6B10-40AA-AC10-6ECA400C9626";
paths = (
{
closed = 1;
nodes = (
"29 -88 LINE",
"89 76 LINE",
"61 76 LINE",
"20 -88 LINE"
);
},
{
closed = 1;
nodes = (
"72 448 LINE",
"72 518 LINE",
"44 518 LINE",
"44 448 LINE"
);
}
);
width = 119;
},
{
hints = (
{
horizontal = 1;
origin = "{0, 3}";
target = "{0, 2}";
type = Stem;
},
{
horizontal = 1;
origin = "{1, 2}";
target = "{1, 3}";
type = Stem;
},
{
origin = "{1, 3}";
target = "{1, 0}";
type = Stem;
}
);
layerId = "88F21F75-214F-41EE-AE9C-B4AA79D6697C";
paths = (
{
closed = 1;
nodes = (
"75 -156 LINE",
"184 110 LINE",
"24 110 LINE",
"-24 -156 LINE"
);
},
{
closed = 1;
nodes = (
"190 357 LINE",
"190 518 LINE",
"30 518 LINE",
"30 357 LINE"
);
}
);
width = 284;
}
);
note = semicolon;
unicode = 003B;
},
{
glyphname = exclam;
lastChange = "2021-10-11 16:55:26 +0000";
layers = (
{
hints = (
{
horizontal = 1;
origin = "{1, 3}";
target = "{1, 2}";
type = Stem;
},
{
origin = "{1, 3}";
target = "{1, 0}";
type = Stem;
}
);
layerId = "0A901A10-6B10-40AA-AC10-6ECA400C9626";
paths = (
{
closed = 1;
nodes = (
"71 182 LINE",
"78 406 LINE",
"78 627 LINE",
"50 627 LINE",
"50 406 LINE",
"57 182 LINE"
);
},
{
closed = 1;
nodes = (
"78 0 LINE",
"78 70 LINE",
"50 70 LINE",
"50 0 LINE"
);
}
);
width = 128;
},
{
hints = (
{
horizontal = 1;
place = "{0, 160}";
type = Stem;
},
{
place = "{50, 160}";
type = Stem;
}
);
layerId = "88F21F75-214F-41EE-AE9C-B4AA79D6697C";
paths = (
{
closed = 1;
nodes = (
"181 228 LINE",
"210 444 LINE",
"210 633 LINE",
"50 633 LINE",
"50 444 LINE",
"79 228 LINE"
);
},
{
closed = 1;
nodes = (
"210 0 LINE",
"210 160 LINE",
"50 160 LINE",
"50 0 LINE"
);
}
);
width = 260;
}
);
note = exclam;
unicode = 0021;
},
{
glyphname = question;
lastChange = "2021-10-11 16:55:26 +0000";
layers = (
{
hints = (
{
horizontal = 1;
origin = "{1, 3}";
target = "{1, 2}";
type = Stem;
},
{
horizontal = 1;
origin = "{0, 16}";
target = "{0, 9}";
type = Stem;
},
{
origin = "{0, 12}";
target = "{0, 13}";
type = Stem;
},
{
origin = "{1, 3}";
target = "{0, 0}";
type = Stem;
},
{
origin = "{0, 19}";
target = "{0, 6}";
type = Stem;
},
{
origin = "{1, 3}";
target = "{1, 0}";
type = Stem;
}
);
layerId = "0A901A10-6B10-40AA-AC10-6ECA400C9626";
paths = (
{
closed = 1;
nodes = (
"205 188 LINE",
"205 258 OFFCURVE",
"215 300 OFFCURVE",
"278 358 CURVE SMOOTH",
"337 413 OFFCURVE",
"364 449 OFFCURVE",
"364 501 CURVE SMOOTH",
"364 579 OFFCURVE",
"293 633 OFFCURVE",
"201 633 CURVE SMOOTH",
"96 633 OFFCURVE",
"20 552 OFFCURVE",
"20 438 CURVE",
"48 438 LINE",
"48 537 OFFCURVE",
"111 606 OFFCURVE",
"202 606 CURVE SMOOTH",
"280 606 OFFCURVE",
"336 566 OFFCURVE",
"336 501 CURVE SMOOTH",
"336 458 OFFCURVE",
"313 426 OFFCURVE",
"265 383 CURVE SMOOTH",
"190 315 OFFCURVE",
"179 262 OFFCURVE",
"179 188 CURVE"
);
},
{
closed = 1;
nodes = (
"207 0 LINE",
"207 70 LINE",
"179 70 LINE",
"179 0 LINE"
);
}
);
width = 384;
},
{
hints = (
{
horizontal = 1;
origin = "{1, 3}";
target = "{1, 2}";
type = Stem;
},
{
horizontal = 1;
origin = "{0, 16}";
target = "{0, 9}";
type = Stem;
},
{
horizontal = 1;
origin = "{0, 12}";
target = "{0, 9}";
type = Stem;
},
{
origin = "{1, 3}";
target = "{1, 0}";
type = Stem;
},
{
origin = "{0, 19}";
target = "{0, 6}";
type = Stem;
},
{
origin = "{0, 12}";
target = "{0, 13}";
type = Stem;
}
);
layerId = "88F21F75-214F-41EE-AE9C-B4AA79D6697C";
paths = (
{
closed = 1;
nodes = (
"316 195 LINE",
"316 224 OFFCURVE",
"332 256 OFFCURVE",
"370 289 CURVE SMOOTH",
"433 344 OFFCURVE",
"466 391 OFFCURVE",
"466 457 CURVE SMOOTH",
"466 565 OFFCURVE",
"368 643 OFFCURVE",
"245 643 CURVE SMOOTH",
"109 643 OFFCURVE",
"30 537 OFFCURVE",
"20 382 CURVE",
"180 382 LINE",
"190 449 OFFCURVE",
"205 486 OFFCURVE",
"249 486 CURVE SMOOTH",
"280 486 OFFCURVE",
"296 471 OFFCURVE",
"296 442 CURVE SMOOTH",
"296 420 OFFCURVE",
"286 407 OFFCURVE",
"243 373 CURVE SMOOTH",
"182 325 OFFCURVE",
"156 271 OFFCURVE",
"156 195 CURVE"
);
},
{
closed = 1;
nodes = (
"316 0 LINE",
"316 160 LINE",
"156 160 LINE",
"156 0 LINE"
);
}
);
width = 486;
}
);
note = question;
unicode = 003F;
},
{
glyphname = questiondown;
lastChange = "2021-10-11 16:55:26 +0000";
layers = (
{
layerId = "0A901A10-6B10-40AA-AC10-6ECA400C9626";
leftMetricsKey = "=|question";
rightMetricsKey = "=|question";
paths = (
{
closed = 1;
nodes = (
"288 -100 OFFCURVE",
"364 -19 OFFCURVE",
"364 95 CURVE",
"336 95 LINE",
"336 -4 OFFCURVE",
"273 -73 OFFCURVE",
"182 -73 CURVE SMOOTH",
"104 -73 OFFCURVE",
"48 -33 OFFCURVE",
"48 32 CURVE SMOOTH",
"48 75 OFFCURVE",
"71 107 OFFCURVE",
"119 150 CURVE SMOOTH",
"194 218 OFFCURVE",
"205 271 OFFCURVE",
"205 345 CURVE",
"179 345 LINE",
"179 275 OFFCURVE",
"169 233 OFFCURVE",
"106 175 CURVE SMOOTH",
"47 120 OFFCURVE",
"20 84 OFFCURVE",
"20 32 CURVE SMOOTH",
"20 -46 OFFCURVE",
"91 -100 OFFCURVE",
"183 -100 CURVE SMOOTH"
);
},
{
closed = 1;
nodes = (
"205 463 LINE",
"205 533 LINE",
"177 533 LINE",
"177 463 LINE"
);
}
);
width = 384;
},
{
layerId = "88F21F75-214F-41EE-AE9C-B4AA79D6697C";
paths = (
{
closed = 1;
nodes = (
"377 -100 OFFCURVE",
"456 6 OFFCURVE",
"466 161 CURVE",
"306 161 LINE",
"296 94 OFFCURVE",
"281 57 OFFCURVE",
"237 57 CURVE SMOOTH",
"206 57 OFFCURVE",
"190 72 OFFCURVE",
"190 101 CURVE SMOOTH",
"190 123 OFFCURVE",
"200 136 OFFCURVE",
"243 170 CURVE SMOOTH",
"304 218 OFFCURVE",
"330 272 OFFCURVE",
"330 348 CURVE",
"170 348 LINE",
"170 319 OFFCURVE",
"154 287 OFFCURVE",
"116 254 CURVE SMOOTH",
"53 199 OFFCURVE",
"20 152 OFFCURVE",
"20 86 CURVE SMOOTH",
"20 -22 OFFCURVE",
"118 -100 OFFCURVE",
"241 -100 CURVE SMOOTH"
);
},
{
closed = 1;
nodes = (
"330 383 LINE",
"330 543 LINE",
"170 543 LINE",
"170 383 LINE"
);
}
);
width = 600;
}
);
unicode = 00BF;
},
{
glyphname = periodcentered;
lastChange = "2021-10-11 16:56:32 +0000";
layers = (
{
layerId = "0A901A10-6B10-40AA-AC10-6ECA400C9626";
paths = (
{
closed = 1;
nodes = (
"104 242 OFFCURVE",
"126 263 OFFCURVE",
"126 290 CURVE SMOOTH",
"126 316 OFFCURVE",
"104 338 OFFCURVE",
"78 338 CURVE SMOOTH",
"51 338 OFFCURVE",
"30 316 OFFCURVE",
"30 290 CURVE SMOOTH",
"30 263 OFFCURVE",
"51 242 OFFCURVE",
"78 242 CURVE SMOOTH"
);
}
);
width = 156;
},
{
layerId = "88F21F75-214F-41EE-AE9C-B4AA79D6697C";
paths = (
{
closed = 1;
nodes = (
"185 190 OFFCURVE",
"230 234 OFFCURVE",
"230 290 CURVE SMOOTH",
"230 345 OFFCURVE",
"185 390 OFFCURVE",
"130 390 CURVE SMOOTH",
"74 390 OFFCURVE",
"30 345 OFFCURVE",
"30 290 CURVE SMOOTH",
"30 234 OFFCURVE",
"74 190 OFFCURVE",
"130 190 CURVE SMOOTH"
);
}
);
width = 260;
}
);
unicode = 00B7;
},
{
glyphname = bullet;
lastChange = "2021-10-11 16:56:29 +0000";
layers = (
{
layerId = "0A901A10-6B10-40AA-AC10-6ECA400C9626";
paths = (
{
closed = 1;
nodes = (
"177 195 OFFCURVE",
"220 237 OFFCURVE",
"220 290 CURVE SMOOTH",
"220 342 OFFCURVE",
"177 385 OFFCURVE",
"125 385 CURVE SMOOTH",
"72 385 OFFCURVE",
"30 342 OFFCURVE",
"30 290 CURVE SMOOTH",
"30 237 OFFCURVE",
"72 195 OFFCURVE",
"125 195 CURVE SMOOTH"
);
}
);
width = 250;
},
{
layerId = "88F21F75-214F-41EE-AE9C-B4AA79D6697C";
paths = (
{
closed = 1;
nodes = (
"340 90 OFFCURVE",
"430 178 OFFCURVE",
"430 290 CURVE SMOOTH",
"430 400 OFFCURVE",
"340 490 OFFCURVE",
"230 490 CURVE SMOOTH",
"118 490 OFFCURVE",
"30 400 OFFCURVE",
"30 290 CURVE SMOOTH",
"30 178 OFFCURVE",
"118 90 OFFCURVE",
"230 90 CURVE SMOOTH"
);
}
);
width = 460;
}
);
unicode = 2022;
},
{
glyphname = asterisk;
lastChange = "2021-10-06 15:00:21 +0000";
layers = (
{
hints = (
{
horizontal = 1;
place = "{199, 308}";
type = Stem;
},
{
place = "{178, 28}";
type = Stem;
}
);
layerId = "0A901A10-6B10-40AA-AC10-6ECA400C9626";
paths = (
{
closed = 1;
nodes = (
"192 318 LINE",
"279 199 LINE",
"301 215 LINE",
"215 334 LINE",
"355 379 LINE",
"346 406 LINE",
"206 361 LINE",
"206 507 LINE",
"178 507 LINE",
"178 361 LINE",
"39 406 LINE",
"30 379 LINE",
"170 334 LINE",
"83 215 LINE",
"106 199 LINE"
);
}
);
width = 385;
},
{
hints = (
{
horizontal = 1;
place = "{151, 383}";
type = Stem;
},
{
place = "{156, 150}";
type = Stem;
}
);
layerId = "88F21F75-214F-41EE-AE9C-B4AA79D6697C";
paths = (
{
closed = 1;
nodes = (
"231 219 LINE",
"280 151 LINE",
"402 240 LINE",
"353 307 LINE",
"432 333 LINE",
"386 476 LINE",
"306 450 LINE",
"306 534 LINE",
"156 534 LINE",
"156 450 LINE",
"76 476 LINE",
"30 333 LINE",
"110 307 LINE",
"60 240 LINE",
"182 151 LINE"
);
}
);
width = 462;
}
);
note = asterisk;
unicode = 002A;
},
{
glyphname = numbersign;
lastChange = "2021-10-06 15:00:21 +0000";
layers = (
{
hints = (
{
horizontal = 1;
place = "{0, 21}";
target = up;
type = BottomGhost;
},
{
horizontal = 1;
place = "{202, 28}";
type = Stem;
},
{
horizontal = 1;
place = "{368, 28}";
type = Stem;
},
{
place = "{30, 409}";
type = Stem;
}
);
layerId = "0A901A10-6B10-40AA-AC10-6ECA400C9626";
paths = (
{
closed = 1;
nodes = (
"121 0 LINE",
"149 202 LINE",
"303 202 LINE",
"275 0 LINE",
"303 0 LINE",
"331 202 LINE",
"414 202 LINE",
"414 230 LINE",
"335 230 LINE",
"354 368 LINE",
"439 368 LINE",
"439 396 LINE",
"358 396 LINE",
"387 603 LINE",
"359 603 LINE",
"330 396 LINE",
"176 396 LINE",
"205 603 LINE",
"177 603 LINE",
"148 396 LINE",
"54 396 LINE",
"54 368 LINE",
"144 368 LINE",
"125 230 LINE",
"30 230 LINE",
"30 202 LINE",
"121 202 LINE",
"93 0 LINE"
);
},
{
closed = 1;
nodes = (
"172 368 LINE",
"326 368 LINE",
"307 230 LINE",
"153 230 LINE"
);
}
);
width = 469;
},
{
hints = (
{
horizontal = 1;
place = "{0, 21}";
target = up;
type = BottomGhost;
},
{
horizontal = 1;
place = "{121, 150}";
type = Stem;
},
{
horizontal = 1;
place = "{327, 150}";
type = Stem;
},
{
place = "{30, 579}";
type = Stem;
}
);
layerId = "88F21F75-214F-41EE-AE9C-B4AA79D6697C";
paths = (
{
closed = 1;
nodes = (
"248 0 LINE",
"265 121 LINE",
"325 121 LINE",
"308 0 LINE",
"460 0 LINE",
"477 121 LINE",
"575 121 LINE",
"575 271 LINE",
"498 271 LINE",
"505 327 LINE",
"609 327 LINE",
"609 477 LINE",
"526 477 LINE",
"544 603 LINE",
"393 603 LINE",
"375 477 LINE",
"314 477 LINE",
"332 603 LINE",
"180 603 LINE",
"163 477 LINE",
"64 477 LINE",
"64 327 LINE",
"142 327 LINE",
"134 271 LINE",
"30 271 LINE",
"30 121 LINE",
"113 121 LINE",
"96 0 LINE"
);
},
{
closed = 1;
nodes = (
"293 327 LINE",
"354 327 LINE",
"346 271 LINE",
"286 271 LINE"
);
}
);
width = 639;
}
);
note = numbersign;
unicode = 0023;
},
{
glyphname = slash;
lastChange = "2021-12-27 17:33:12 +0000";
layers = (
{
hints = (
{
horizontal = 1;
place = "{-169, 848}";
type = Stem;
},
{
place = "{10, 424}";
type = Stem;
}
);
layerId = "0A901A10-6B10-40AA-AC10-6ECA400C9626";
paths = (
{
closed = 1;
nodes = (
"41 -169 LINE",
"434 680 LINE",
"404 680 LINE",
"10 -169 LINE"
);
}
);
width = 444;
},
{
hints = (
{
horizontal = 1;
place = "{-164, 848}";
type = Stem;
},
{
place = "{10, 570}";
type = Stem;
}
);
layerId = "88F21F75-214F-41EE-AE9C-B4AA79D6697C";
paths = (
{
closed = 1;
nodes = (
"186 -164 LINE",
"580 684 LINE",
"404 684 LINE",
"10 -164 LINE"
);
}
);
width = 590;
}
);
note = slash;
unicode = 002F;
},
{
glyphname = backslash;
lastChange = "2021-10-06 15:00:21 +0000";
layers = (
{
hints = (
{
horizontal = 1;
place = "{-169, 848}";
type = Stem;
},
{
place = "{10, 424}";
type = Stem;
}
);
layerId = "0A901A10-6B10-40AA-AC10-6ECA400C9626";
paths = (
{
closed = 1;
nodes = (
"434 -169 LINE",
"41 679 LINE",
"10 679 LINE",
"404 -169 LINE"
);
}
);
width = 444;
},
{
hints = (
{
horizontal = 1;
place = "{-164, 848}";
type = Stem;
},
{
place = "{10, 570}";
type = Stem;
}
);
layerId = "88F21F75-214F-41EE-AE9C-B4AA79D6697C";
paths = (
{
closed = 1;
nodes = (
"580 -164 LINE",
"186 684 LINE",
"10 684 LINE",
"404 -164 LINE"
);
}
);
width = 590;
}
);
note = backslash;
unicode = 005C;
},
{
glyphname = hyphen;
lastChange = "2021-10-06 15:00:21 +0000";
layers = (
{
hints = (
{
horizontal = 1;
place = "{350, 31}";
type = Stem;
},
{
place = "{20, 143}";
type = Stem;
}
);
layerId = "0A901A10-6B10-40AA-AC10-6ECA400C9626";
paths = (
{
closed = 1;
nodes = (
"163 350 LINE",
"163 381 LINE",
"20 381 LINE",
"20 350 LINE"
);
}
);
width = 183;
},
{
hints = (
{
horizontal = 1;
place = "{282, 150}";
type = Stem;
},
{
place = "{20, 272}";
type = Stem;
}
);
layerId = "88F21F75-214F-41EE-AE9C-B4AA79D6697C";
paths = (
{
closed = 1;
nodes = (
"292 282 LINE",
"292 432 LINE",
"20 432 LINE",
"20 282 LINE"
);
}
);
width = 312;
}
);
note = hyphen;
unicode = 002D;
},
{
glyphname = endash;
lastChange = "2021-10-11 16:56:20 +0000";
layers = (
{
layerId = "0A901A10-6B10-40AA-AC10-6ECA400C9626";
paths = (
{
closed = 1;
nodes = (
"635 350 LINE",
"635 381 LINE",
"20 381 LINE",
"20 350 LINE"
);
}
);
width = 655;
},
{
layerId = "88F21F75-214F-41EE-AE9C-B4AA79D6697C";
paths = (
{
closed = 1;
nodes = (
"635 282 LINE",
"635 432 LINE",
"20 432 LINE",
"20 282 LINE"
);
}
);
width = 655;
}
);
unicode = 2013;
},
{
glyphname = emdash;
lastChange = "2021-10-06 21:26:51 +0000";
layers = (
{
layerId = "0A901A10-6B10-40AA-AC10-6ECA400C9626";
paths = (
{
closed = 1;
nodes = (
"797 344 LINE",
"797 370 LINE",
"20 370 LINE",
"20 344 LINE"
);
}
);
width = 817;
},
{
layerId = "88F21F75-214F-41EE-AE9C-B4AA79D6697C";
paths = (
{
closed = 1;
nodes = (
"797 282 LINE",
"797 432 LINE",
"20 432 LINE",
"20 282 LINE"
);
}
);
width = 817;
}
);
unicode = 2014;
},
{
glyphname = underscore;
lastChange = "2022-05-26 23:38:48 +0000";
layers = (
{
hints = (
{
horizontal = 1;
place = "{0, 28}";
type = Stem;
},
{
place = "{20, 360}";
type = Stem;
}
);
layerId = "0A901A10-6B10-40AA-AC10-6ECA400C9626";
paths = (
{
closed = 1;
nodes = (
"380 0 LINE",
"380 28 LINE",
"20 28 LINE",
"20 0 LINE"
);
}
);
width = 400;
},
{
hints = (
{
horizontal = 1;
place = "{0, 130}";
type = Stem;
},
{
place = "{20, 455}";
type = Stem;
}
);
layerId = "88F21F75-214F-41EE-AE9C-B4AA79D6697C";
paths = (
{
closed = 1;
nodes = (
"475 0 LINE",
"475 130 LINE",
"20 130 LINE",
"20 0 LINE"
);
}
);
width = 495;
}
);
note = ltr95;
unicode = 005F;
},
{
glyphname = parenleft;
lastChange = "2021-10-06 16:17:54 +0000";
layers = (
{
hints = (
{
horizontal = 1;
place = "{-87, 767}";
type = Stem;
},
{
place = "{20, 31}";
type = Stem;
}
);
layerId = "0A901A10-6B10-40AA-AC10-6ECA400C9626";
paths = (
{
closed = 1;
nodes = (
"162 -87 LINE",
"92 29 OFFCURVE",
"51 160 OFFCURVE",
"51 297 CURVE SMOOTH",
"51 435 OFFCURVE",
"92 565 OFFCURVE",
"161 680 CURVE",
"130 680 LINE",
"61 564 OFFCURVE",
"20 433 OFFCURVE",
"20 297 CURVE SMOOTH",
"20 161 OFFCURVE",
"61 29 OFFCURVE",
"131 -87 CURVE"
);
}
);
width = 172;
},
{
hints = (
{
horizontal = 1;
place = "{-76, 769}";
type = Stem;
},
{
place = "{20, 154}";
type = Stem;
}
);
layerId = "88F21F75-214F-41EE-AE9C-B4AA79D6697C";
paths = (
{
closed = 1;
nodes = (
"320 -76 LINE",
"231 50 OFFCURVE",
"173 174 OFFCURVE",
"173 309 CURVE SMOOTH",
"173 444 OFFCURVE",
"231 567 OFFCURVE",
"319 693 CURVE",
"148 693 LINE",
"63 567 OFFCURVE",
"20 440 OFFCURVE",
"20 309 CURVE SMOOTH",
"20 178 OFFCURVE",
"63 51 OFFCURVE",
"148 -76 CURVE"
);
}
);
width = 330;
}
);
note = parenleft;
unicode = 0028;
},
{
glyphname = parenright;
lastChange = "2021-10-06 16:17:52 +0000";
layers = (
{
hints = (
{
horizontal = 1;
place = "{-87, 767}";
type = Stem;
},
{
place = "{121, 31}";
type = Stem;
}
);
layerId = "0A901A10-6B10-40AA-AC10-6ECA400C9626";
paths = (
{
closed = 1;
nodes = (
"41 -87 LINE",
"110 29 OFFCURVE",
"152 161 OFFCURVE",
"152 297 CURVE SMOOTH",
"152 433 OFFCURVE",
"111 564 OFFCURVE",
"41 680 CURVE",
"11 680 LINE",
"80 565 OFFCURVE",
"121 435 OFFCURVE",
"121 297 CURVE SMOOTH",
"121 160 OFFCURVE",
"79 29 OFFCURVE",
"10 -87 CURVE"
);
}
);
width = 172;
},
{
hints = (
{
horizontal = 1;
place = "{-77, 769}";
type = Stem;
},
{
place = "{157, 153}";
type = Stem;
}
);
layerId = "88F21F75-214F-41EE-AE9C-B4AA79D6697C";
paths = (
{
closed = 1;
nodes = (
"182 -77 LINE",
"267 50 OFFCURVE",
"310 177 OFFCURVE",
"310 308 CURVE SMOOTH",
"310 439 OFFCURVE",
"268 566 OFFCURVE",
"182 692 CURVE",
"11 692 LINE",
"108 556 OFFCURVE",
"158 433 OFFCURVE",
"158 309 CURVE SMOOTH",
"158 174 OFFCURVE",
"99 49 OFFCURVE",
"10 -77 CURVE"
);
}
);
width = 330;
}
);
note = parenright;
unicode = 0029;
},
{
glyphname = braceleft;
lastChange = "2021-10-06 15:00:21 +0000";
layers = (
{
hints = (
{
place = "{-170, 28}";
type = Stem;
},
{
place = "{40, 39}";
type = Stem;
},
{
place = "{109, 28}";
type = Stem;
},
{
place = "{240, 28}";
type = Stem;
},
{
place = "{650, 28}";
type = Stem;
}
);
layerId = "0A901A10-6B10-40AA-AC10-6ECA400C9626";
paths = (
{
closed = 1;
nodes = (
"216 -142 LINE",
"172 -142 OFFCURVE",
"137 -109 OFFCURVE",
"137 -67 CURVE SMOOTH",
"137 63 LINE SMOOTH",
"137 117 OFFCURVE",
"125 216 OFFCURVE",
"79 254 CURVE",
"125 291 OFFCURVE",
"137 390 OFFCURVE",
"137 444 CURVE SMOOTH",
"137 574 LINE SMOOTH",
"137 616 OFFCURVE",
"172 650 OFFCURVE",
"216 650 CURVE",
"216 678 LINE",
"157 678 OFFCURVE",
"109 631 OFFCURVE",
"109 574 CURVE SMOOTH",
"109 444 LINE SMOOTH",
"109 407 OFFCURVE",
"97 268 OFFCURVE",
"40 268 CURVE",
"40 240 LINE",
"97 240 OFFCURVE",
"109 100 OFFCURVE",
"109 63 CURVE SMOOTH",
"109 -67 LINE SMOOTH",
"109 -124 OFFCURVE",
"157 -170 OFFCURVE",
"216 -170 CURVE"
);
}
);
width = 216;
},
{
hints = (
{
horizontal = 1;
place = "{185, 150}";
type = Stem;
},
{
place = "{96, 150}";
type = Stem;
},
{
horizontal = 1;
place = "{-162, 843}";
type = Stem;
},
{
horizontal = 1;
place = "{-162, 150}";
type = Stem;
},
{
horizontal = 1;
place = "{531, 150}";
type = Stem;
}
);
layerId = "88F21F75-214F-41EE-AE9C-B4AA79D6697C";
paths = (
{
closed = 1;
nodes = (
"285 -12 LINE",
"264 -12 OFFCURVE",
"246 8 OFFCURVE",
"246 33 CURVE SMOOTH",
"246 98 LINE SMOOTH",
"246 155 OFFCURVE",
"242 212 OFFCURVE",
"208 260 CURVE",
"242 307 OFFCURVE",
"246 364 OFFCURVE",
"246 421 CURVE SMOOTH",
"246 487 LINE SMOOTH",
"246 511 OFFCURVE",
"264 531 OFFCURVE",
"285 531 CURVE",
"285 681 LINE",
"181 681 OFFCURVE",
"96 594 OFFCURVE",
"96 487 CURVE SMOOTH",
"96 421 LINE SMOOTH",
"96 363 OFFCURVE",
"100 335 OFFCURVE",
"40 335 CURVE",
"40 185 LINE",
"98 185 OFFCURVE",
"96 156 OFFCURVE",
"96 98 CURVE SMOOTH",
"96 33 LINE SMOOTH",
"96 -75 OFFCURVE",
"181 -162 OFFCURVE",
"285 -162 CURVE"
);
}
);
width = 285;
}
);
note = braceleft;
unicode = 007B;
},
{
glyphname = braceright;
lastChange = "2021-10-06 15:00:21 +0000";
layers = (
{
hints = (
{
place = "{-170, 28}";
type = Stem;
},
{
place = "{79, 28}";
type = Stem;
},
{
place = "{137, 39}";
type = Stem;
},
{
place = "{240, 28}";
type = Stem;
},
{
place = "{650, 28}";
type = Stem;
}
);
layerId = "0A901A10-6B10-40AA-AC10-6ECA400C9626";
paths = (
{
closed = 1;
nodes = (
"59 -170 OFFCURVE",
"107 -124 OFFCURVE",
"107 -67 CURVE SMOOTH",
"107 63 LINE SMOOTH",
"107 100 OFFCURVE",
"119 240 OFFCURVE",
"176 240 CURVE",
"176 268 LINE",
"119 268 OFFCURVE",
"107 407 OFFCURVE",
"107 444 CURVE SMOOTH",
"107 574 LINE SMOOTH",
"107 631 OFFCURVE",
"59 678 OFFCURVE",
"0 678 CURVE",
"0 650 LINE",
"43 650 OFFCURVE",
"79 616 OFFCURVE",
"79 574 CURVE SMOOTH",
"79 444 LINE SMOOTH",
"79 390 OFFCURVE",
"91 291 OFFCURVE",
"137 254 CURVE",
"91 216 OFFCURVE",
"79 117 OFFCURVE",
"79 63 CURVE SMOOTH",
"79 -67 LINE SMOOTH",
"79 -109 OFFCURVE",
"43 -142 OFFCURVE",
"0 -142 CURVE",
"0 -170 LINE"
);
}
);
width = 216;
},
{
hints = (
{
horizontal = 1;
place = "{-160, 150}";
type = Stem;
},
{
horizontal = 1;
place = "{187, 150}";
type = Stem;
},
{
place = "{38, 150}";
type = Stem;
},
{
horizontal = 1;
place = "{-160, 843}";
type = Stem;
},
{
horizontal = 1;
place = "{533, 150}";
type = Stem;
}
);
layerId = "88F21F75-214F-41EE-AE9C-B4AA79D6697C";
paths = (
{
closed = 1;
nodes = (
"104 -160 OFFCURVE",
"188 -73 OFFCURVE",
"188 35 CURVE SMOOTH",
"188 100 LINE SMOOTH",
"188 158 OFFCURVE",
"187 187 OFFCURVE",
"245 187 CURVE",
"245 337 LINE",
"187 337 OFFCURVE",
"188 365 OFFCURVE",
"188 423 CURVE SMOOTH",
"188 489 LINE SMOOTH",
"188 596 OFFCURVE",
"104 683 OFFCURVE",
"0 683 CURVE",
"0 533 LINE",
"21 533 OFFCURVE",
"38 513 OFFCURVE",
"38 489 CURVE SMOOTH",
"38 423 LINE SMOOTH",
"38 366 OFFCURVE",
"43 309 OFFCURVE",
"77 262 CURVE",
"43 214 OFFCURVE",
"38 157 OFFCURVE",
"38 100 CURVE SMOOTH",
"38 35 LINE SMOOTH",
"38 10 OFFCURVE",
"21 -10 OFFCURVE",
"0 -10 CURVE",
"0 -160 LINE"
);
}
);
width = 285;
}
);
note = braceright;
unicode = 007D;
},
{
glyphname = bracketleft;
lastChange = "2021-10-06 21:16:09 +0000";
layers = (
{
hints = (
{
horizontal = 1;
place = "{-169, 28}";
type = Stem;
},
{
horizontal = 1;
place = "{651, 28}";
type = Stem;
},
{
place = "{50, 28}";
type = Stem;
}
);
layerId = "0A901A10-6B10-40AA-AC10-6ECA400C9626";
paths = (
{
closed = 1;
nodes = (
"199 -129 LINE",
"199 -101 LINE",
"78 -101 LINE",
"78 724 LINE",
"199 724 LINE",
"199 752 LINE",
"50 752 LINE",
"50 -129 LINE"
);
}
);
width = 199;
},
{
hints = (
{
horizontal = 1;
place = "{-160, 150}";
type = Stem;
},
{
horizontal = 1;
place = "{533, 150}";
type = Stem;
},
{
place = "{50, 150}";
type = Stem;
}
);
layerId = "88F21F75-214F-41EE-AE9C-B4AA79D6697C";
paths = (
{
closed = 1;
nodes = (
"289 -160 LINE",
"289 -10 LINE",
"200 -10 LINE",
"200 632 LINE",
"289 632 LINE",
"289 782 LINE",
"50 782 LINE",
"50 -160 LINE"
);
}
);
width = 289;
}
);
note = bracketleft;
unicode = 005B;
},
{
glyphname = bracketright;
lastChange = "2021-10-06 21:16:04 +0000";
layers = (
{
hints = (
{
horizontal = 1;
place = "{-169, 28}";
type = Stem;
},
{
horizontal = 1;
place = "{651, 28}";
type = Stem;
},
{
place = "{121, 28}";
type = Stem;
}
);
layerId = "0A901A10-6B10-40AA-AC10-6ECA400C9626";
paths = (
{
closed = 1;
nodes = (
"149 -129 LINE",
"149 752 LINE",
"0 752 LINE",
"0 724 LINE",
"121 724 LINE",
"121 -101 LINE",
"0 -101 LINE",
"0 -129 LINE"
);
}
);
width = 199;
},
{
hints = (
{
horizontal = 1;
place = "{-160, 150}";
type = Stem;
},
{
horizontal = 1;
place = "{533, 150}";
type = Stem;
},
{
place = "{89, 150}";
type = Stem;
}
);
layerId = "88F21F75-214F-41EE-AE9C-B4AA79D6697C";
paths = (
{
closed = 1;
nodes = (
"239 -160 LINE",
"239 782 LINE",
"0 782 LINE",
"0 632 LINE",
"89 632 LINE",
"89 -10 LINE",
"0 -10 LINE",
"0 -160 LINE"
);
}
);
width = 289;
}
);
note = bracketright;
unicode = 005D;
},
{
glyphname = guillemetleft;
lastChange = "2021-12-09 14:01:25 +0000";
layers = (
{
layerId = "0A901A10-6B10-40AA-AC10-6ECA400C9626";
paths = (
{
closed = 1;
nodes = (
"415 67 LINE",
"235 258 LINE",
"415 449 LINE",
"415 487 LINE",
"206 267 LINE",
"206 249 LINE",
"415 29 LINE"
);
},
{
closed = 1;
nodes = (
"239 67 LINE",
"59 258 LINE",
"239 449 LINE",
"239 487 LINE",
"30 267 LINE",
"30 249 LINE",
"239 29 LINE"
);
}
);
width = 435;
},
{
layerId = "88F21F75-214F-41EE-AE9C-B4AA79D6697C";
paths = (
{
closed = 1;
nodes = (
"449 189 LINE",
"381 258 LINE",
"449 327 LINE",
"449 487 LINE",
"240 267 LINE",
"240 249 LINE",
"449 29 LINE"
);
},
{
closed = 1;
nodes = (
"229 189 LINE",
"161 258 LINE",
"229 327 LINE",
"229 487 LINE",
"20 267 LINE",
"20 249 LINE",
"229 29 LINE"
);
}
);
width = 479;
}
);
unicode = 00AB;
},
{
glyphname = guillemetright;
lastChange = "2021-12-09 14:01:08 +0000";
layers = (
{
layerId = "0A901A10-6B10-40AA-AC10-6ECA400C9626";
paths = (
{
closed = 1;
nodes = (
"405 249 LINE",
"405 267 LINE",
"196 487 LINE",
"196 449 LINE",
"376 258 LINE",
"196 67 LINE",
"196 29 LINE"
);
},
{
closed = 1;
nodes = (
"229 249 LINE",
"229 267 LINE",
"20 487 LINE",
"20 449 LINE",
"200 258 LINE",
"20 67 LINE",
"20 29 LINE"
);
}
);
width = 435;
},
{
layerId = "88F21F75-214F-41EE-AE9C-B4AA79D6697C";
paths = (
{
closed = 1;
nodes = (
"459 249 LINE",
"459 267 LINE",
"250 487 LINE",
"250 327 LINE",
"318 258 LINE",
"250 189 LINE",
"250 29 LINE"
);
},
{
closed = 1;
nodes = (
"239 249 LINE",
"239 267 LINE",
"30 487 LINE",
"30 327 LINE",
"98 258 LINE",
"30 189 LINE",
"30 29 LINE"
);
}
);
width = 479;
}
);
unicode = 00BB;
},
{
glyphname = guilsinglleft;
lastChange = "2021-12-09 14:00:39 +0000";
layers = (
{
layerId = "0A901A10-6B10-40AA-AC10-6ECA400C9626";
paths = (
{
closed = 1;
nodes = (
"239 67 LINE",
"59 258 LINE",
"239 449 LINE",
"239 487 LINE",
"30 267 LINE",
"30 249 LINE",
"239 29 LINE"
);
}
);
width = 259;
},
{
layerId = "88F21F75-214F-41EE-AE9C-B4AA79D6697C";
paths = (
{
closed = 1;
nodes = (
"229 189 LINE",
"161 258 LINE",
"229 327 LINE",
"229 487 LINE",
"20 267 LINE",
"20 249 LINE",
"229 29 LINE"
);
}
);
width = 259;
}
);
unicode = 2039;
},
{
glyphname = guilsinglright;
lastChange = "2021-12-09 14:00:51 +0000";
layers = (
{
layerId = "0A901A10-6B10-40AA-AC10-6ECA400C9626";
paths = (
{
closed = 1;
nodes = (
"229 249 LINE",
"229 267 LINE",
"20 487 LINE",
"20 449 LINE",
"200 258 LINE",
"20 67 LINE",
"20 29 LINE"
);
}
);
width = 259;
},
{
layerId = "88F21F75-214F-41EE-AE9C-B4AA79D6697C";
paths = (
{
closed = 1;
nodes = (
"239 249 LINE",
"239 267 LINE",
"30 487 LINE",
"30 327 LINE",
"98 258 LINE",
"30 189 LINE",
"30 29 LINE"
);
}
);
width = 259;
}
);
unicode = 203A;
},
{
glyphname = quotedbl;
lastChange = "2021-11-09 13:34:12 +0000";
layers = (
{
hints = (
{
horizontal = 1;
place = "{411, 164}";
type = Stem;
},
{
place = "{84, 28}";
type = Stem;
},
{
place = "{160, 28}";
type = Stem;
}
);
layerId = "0A901A10-6B10-40AA-AC10-6ECA400C9626";
paths = (
{
closed = 1;
nodes = (
"100 516 LINE",
"110 680 LINE",
"80 680 LINE",
"89 516 LINE"
);
},
{
closed = 1;
nodes = (
"51 516 LINE",
"60 680 LINE",
"30 680 LINE",
"40 516 LINE"
);
}
);
width = 150;
},
{
hints = (
{
horizontal = 1;
place = "{432, 203}";
type = Stem;
},
{
place = "{10, 150}";
type = Stem;
},
{
place = "{292, 150}";
type = Stem;
}
);
layerId = "88F21F75-214F-41EE-AE9C-B4AA79D6697C";
paths = (
{
closed = 1;
nodes = (
"324 410 LINE",
"358 636 LINE",
"198 636 LINE",
"228 410 LINE"
);
},
{
closed = 1;
nodes = (
"138 410 LINE",
"172 636 LINE",
"12 636 LINE",
"42 410 LINE"
);
}
);
width = 368;
}
);
note = quotedbl;
unicode = 0022;
},
{
glyphname = quotesingle;
lastChange = "2021-11-09 13:34:07 +0000";
layers = (
{
hints = (
{
horizontal = 1;
place = "{460, 164}";
type = Stem;
},
{
place = "{29, 28}";
type = Stem;
}
);
layerId = "0A901A10-6B10-40AA-AC10-6ECA400C9626";
paths = (
{
closed = 1;
nodes = (
"50 516 LINE",
"60 680 LINE",
"30 680 LINE",
"39 516 LINE"
);
}
);
width = 100;
},
{
hints = (
{
horizontal = 1;
place = "{432, 203}";
type = Stem;
},
{
place = "{10, 224}";
type = Stem;
}
);
layerId = "88F21F75-214F-41EE-AE9C-B4AA79D6697C";
paths = (
{
closed = 1;
nodes = (
"138 410 LINE",
"172 636 LINE",
"12 636 LINE",
"42 410 LINE"
);
}
);
width = 182;
}
);
note = quotesingle;
unicode = 0027;
},
{
glyphname = at;
lastChange = "2021-10-06 15:00:21 +0000";
layers = (
{
hints = (
{
horizontal = 1;
place = "{79, 28}";
type = Stem;
},
{
horizontal = 1;
place = "{150, 28}";
type = Stem;
},
{
horizontal = 1;
place = "{340, 28}";
type = Stem;
},
{
horizontal = 1;
place = "{411, 28}";
type = Stem;
},
{
place = "{30, 28}";
type = Stem;
},
{
place = "{101, 28}";
type = Stem;
},
{
place = "{291, 28}";
type = Stem;
},
{
place = "{362, 28}";
type = Stem;
}
);
layerId = "0A901A10-6B10-40AA-AC10-6ECA400C9626";
paths = (
{
closed = 1;
nodes = (
"230 79 OFFCURVE",
"249 82 OFFCURVE",
"267 88 CURVE",
"258 115 LINE",
"242 109 OFFCURVE",
"225 107 OFFCURVE",
"209 107 CURVE SMOOTH",
"125 107 OFFCURVE",
"58 177 OFFCURVE",
"58 260 CURVE SMOOTH",
"58 343 OFFCURVE",
"127 411 OFFCURVE",
"210 411 CURVE SMOOTH",
"292 411 OFFCURVE",
"362 343 OFFCURVE",
"362 261 CURVE SMOOTH",
"362 224 OFFCURVE",
"347 178 OFFCURVE",
"330 178 CURVE SMOOTH",
"324 178 OFFCURVE",
"319 183 OFFCURVE",
"319 189 CURVE SMOOTH",
"319 259 LINE SMOOTH",
"319 319 OFFCURVE",
"270 368 OFFCURVE",
"210 368 CURVE SMOOTH",
"150 368 OFFCURVE",
"101 319 OFFCURVE",
"101 259 CURVE SMOOTH",
"101 199 OFFCURVE",
"150 150 OFFCURVE",
"210 150 CURVE SMOOTH",
"242 150 OFFCURVE",
"271 164 OFFCURVE",
"291 186 CURVE",
"292 166 OFFCURVE",
"309 150 OFFCURVE",
"330 150 CURVE SMOOTH",
"368 150 OFFCURVE",
"390 213 OFFCURVE",
"390 262 CURVE SMOOTH",
"390 359 OFFCURVE",
"307 439 OFFCURVE",
"210 439 CURVE SMOOTH",
"112 439 OFFCURVE",
"30 359 OFFCURVE",
"30 260 CURVE SMOOTH",
"30 162 OFFCURVE",
"109 79 OFFCURVE",
"208 79 CURVE SMOOTH"
);
},
{
closed = 1;
nodes = (
"165 178 OFFCURVE",
"129 214 OFFCURVE",
"129 259 CURVE SMOOTH",
"129 304 OFFCURVE",
"165 340 OFFCURVE",
"210 340 CURVE SMOOTH",
"255 340 OFFCURVE",
"291 304 OFFCURVE",
"291 259 CURVE SMOOTH",
"291 214 OFFCURVE",
"255 178 OFFCURVE",
"210 178 CURVE SMOOTH"
);
}
);
width = 420;
},
{
hints = (
{
horizontal = 1;
place = "{79, 70}";
type = Stem;
},
{
horizontal = 1;
place = "{165, 70}";
type = Stem;
},
{
horizontal = 1;
place = "{283, 70}";
type = Stem;
},
{
horizontal = 1;
place = "{369, 70}";
type = Stem;
},
{
place = "{30, 70}";
type = Stem;
},
{
place = "{116, 70}";
type = Stem;
},
{
place = "{234, 70}";
type = Stem;
},
{
place = "{320, 70}";
type = Stem;
},
{
horizontal = 1;
place = "{168, 70}";
type = Stem;
}
);
layerId = "88F21F75-214F-41EE-AE9C-B4AA79D6697C";
paths = (
{
closed = 1;
nodes = (
"237 79 OFFCURVE",
"264 85 OFFCURVE",
"288 97 CURVE",
"258 160 LINE",
"242 152 OFFCURVE",
"226 149 OFFCURVE",
"210 149 CURVE SMOOTH",
"149 149 OFFCURVE",
"100 199 OFFCURVE",
"100 259 CURVE SMOOTH",
"100 319 OFFCURVE",
"148 369 OFFCURVE",
"209 369 CURVE SMOOTH",
"270 369 OFFCURVE",
"320 320 OFFCURVE",
"320 260 CURVE SMOOTH",
"320 246 OFFCURVE",
"318 238 OFFCURVE",
"312 238 CURVE SMOOTH",
"307 238 OFFCURVE",
"304 241 OFFCURVE",
"304 245 CURVE SMOOTH",
"304 259 LINE SMOOTH",
"304 311 OFFCURVE",
"262 353 OFFCURVE",
"210 353 CURVE SMOOTH",
"158 353 OFFCURVE",
"116 311 OFFCURVE",
"116 259 CURVE SMOOTH",
"116 207 OFFCURVE",
"158 165 OFFCURVE",
"210 165 CURVE SMOOTH",
"231 165 OFFCURVE",
"250 172 OFFCURVE",
"265 183 CURVE",
"278 173 OFFCURVE",
"294 168 OFFCURVE",
"313 168 CURVE SMOOTH",
"365 168 OFFCURVE",
"390 212 OFFCURVE",
"390 260 CURVE SMOOTH",
"390 359 OFFCURVE",
"307 439 OFFCURVE",
"209 439 CURVE SMOOTH",
"110 439 OFFCURVE",
"30 357 OFFCURVE",
"30 259 CURVE SMOOTH",
"30 161 OFFCURVE",
"109 79 OFFCURVE",
"208 79 CURVE SMOOTH"
);
},
{
closed = 1;
nodes = (
"197 235 OFFCURVE",
"186 246 OFFCURVE",
"186 259 CURVE SMOOTH",
"186 272 OFFCURVE",
"197 283 OFFCURVE",
"210 283 CURVE SMOOTH",
"223 283 OFFCURVE",
"234 272 OFFCURVE",
"234 259 CURVE SMOOTH",
"234 246 OFFCURVE",
"223 235 OFFCURVE",
"210 235 CURVE SMOOTH"
);
}
);
width = 420;
}
);
note = at;
unicode = 0040;
},
{
glyphname = ampersand;
lastChange = "2021-10-11 16:28:48 +0000";
layers = (
{
hints = (
{
horizontal = 1;
place = "{0, 28}";
type = Stem;
},
{
horizontal = 1;
place = "{575, 28}";
type = Stem;
},
{
place = "{20, 28}";
type = Stem;
},
{
place = "{64, 28}";
type = Stem;
},
{
place = "{289, 28}";
type = Stem;
}
);
layerId = "0A901A10-6B10-40AA-AC10-6ECA400C9626";
paths = (
{
closed = 1;
nodes = (
"401 0 OFFCURVE",
"458 156 OFFCURVE",
"478 232 CURVE",
"449 232 LINE",
"429 168 OFFCURVE",
"385 28 OFFCURVE",
"218 28 CURVE SMOOTH",
"129 28 OFFCURVE",
"48 92 OFFCURVE",
"48 182 CURVE SMOOTH",
"48 241 OFFCURVE",
"82 294 OFFCURVE",
"143 334 CURVE",
"457 0 LINE",
"495 0 LINE",
"141 377 LINE SMOOTH",
"129 389 OFFCURVE",
"92 429 OFFCURVE",
"92 478 CURVE SMOOTH",
"92 530 OFFCURVE",
"135 575 OFFCURVE",
"191 575 CURVE SMOOTH",
"247 575 OFFCURVE",
"289 530 OFFCURVE",
"289 471 CURVE",
"317 471 LINE",
"317 543 OFFCURVE",
"265 603 OFFCURVE",
"192 603 CURVE SMOOTH",
"120 603 OFFCURVE",
"64 545 OFFCURVE",
"64 477 CURVE SMOOTH",
"64 420 OFFCURVE",
"104 375 OFFCURVE",
"123 355 CURVE",
"65 316 OFFCURVE",
"20 256 OFFCURVE",
"20 183 CURVE SMOOTH",
"20 77 OFFCURVE",
"114 0 OFFCURVE",
"218 0 CURVE SMOOTH"
);
}
);
width = 515;
},
{
hints = (
{
horizontal = 1;
place = "{0, 124}";
type = Stem;
},
{
horizontal = 1;
place = "{444, 159}";
type = Stem;
},
{
horizontal = 1;
place = "{124, 155}";
type = Stem;
},
{
horizontal = 1;
place = "{483, 120}";
type = Stem;
},
{
place = "{30, 120}";
type = Stem;
},
{
place = "{368, 0}";
type = Stem;
},
{
place = "{405, 120}";
type = Stem;
},
{
place = "{64, 120}";
type = Stem;
}
);
layerId = "88F21F75-214F-41EE-AE9C-B4AA79D6697C";
paths = (
{
closed = 1;
nodes = (
"378 0 OFFCURVE",
"507 110 OFFCURVE",
"507 289 CURVE",
"387 289 LINE",
"387 192 OFFCURVE",
"323 120 OFFCURVE",
"241 120 CURVE SMOOTH",
"188 120 OFFCURVE",
"150 150 OFFCURVE",
"150 193 CURVE SMOOTH",
"150 215 OFFCURVE",
"161 236 OFFCURVE",
"181 255 CURVE",
"417 0 LINE",
"581 0 LINE",
"211 399 LINE SMOOTH",
"189 422 OFFCURVE",
"184 433 OFFCURVE",
"184 446 CURVE SMOOTH",
"184 467 OFFCURVE",
"199 483 OFFCURVE",
"219 483 CURVE SMOOTH",
"239 483 OFFCURVE",
"253 466 OFFCURVE",
"253 444 CURVE",
"373 444 LINE",
"373 533 OFFCURVE",
"305 603 OFFCURVE",
"219 603 CURVE SMOOTH",
"134 603 OFFCURVE",
"64 533 OFFCURVE",
"64 446 CURVE SMOOTH",
"64 412 OFFCURVE",
"75 380 OFFCURVE",
"100 344 CURVE",
"55 301 OFFCURVE",
"30 247 OFFCURVE",
"30 192 CURVE SMOOTH",
"30 83 OFFCURVE",
"121 0 OFFCURVE",
"240 0 CURVE SMOOTH"
);
}
);
width = 611;
}
);
note = ampersand;
unicode = 0026;
},
{
glyphname = paragraph;
lastChange = "2021-10-06 16:14:43 +0000";
layers = (
{
layerId = "0A901A10-6B10-40AA-AC10-6ECA400C9626";
leftMetricsKey = "=|P";
paths = (
{
closed = 1;
nodes = (
"311 -100 LINE",
"311 683 LINE",
"236 683 LINE SMOOTH",
"103 683 OFFCURVE",
"20 613 OFFCURVE",
"20 499 CURVE SMOOTH",
"20 384 OFFCURVE",
"105 309 OFFCURVE",
"236 309 CURVE SMOOTH",
"283 309 LINE",
"283 -100 LINE"
);
},
{
closed = 1;
nodes = (
"369 -100 LINE",
"369 683 LINE",
"341 683 LINE",
"341 -100 LINE"
);
}
);
width = 419;
},
{
layerId = "88F21F75-214F-41EE-AE9C-B4AA79D6697C";
leftMetricsKey = "=|P";
paths = (
{
closed = 1;
nodes = (
"453 -100 LINE",
"453 680 LINE",
"262 680 LINE SMOOTH",
"101 680 OFFCURVE",
"10 599 OFFCURVE",
"10 453 CURVE SMOOTH",
"10 304 OFFCURVE",
"103 236 OFFCURVE",
"262 236 CURVE SMOOTH",
"293 236 LINE",
"293 -100 LINE"
);
},
{
closed = 1;
nodes = (
"673 -103 LINE",
"673 680 LINE",
"513 680 LINE",
"513 -103 LINE"
);
}
);
width = 723;
}
);
rightMetricsKey = N;
unicode = 00B6;
},
{
glyphname = section;
lastChange = "2021-12-09 13:53:41 +0000";
layers = (
{
layerId = "0A901A10-6B10-40AA-AC10-6ECA400C9626";
paths = (
{
closed = 1;
nodes = (
"333 -102 OFFCURVE",
"406 -45 OFFCURVE",
"406 33 CURVE SMOOTH",
"406 101 OFFCURVE",
"375 142 OFFCURVE",
"272 172 CURVE",
"362 190 OFFCURVE",
"406 237 OFFCURVE",
"406 297 CURVE SMOOTH",
"406 381 OFFCURVE",
"359 424 OFFCURVE",
"227 455 CURVE SMOOTH",
"114 482 OFFCURVE",
"77 514 OFFCURVE",
"77 567 CURVE SMOOTH",
"77 626 OFFCURVE",
"134 662 OFFCURVE",
"213 662 CURVE SMOOTH",
"307 662 OFFCURVE",
"354 620 OFFCURVE",
"364 525 CURVE",
"392 525 LINE",
"383 630 OFFCURVE",
"317 690 OFFCURVE",
"216 690 CURVE SMOOTH",
"116 690 OFFCURVE",
"49 643 OFFCURVE",
"49 567 CURVE SMOOTH",
"49 512 OFFCURVE",
"84 470 OFFCURVE",
"175 442 CURVE",
"89 423 OFFCURVE",
"49 362 OFFCURVE",
"49 303 CURVE SMOOTH",
"49 237 OFFCURVE",
"96 194 OFFCURVE",
"219 165 CURVE SMOOTH",
"340 136 OFFCURVE",
"378 102 OFFCURVE",
"378 33 CURVE SMOOTH",
"378 -31 OFFCURVE",
"318 -74 OFFCURVE",
"230 -74 CURVE SMOOTH",
"121 -74 OFFCURVE",
"71 -15 OFFCURVE",
"58 67 CURVE",
"30 67 LINE",
"46 -37 OFFCURVE",
"111 -102 OFFCURVE",
"224 -102 CURVE SMOOTH"
);
},
{
closed = 1;
nodes = (
"115 218 OFFCURVE",
"77 249 OFFCURVE",
"77 303 CURVE SMOOTH",
"77 382 OFFCURVE",
"162 435 OFFCURVE",
"239 426 CURVE",
"340 401 OFFCURVE",
"378 366 OFFCURVE",
"378 297 CURVE SMOOTH",
"378 233 OFFCURVE",
"319 190 OFFCURVE",
"227 191 CURVE"
);
}
);
width = 435;
},
{
layerId = "88F21F75-214F-41EE-AE9C-B4AA79D6697C";
paths = (
{
closed = 1;
nodes = (
"368 -28 OFFCURVE",
"459 24 OFFCURVE",
"459 126 CURVE SMOOTH",
"459 159 OFFCURVE",
"449 187 OFFCURVE",
"428 211 CURVE",
"449 233 OFFCURVE",
"462 264 OFFCURVE",
"462 301 CURVE SMOOTH",
"462 372 OFFCURVE",
"420 420 OFFCURVE",
"308 445 CURVE SMOOTH",
"220 465 OFFCURVE",
"200 476 OFFCURVE",
"200 497 CURVE SMOOTH",
"200 518 OFFCURVE",
"221 527 OFFCURVE",
"246 527 CURVE SMOOTH",
"276 527 OFFCURVE",
"295 511 OFFCURVE",
"295 488 CURVE",
"455 488 LINE",
"455 594 OFFCURVE",
"365 670 OFFCURVE",
"233 670 CURVE SMOOTH",
"124 670 OFFCURVE",
"33 618 OFFCURVE",
"33 516 CURVE SMOOTH",
"33 483 OFFCURVE",
"43 455 OFFCURVE",
"64 431 CURVE",
"43 409 OFFCURVE",
"30 378 OFFCURVE",
"30 341 CURVE SMOOTH",
"30 270 OFFCURVE",
"72 222 OFFCURVE",
"184 197 CURVE SMOOTH",
"272 177 OFFCURVE",
"292 166 OFFCURVE",
"292 145 CURVE SMOOTH",
"292 124 OFFCURVE",
"271 115 OFFCURVE",
"246 115 CURVE SMOOTH",
"216 115 OFFCURVE",
"197 131 OFFCURVE",
"197 154 CURVE",
"37 154 LINE",
"37 48 OFFCURVE",
"127 -28 OFFCURVE",
"259 -28 CURVE SMOOTH"
);
},
{
closed = 1;
nodes = (
"202 305 OFFCURVE",
"193 312 OFFCURVE",
"193 326 CURVE SMOOTH",
"193 342 OFFCURVE",
"211 351 OFFCURVE",
"240 351 CURVE",
"290 337 OFFCURVE",
"299 330 OFFCURVE",
"299 316 CURVE SMOOTH",
"299 300 OFFCURVE",
"281 291 OFFCURVE",
"252 291 CURVE"
);
}
);
width = 491;
}
);
leftMetricsKey = S;
rightMetricsKey = S;
unicode = 00A7;
},
{
glyphname = copyright;
lastChange = "2021-12-28 15:58:51 +0000";
layers = (
{
hints = (
{
horizontal = 1;
place = "{74, 28}";
type = Stem;
},
{
horizontal = 1;
place = "{143, 28}";
type = Stem;
},
{
horizontal = 1;
place = "{337, 28}";
type = Stem;
},
{
horizontal = 1;
place = "{406, 28}";
type = Stem;
},
{
place = "{30, 28}";
type = Stem;
},
{
place = "{104, 28}";
type = Stem;
},
{
place = "{362, 28}";
type = Stem;
}
);
layerId = "0A901A10-6B10-40AA-AC10-6ECA400C9626";
paths = (
{
closed = 1;
nodes = (
"254 142 OFFCURVE",
"293 166 OFFCURVE",
"311 204 CURVE",
"286 216 LINE",
"272 188 OFFCURVE",
"243 170 OFFCURVE",
"212 170 CURVE SMOOTH",
"166 170 OFFCURVE",
"129 207 OFFCURVE",
"129 253 CURVE SMOOTH",
"129 298 OFFCURVE",
"166 336 OFFCURVE",
"212 336 CURVE SMOOTH",
"244 336 OFFCURVE",
"273 317 OFFCURVE",
"287 288 CURVE",
"312 300 LINE",
"294 339 OFFCURVE",
"254 364 OFFCURVE",
"212 364 CURVE SMOOTH",
"150 364 OFFCURVE",
"101 314 OFFCURVE",
"101 253 CURVE SMOOTH",
"101 192 OFFCURVE",
"150 142 OFFCURVE",
"212 142 CURVE SMOOTH"
);
},
{
closed = 1;
nodes = (
"309 74 OFFCURVE",
"390 154 OFFCURVE",
"390 254 CURVE SMOOTH",
"390 353 OFFCURVE",
"309 434 OFFCURVE",
"210 434 CURVE SMOOTH",
"111 434 OFFCURVE",
"30 353 OFFCURVE",
"30 254 CURVE SMOOTH",
"30 154 OFFCURVE",
"111 74 OFFCURVE",
"210 74 CURVE SMOOTH"
);
},
{
closed = 1;
nodes = (
"126 102 OFFCURVE",
"58 170 OFFCURVE",
"58 254 CURVE SMOOTH",
"58 338 OFFCURVE",
"126 406 OFFCURVE",
"210 406 CURVE SMOOTH",
"294 406 OFFCURVE",
"362 338 OFFCURVE",
"362 254 CURVE SMOOTH",
"362 170 OFFCURVE",
"294 102 OFFCURVE",
"210 102 CURVE SMOOTH"
);
}
);
width = 420;
},
{
hints = (
{
horizontal = 1;
place = "{77, 70}";
type = Stem;
},
{
horizontal = 1;
place = "{162, 70}";
type = Stem;
},
{
horizontal = 1;
place = "{282, 70}";
type = Stem;
},
{
horizontal = 1;
place = "{367, 70}";
type = Stem;
},
{
place = "{30, 70}";
type = Stem;
},
{
place = "{115, 70}";
type = Stem;
},
{
place = "{320, 70}";
type = Stem;
}
);
layerId = "88F21F75-214F-41EE-AE9C-B4AA79D6697C";
paths = (
{
closed = 1;
nodes = (
"246 162 OFFCURVE",
"280 183 OFFCURVE",
"295 215 CURVE",
"233 246 LINE",
"228 237 OFFCURVE",
"220 232 OFFCURVE",
"210 232 CURVE SMOOTH",
"196 232 OFFCURVE",
"185 243 OFFCURVE",
"185 257 CURVE SMOOTH",
"185 271 OFFCURVE",
"196 282 OFFCURVE",
"210 282 CURVE SMOOTH",
"220 282 OFFCURVE",
"229 277 OFFCURVE",
"233 268 CURVE",
"296 298 LINE",
"280 331 OFFCURVE",
"247 352 OFFCURVE",
"210 352 CURVE SMOOTH",
"157 352 OFFCURVE",
"115 310 OFFCURVE",
"115 257 CURVE SMOOTH",
"115 205 OFFCURVE",
"157 162 OFFCURVE",
"210 162 CURVE SMOOTH"
);
},
{
closed = 1;
nodes = (
"309 77 OFFCURVE",
"390 158 OFFCURVE",
"390 257 CURVE SMOOTH",
"390 356 OFFCURVE",
"309 437 OFFCURVE",
"210 437 CURVE SMOOTH",
"111 437 OFFCURVE",
"30 356 OFFCURVE",
"30 257 CURVE SMOOTH",
"30 158 OFFCURVE",
"111 77 OFFCURVE",
"210 77 CURVE SMOOTH"
);
},
{
closed = 1;
nodes = (
"149 147 OFFCURVE",
"100 197 OFFCURVE",
"100 257 CURVE SMOOTH",
"100 318 OFFCURVE",
"149 367 OFFCURVE",
"210 367 CURVE SMOOTH",
"271 367 OFFCURVE",
"320 318 OFFCURVE",
"320 257 CURVE SMOOTH",
"320 197 OFFCURVE",
"271 147 OFFCURVE",
"210 147 CURVE SMOOTH"
);
}
);
width = 420;
}
);
note = copyright;
unicode = 00A9;
},
{
glyphname = registered;
lastChange = "2021-12-09 13:48:28 +0000";
layers = (
{
layerId = "0A901A10-6B10-40AA-AC10-6ECA400C9626";
paths = (
{
closed = 1;
nodes = (
"309 330 OFFCURVE",
"390 410 OFFCURVE",
"390 510 CURVE SMOOTH",
"390 609 OFFCURVE",
"309 690 OFFCURVE",
"210 690 CURVE SMOOTH",
"111 690 OFFCURVE",
"30 609 OFFCURVE",
"30 510 CURVE SMOOTH",
"30 410 OFFCURVE",
"111 330 OFFCURVE",
"210 330 CURVE SMOOTH"
);
},
{
closed = 1;
nodes = (
"287 415 LINE",
"254 485 LINE",
"223 485 LINE",
"257 415 LINE"
);
},
{
closed = 1;
nodes = (
"126 358 OFFCURVE",
"58 426 OFFCURVE",
"58 510 CURVE SMOOTH",
"58 594 OFFCURVE",
"126 662 OFFCURVE",
"210 662 CURVE SMOOTH",
"294 662 OFFCURVE",
"362 594 OFFCURVE",
"362 510 CURVE SMOOTH",
"362 426 OFFCURVE",
"294 358 OFFCURVE",
"210 358 CURVE SMOOTH"
);
},
{
closed = 1;
nodes = (
"168 415 LINE",
"168 480 LINE",
"215 480 LINE SMOOTH",
"266 480 OFFCURVE",
"301 502 OFFCURVE",
"301 547 CURVE SMOOTH",
"301 591 OFFCURVE",
"268 614 OFFCURVE",
"215 614 CURVE SMOOTH",
"140 614 LINE",
"140 415 LINE"
);
},
{
closed = 1;
nodes = (
"168 586 LINE",
"215 586 LINE SMOOTH",
"252 586 OFFCURVE",
"273 574 OFFCURVE",
"273 547 CURVE SMOOTH",
"273 519 OFFCURVE",
"249 508 OFFCURVE",
"215 508 CURVE SMOOTH",
"168 508 LINE"
);
}
);
width = 420;
},
{
layerId = "88F21F75-214F-41EE-AE9C-B4AA79D6697C";
paths = (
{
closed = 1;
nodes = (
"309 330 OFFCURVE",
"390 411 OFFCURVE",
"390 510 CURVE SMOOTH",
"390 609 OFFCURVE",
"309 690 OFFCURVE",
"210 690 CURVE SMOOTH",
"111 690 OFFCURVE",
"30 609 OFFCURVE",
"30 510 CURVE SMOOTH",
"30 411 OFFCURVE",
"111 330 OFFCURVE",
"210 330 CURVE SMOOTH"
);
},
{
closed = 1;
nodes = (
"279 443 LINE",
"251 501 LINE",
"199 501 LINE",
"226 443 LINE"
);
},
{
closed = 1;
nodes = (
"149 400 OFFCURVE",
"100 450 OFFCURVE",
"100 510 CURVE SMOOTH",
"100 571 OFFCURVE",
"149 620 OFFCURVE",
"210 620 CURVE SMOOTH",
"271 620 OFFCURVE",
"320 571 OFFCURVE",
"320 510 CURVE SMOOTH",
"320 450 OFFCURVE",
"271 400 OFFCURVE",
"210 400 CURVE SMOOTH"
);
},
{
closed = 1;
nodes = (
"199 443 LINE",
"199 491 LINE",
"228 491 LINE SMOOTH",
"260 491 OFFCURVE",
"279 504 OFFCURVE",
"279 534 CURVE SMOOTH",
"279 562 OFFCURVE",
"261 579 OFFCURVE",
"228 579 CURVE SMOOTH",
"147 579 LINE",
"147 443 LINE"
);
},
{
closed = 1;
nodes = (
"199 549 LINE",
"210 549 LINE SMOOTH",
"222 549 OFFCURVE",
"226 543 OFFCURVE",
"226 534 CURVE SMOOTH",
"226 524 OFFCURVE",
"222 518 OFFCURVE",
"210 518 CURVE SMOOTH",
"199 518 LINE"
);
}
);
width = 420;
}
);
unicode = 00AE;
},
{
glyphname = degree;
lastChange = "2021-11-30 13:43:39 +0000";
layers = (
{
layerId = "0A901A10-6B10-40AA-AC10-6ECA400C9626";
paths = (
{
closed = 1;
nodes = (
"166 502 OFFCURVE",
"208 544 OFFCURVE",
"208 596 CURVE SMOOTH",
"208 648 OFFCURVE",
"166 690 OFFCURVE",
"114 690 CURVE SMOOTH",
"62 690 OFFCURVE",
"20 648 OFFCURVE",
"20 596 CURVE SMOOTH",
"20 544 OFFCURVE",
"62 502 OFFCURVE",
"114 502 CURVE SMOOTH"
);
},
{
closed = 1;
nodes = (
"76 526 OFFCURVE",
"44 558 OFFCURVE",
"44 596 CURVE SMOOTH",
"44 634 OFFCURVE",
"76 666 OFFCURVE",
"114 666 CURVE SMOOTH",
"152 666 OFFCURVE",
"184 634 OFFCURVE",
"184 596 CURVE SMOOTH",
"184 558 OFFCURVE",
"152 526 OFFCURVE",
"114 526 CURVE SMOOTH"
);
}
);
width = 238;
},
{
layerId = "88F21F75-214F-41EE-AE9C-B4AA79D6697C";
paths = (
{
closed = 1;
nodes = (
"166 502 OFFCURVE",
"208 544 OFFCURVE",
"208 596 CURVE SMOOTH",
"208 648 OFFCURVE",
"166 690 OFFCURVE",
"114 690 CURVE SMOOTH",
"62 690 OFFCURVE",
"20 648 OFFCURVE",
"20 596 CURVE SMOOTH",
"20 544 OFFCURVE",
"62 502 OFFCURVE",
"114 502 CURVE SMOOTH"
);
},
{
closed = 1;
nodes = (
"96 563 OFFCURVE",
"81 578 OFFCURVE",
"81 596 CURVE SMOOTH",
"81 614 OFFCURVE",
"96 629 OFFCURVE",
"114 629 CURVE SMOOTH",
"132 629 OFFCURVE",
"147 614 OFFCURVE",
"147 596 CURVE SMOOTH",
"147 578 OFFCURVE",
"132 563 OFFCURVE",
"114 563 CURVE SMOOTH"
);
}
);
width = 238;
}
);
unicode = 00B0;
},
{
glyphname = bar;
lastChange = "2021-10-06 16:16:35 +0000";
layers = (
{
hints = (
{
horizontal = 1;
place = "{-172, 851}";
type = Stem;
},
{
place = "{50, 31}";
type = Stem;
}
);
layerId = "0A901A10-6B10-40AA-AC10-6ECA400C9626";
paths = (
{
closed = 1;
nodes = (
"81 -100 LINE",
"81 680 LINE",
"50 680 LINE",
"50 -100 LINE"
);
}
);
width = 131;
},
{
hints = (
{
horizontal = 1;
place = "{-164, 848}";
type = Stem;
},
{
place = "{50, 160}";
type = Stem;
}
);
layerId = "88F21F75-214F-41EE-AE9C-B4AA79D6697C";
paths = (
{
closed = 1;
nodes = (
"210 -100 LINE",
"210 680 LINE",
"50 680 LINE",
"50 -100 LINE"
);
}
);
width = 260;
}
);
leftMetricsKey = N;
note = bar;
rightMetricsKey = N;
unicode = 007C;
},
{
glyphname = brokenbar;
lastChange = "2021-10-06 16:17:24 +0000";
layers = (
{
layerId = "0A901A10-6B10-40AA-AC10-6ECA400C9626";
paths = (
{
closed = 1;
nodes = (
"81 432 LINE",
"81 680 LINE",
"50 680 LINE",
"50 432 LINE"
);
},
{
closed = 1;
nodes = (
"81 -100 LINE",
"81 148 LINE",
"50 148 LINE",
"50 -100 LINE"
);
}
);
width = 131;
},
{
layerId = "88F21F75-214F-41EE-AE9C-B4AA79D6697C";
paths = (
{
closed = 1;
nodes = (
"210 360 LINE",
"210 680 LINE",
"50 680 LINE",
"50 360 LINE"
);
},
{
closed = 1;
nodes = (
"210 -100 LINE",
"210 220 LINE",
"50 220 LINE",
"50 -100 LINE"
);
}
);
width = 260;
}
);
leftMetricsKey = N;
rightMetricsKey = N;
unicode = 00A6;
},
{
glyphname = cent;
lastChange = "2021-10-11 16:28:40 +0000";
layers = (
{
layerId = "0A901A10-6B10-40AA-AC10-6ECA400C9626";
paths = (
{
closed = 1;
nodes = (
"347 14 OFFCURVE",
"440 70 OFFCURVE",
"450 190 CURVE",
"418 190 LINE",
"408 87 OFFCURVE",
"330 42 OFFCURVE",
"244 42 CURVE SMOOTH",
"118 42 OFFCURVE",
"50 137 OFFCURVE",
"50 277 CURVE SMOOTH",
"50 418 OFFCURVE",
"119 514 OFFCURVE",
"244 514 CURVE SMOOTH",
"329 514 OFFCURVE",
"408 469 OFFCURVE",
"418 366 CURVE",
"449 366 LINE",
"439 485 OFFCURVE",
"345 542 OFFCURVE",
"244 542 CURVE SMOOTH",
"101 542 OFFCURVE",
"20 433 OFFCURVE",
"20 277 CURVE SMOOTH",
"20 121 OFFCURVE",
"101 14 OFFCURVE",
"244 14 CURVE SMOOTH"
);
},
{
closed = 1;
nodes = (
"254 -102 LINE",
"254 24 LINE",
"226 24 LINE",
"226 -102 LINE"
);
},
{
closed = 1;
nodes = (
"259 527 LINE",
"259 653 LINE",
"231 653 LINE",
"231 527 LINE"
);
}
);
width = 470;
},
{
hints = (
{
horizontal = 1;
place = "{-121, 60}";
type = Stem;
},
{
horizontal = 1;
place = "{337, 60}";
type = Stem;
},
{
place = "{230, 60}";
type = Stem;
}
);
layerId = "88F21F75-214F-41EE-AE9C-B4AA79D6697C";
paths = (
{
closed = 1;
nodes = (
"436 25 OFFCURVE",
"534 109 OFFCURVE",
"544 246 CURVE",
"376 246 LINE",
"366 203 OFFCURVE",
"333 184 OFFCURVE",
"294 184 CURVE SMOOTH",
"237 184 OFFCURVE",
"202 224 OFFCURVE",
"202 288 CURVE SMOOTH",
"202 352 OFFCURVE",
"238 394 OFFCURVE",
"294 394 CURVE SMOOTH",
"332 394 OFFCURVE",
"366 374 OFFCURVE",
"376 321 CURVE",
"544 321 LINE",
"534 468 OFFCURVE",
"434 553 OFFCURVE",
"294 553 CURVE SMOOTH",
"134 553 OFFCURVE",
"40 444 OFFCURVE",
"40 288 CURVE SMOOTH",
"40 132 OFFCURVE",
"134 25 OFFCURVE",
"294 25 CURVE SMOOTH"
);
},
{
closed = 1;
nodes = (
"372 -77 LINE",
"372 139 LINE",
"212 139 LINE",
"212 -77 LINE"
);
},
{
closed = 1;
nodes = (
"372 417 LINE",
"372 643 LINE",
"212 643 LINE",
"212 417 LINE"
);
}
);
width = 584;
}
);
leftMetricsKey = c;
rightMetricsKey = c;
unicode = 00A2;
},
{
glyphname = currency;
lastChange = "2021-12-09 13:55:45 +0000";
layers = (
{
layerId = "0A901A10-6B10-40AA-AC10-6ECA400C9626";
paths = (
{
closed = 1;
nodes = (
"322 74 OFFCURVE",
"403 154 OFFCURVE",
"403 254 CURVE SMOOTH",
"403 353 OFFCURVE",
"322 434 OFFCURVE",
"223 434 CURVE SMOOTH",
"124 434 OFFCURVE",
"43 353 OFFCURVE",
"43 254 CURVE SMOOTH",
"43 154 OFFCURVE",
"124 74 OFFCURVE",
"223 74 CURVE SMOOTH"
);
},
{
closed = 1;
nodes = (
"99 109 LINE",
"79 129 LINE",
"30 80 LINE",
"50 60 LINE"
);
},
{
closed = 1;
nodes = (
"416 80 LINE",
"367 129 LINE",
"347 109 LINE",
"396 60 LINE"
);
},
{
closed = 1;
nodes = (
"99 397 LINE",
"50 446 LINE",
"30 426 LINE",
"79 377 LINE"
);
},
{
closed = 1;
nodes = (
"139 102 OFFCURVE",
"71 170 OFFCURVE",
"71 254 CURVE SMOOTH",
"71 338 OFFCURVE",
"139 406 OFFCURVE",
"223 406 CURVE SMOOTH",
"307 406 OFFCURVE",
"375 338 OFFCURVE",
"375 254 CURVE SMOOTH",
"375 170 OFFCURVE",
"307 102 OFFCURVE",
"223 102 CURVE SMOOTH"
);
},
{
closed = 1;
nodes = (
"416 426 LINE",
"396 446 LINE",
"347 397 LINE",
"367 377 LINE"
);
}
);
width = 446;
},
{
layerId = "88F21F75-214F-41EE-AE9C-B4AA79D6697C";
paths = (
{
closed = 1;
nodes = (
"349 74 OFFCURVE",
"430 154 OFFCURVE",
"430 254 CURVE SMOOTH",
"430 353 OFFCURVE",
"349 434 OFFCURVE",
"250 434 CURVE SMOOTH",
"151 434 OFFCURVE",
"70 353 OFFCURVE",
"70 254 CURVE SMOOTH",
"70 154 OFFCURVE",
"151 74 OFFCURVE",
"250 74 CURVE SMOOTH"
);
},
{
closed = 1;
nodes = (
"156 77 LINE",
"74 159 LINE",
"30 115 LINE",
"112 33 LINE"
);
},
{
closed = 1;
nodes = (
"470 115 LINE",
"426 159 LINE",
"344 77 LINE",
"388 33 LINE"
);
},
{
closed = 1;
nodes = (
"156 429 LINE",
"112 473 LINE",
"30 391 LINE",
"74 347 LINE"
);
},
{
closed = 1;
nodes = (
"217 195 OFFCURVE",
"191 222 OFFCURVE",
"191 254 CURVE SMOOTH",
"191 286 OFFCURVE",
"217 313 OFFCURVE",
"250 313 CURVE SMOOTH",
"282 313 OFFCURVE",
"308 286 OFFCURVE",
"308 254 CURVE SMOOTH",
"308 222 OFFCURVE",
"282 195 OFFCURVE",
"250 195 CURVE SMOOTH"
);
},
{
closed = 1;
nodes = (
"470 391 LINE",
"388 473 LINE",
"344 429 LINE",
"426 347 LINE"
);
}
);
width = 500;
}
);
unicode = 00A4;
},
{
glyphname = dollar;
lastChange = "2021-10-06 15:00:21 +0000";
layers = (
{
hints = (
{
horizontal = 1;
origin = "{0, 1}";
target = "{1, 6}";
type = Stem;
},
{
horizontal = 1;
origin = "{0, 18}";
target = "{2, 5}";
type = Stem;
},
{
horizontal = 1;
origin = "{0, 8}";
target = "{0, 15}";
type = Stem;
},
{
horizontal = 1;
origin = "{0, 32}";
target = "{0, 25}";
type = Stem;
},
{
origin = "{0, 21}";
target = "{2, 2}";
type = Stem;
},
{
origin = "{0, 33}";
target = "{0, 0}";
type = Stem;
},
{
origin = "{1, 3}";
target = "{0, 4}";
type = Stem;
},
{
origin = "{0, 11}";
target = "{0, 12}";
type = Stem;
},
{
origin = "{0, 29}";
target = "{0, 28}";
type = Stem;
}
);
layerId = "0A901A10-6B10-40AA-AC10-6ECA400C9626";
paths = (
{
closed = 1;
nodes = (
"232 -85 LINE",
"232 0 LINE",
"334 0 OFFCURVE",
"406 60 OFFCURVE",
"406 144 CURVE SMOOTH",
"406 216 OFFCURVE",
"362 252 OFFCURVE",
"232 286 CURVE",
"232 489 LINE",
"313 483 OFFCURVE",
"363 433 OFFCURVE",
"363 356 CURVE",
"391 356 LINE",
"391 450 OFFCURVE",
"332 510 OFFCURVE",
"232 517 CURVE",
"232 603 LINE",
"204 603 LINE",
"204 518 LINE",
"115 518 OFFCURVE",
"48 465 OFFCURVE",
"48 395 CURVE SMOOTH",
"48 332 OFFCURVE",
"94 293 OFFCURVE",
"204 264 CURVE",
"204 29 LINE",
"116 38 OFFCURVE",
"58 92 OFFCURVE",
"58 164 CURVE",
"30 164 LINE",
"30 77 OFFCURVE",
"100 11 OFFCURVE",
"204 1 CURVE",
"204 -85 LINE"
);
},
{
closed = 1;
nodes = (
"232 257 LINE",
"337 231 OFFCURVE",
"378 200 OFFCURVE",
"378 143 CURVE SMOOTH",
"378 75 OFFCURVE",
"319 28 OFFCURVE",
"232 28 CURVE"
);
},
{
closed = 1;
nodes = (
"114 317 OFFCURVE",
"76 347 OFFCURVE",
"76 394 CURVE SMOOTH",
"76 450 OFFCURVE",
"129 490 OFFCURVE",
"204 490 CURVE",
"204 293 LINE"
);
}
);
width = 436;
},
{
hints = (
{
horizontal = 1;
place = "{-85, 688}";
type = Stem;
},
{
place = "{30, 150}";
type = Stem;
},
{
place = "{453, 160}";
type = Stem;
},
{
place = "{52, 160}";
type = Stem;
},
{
horizontal = 1;
place = "{528, 160}";
type = Stem;
},
{
place = "{436, 160}";
type = Stem;
},
{
horizontal = 1;
place = "{-5, 160}";
type = Stem;
},
{
place = "{30, 160}";
type = Stem;
}
);
layerId = "88F21F75-214F-41EE-AE9C-B4AA79D6697C";
paths = (
{
closed = 1;
nodes = (
"371 -85 LINE",
"371 -3 LINE",
"488 9 OFFCURVE",
"603 73 OFFCURVE",
"603 204 CURVE SMOOTH",
"603 340 OFFCURVE",
"480 379 OFFCURVE",
"371 405 CURVE",
"371 573 LINE",
"425 561 OFFCURVE",
"474 531 OFFCURVE",
"474 457 CURVE",
"584 457 LINE",
"584 597 OFFCURVE",
"487 667 OFFCURVE",
"371 684 CURVE",
"371 763 LINE",
"261 763 LINE",
"261 685 LINE",
"158 671 OFFCURVE",
"54 618 OFFCURVE",
"54 502 CURVE SMOOTH",
"54 385 OFFCURVE",
"161 342 OFFCURVE",
"261 317 CURVE",
"261 113 LINE",
"199 128 OFFCURVE",
"140 163 OFFCURVE",
"140 229 CURVE",
"30 229 LINE",
"30 97 OFFCURVE",
"141 22 OFFCURVE",
"261 1 CURVE",
"261 -85 LINE"
);
},
{
closed = 1;
nodes = (
"371 291 LINE",
"457 269 OFFCURVE",
"493 247 OFFCURVE",
"493 202 CURVE SMOOTH",
"493 141 OFFCURVE",
"429 116 OFFCURVE",
"371 108 CURVE"
);
},
{
closed = 1;
nodes = (
"194 451 OFFCURVE",
"164 469 OFFCURVE",
"164 501 CURVE SMOOTH",
"164 537 OFFCURVE",
"203 564 OFFCURVE",
"261 574 CURVE",
"261 431 LINE"
);
}
);
width = 632;
}
);
note = dollar;
unicode = 0024;
},
{
glyphname = euro;
lastChange = "2021-10-11 16:20:43 +0000";
layers = (
{
layerId = "0A901A10-6B10-40AA-AC10-6ECA400C9626";
paths = (
{
closed = 1;
nodes = (
"432 23 LINE",
"229 23 OFFCURVE",
"109 131 OFFCURVE",
"109 341 CURVE SMOOTH",
"109 550 OFFCURVE",
"227 660 OFFCURVE",
"439 660 CURVE",
"437 688 LINE",
"189 688 OFFCURVE",
"77 536 OFFCURVE",
"77 340 CURVE SMOOTH",
"77 141 OFFCURVE",
"192 -5 OFFCURVE",
"432 -5 CURVE"
);
},
{
closed = 1;
nodes = (
"401 270 LINE",
"401 298 LINE",
"20 298 LINE",
"20 270 LINE"
);
},
{
closed = 1;
nodes = (
"401 360 LINE",
"401 388 LINE",
"20 388 LINE",
"20 360 LINE"
);
}
);
width = 469;
},
{
layerId = "88F21F75-214F-41EE-AE9C-B4AA79D6697C";
paths = (
{
closed = 1;
nodes = (
"481 155 LINE",
"306 155 OFFCURVE",
"249 222 OFFCURVE",
"249 340 CURVE SMOOTH",
"249 457 OFFCURVE",
"306 528 OFFCURVE",
"481 528 CURVE",
"481 688 LINE",
"209 688 OFFCURVE",
"69 548 OFFCURVE",
"69 340 CURVE SMOOTH",
"69 129 OFFCURVE",
"212 -5 OFFCURVE",
"481 -5 CURVE"
);
},
{
closed = 1;
nodes = (
"422 194 LINE",
"422 314 LINE",
"10 314 LINE",
"10 194 LINE"
);
},
{
closed = 1;
nodes = (
"422 354 LINE",
"422 474 LINE",
"10 474 LINE",
"10 354 LINE"
);
}
);
width = 501;
}
);
rightMetricsKey = C;
unicode = 20AC;
},
{
glyphname = sterling;
lastChange = "2021-10-11 16:15:27 +0000";
layers = (
{
layerId = "0A901A10-6B10-40AA-AC10-6ECA400C9626";
paths = (
{
closed = 1;
nodes = (
"474 0 LINE",
"474 28 LINE",
"78 28 LINE",
"152 42 OFFCURVE",
"185 74 OFFCURVE",
"185 131 CURVE SMOOTH",
"185 573 LINE SMOOTH",
"185 618 OFFCURVE",
"223 655 OFFCURVE",
"267 655 CURVE SMOOTH",
"474 655 LINE",
"474 683 LINE",
"267 683 LINE SMOOTH",
"207 683 OFFCURVE",
"157 634 OFFCURVE",
"157 573 CURVE SMOOTH",
"157 131 LINE SMOOTH",
"157 89 OFFCURVE",
"122 49 OFFCURVE",
"50 49 CURVE",
"50 0 LINE"
);
},
{
closed = 1;
nodes = (
"434 345 LINE",
"434 373 LINE",
"79 373 LINE",
"79 345 LINE"
);
}
);
width = 493;
},
{
layerId = "88F21F75-214F-41EE-AE9C-B4AA79D6697C";
paths = (
{
closed = 1;
nodes = (
"540 0 LINE",
"540 150 LINE",
"220 150 LINE",
"254 198 OFFCURVE",
"258 255 OFFCURVE",
"258 312 CURVE SMOOTH",
"258 487 LINE SMOOTH",
"258 504 OFFCURVE",
"266 520 OFFCURVE",
"294 520 CURVE SMOOTH",
"510 520 LINE",
"510 680 LINE",
"276 680 LINE SMOOTH",
"178 680 OFFCURVE",
"98 633 OFFCURVE",
"98 502 CURVE SMOOTH",
"98 234 LINE SMOOTH",
"98 176 OFFCURVE",
"100 147 OFFCURVE",
"50 147 CURVE",
"50 0 LINE"
);
},
{
closed = 1;
nodes = (
"413 284 LINE",
"413 424 LINE",
"50 424 LINE",
"50 284 LINE"
);
}
);
width = 550;
}
);
leftMetricsKey = L;
rightMetricsKey = L;
unicode = 00A3;
},
{
glyphname = uni20AA;
lastChange = "2021-10-06 15:00:21 +0000";
layers = (
{
hints = (
{
horizontal = 1;
place = "{0, 28}";
type = Stem;
},
{
horizontal = 1;
place = "{518, 28}";
type = Stem;
},
{
place = "{20, 28}";
type = Stem;
},
{
place = "{129, 28}";
type = Stem;
},
{
place = "{237, 28}";
type = Stem;
},
{
place = "{345, 28}";
type = Stem;
}
);
layerId = "0A901A10-6B10-40AA-AC10-6ECA400C9626";
paths = (
{
closed = 1;
nodes = (
"48 0 LINE",
"48 490 LINE",
"64 490 LINE SMOOTH",
"159 490 OFFCURVE",
"237 412 OFFCURVE",
"237 317 CURVE SMOOTH",
"237 191 LINE",
"265 191 LINE",
"265 317 LINE SMOOTH",
"265 428 OFFCURVE",
"175 518 OFFCURVE",
"64 518 CURVE SMOOTH",
"20 518 LINE",
"20 0 LINE"
);
},
{
closed = 1;
nodes = (
"172 0 LINE SMOOTH",
"283 0 OFFCURVE",
"373 90 OFFCURVE",
"373 201 CURVE SMOOTH",
"373 518 LINE",
"345 518 LINE",
"345 201 LINE SMOOTH",
"345 106 OFFCURVE",
"268 28 OFFCURVE",
"172 28 CURVE SMOOTH",
"157 28 LINE",
"157 326 LINE",
"129 326 LINE",
"129 0 LINE"
);
}
);
width = 393;
},
{
layerId = "88F21F75-214F-41EE-AE9C-B4AA79D6697C";
paths = (
{
closed = 1;
nodes = (
"210 0 LINE",
"210 358 LINE",
"378 358 LINE SMOOTH",
"468 358 OFFCURVE",
"493 322 OFFCURVE",
"493 250 CURVE SMOOTH",
"493 191 LINE",
"653 191 LINE",
"653 250 LINE SMOOTH",
"653 424 OFFCURVE",
"503 518 OFFCURVE",
"343 518 CURVE SMOOTH",
"50 518 LINE",
"50 0 LINE"
);
},
{
closed = 1;
nodes = (
"607 0 LINE SMOOTH",
"775 0 OFFCURVE",
"874 100 OFFCURVE",
"874 267 CURVE SMOOTH",
"874 518 LINE",
"714 518 LINE",
"714 267 LINE SMOOTH",
"714 188 OFFCURVE",
"686 160 OFFCURVE",
"607 160 CURVE SMOOTH",
"432 160 LINE",
"432 326 LINE",
"272 326 LINE",
"272 0 LINE"
);
}
);
width = 913;
}
);
note = uni20AA;
unicode = 20AA;
},
{
glyphname = yen;
lastChange = "2021-10-11 16:17:19 +0000";
layers = (
{
hints = (
{
horizontal = 1;
place = "{0, 21}";
target = up;
type = BottomGhost;
},
{
place = "{269, 28}";
type = Stem;
}
);
layerId = "0A901A10-6B10-40AA-AC10-6ECA400C9626";
paths = (
{
closed = 1;
nodes = (
"297 0 LINE",
"297 258 LINE",
"551 683 LINE",
"518 683 LINE",
"283 289 LINE",
"48 683 LINE",
"15 683 LINE",
"269 258 LINE",
"269 0 LINE"
);
},
{
closed = 1;
nodes = (
"474 120 LINE",
"474 148 LINE",
"93 148 LINE",
"93 120 LINE"
);
},
{
closed = 1;
nodes = (
"474 210 LINE",
"474 238 LINE",
"93 238 LINE",
"93 210 LINE"
);
}
);
width = 566;
},
{
hints = (
{
horizontal = 1;
place = "{0, 21}";
target = up;
type = BottomGhost;
},
{
place = "{280, 160}";
type = Stem;
}
);
layerId = "88F21F75-214F-41EE-AE9C-B4AA79D6697C";
paths = (
{
closed = 1;
nodes = (
"440 0 LINE",
"440 239 LINE",
"705 683 LINE",
"518 683 LINE",
"360 358 LINE",
"201 683 LINE",
"15 683 LINE",
"280 239 LINE",
"280 0 LINE"
);
},
{
closed = 1;
nodes = (
"603 44 LINE",
"603 164 LINE",
"111 164 LINE",
"111 44 LINE"
);
},
{
closed = 1;
nodes = (
"603 204 LINE",
"603 324 LINE",
"111 324 LINE",
"111 204 LINE"
);
}
);
width = 720;
}
);
leftMetricsKey = Y;
rightMetricsKey = Y;
unicode = 00A5;
},
{
color = 0;
export = 0;
glyphname = dollar.bold;
lastChange = "2021-10-11 16:28:51 +0000";
layers = (
{
layerId = "0A901A10-6B10-40AA-AC10-6ECA400C9626";
width = 600;
},
{
layerId = "88F21F75-214F-41EE-AE9C-B4AA79D6697C";
paths = (
{
closed = 1;
nodes = (
"400 -86 LINE",
"400 1 LINE",
"532 23 OFFCURVE",
"613 106 OFFCURVE",
"613 218 CURVE SMOOTH",
"613 339 OFFCURVE",
"530 401 OFFCURVE",
"329 430 CURVE SMOOTH",
"238 443 OFFCURVE",
"212 453 OFFCURVE",
"212 476 CURVE SMOOTH",
"212 509 OFFCURVE",
"251 528 OFFCURVE",
"318 528 CURVE SMOOTH",
"391 528 OFFCURVE",
"436 498 OFFCURVE",
"436 448 CURVE",
"596 448 LINE",
"596 567 OFFCURVE",
"523 653 OFFCURVE",
"400 679 CURVE",
"400 762 LINE",
"240 762 LINE",
"240 680 LINE",
"122 656 OFFCURVE",
"52 584 OFFCURVE",
"52 487 CURVE SMOOTH",
"52 377 OFFCURVE",
"119 325 OFFCURVE",
"290 301 CURVE SMOOTH",
"418 283 OFFCURVE",
"453 265 OFFCURVE",
"453 218 CURVE SMOOTH",
"453 181 OFFCURVE",
"404 155 OFFCURVE",
"336 155 CURVE SMOOTH",
"254 155 OFFCURVE",
"190 191 OFFCURVE",
"190 238 CURVE",
"30 238 LINE",
"30 126 OFFCURVE",
"110 37 OFFCURVE",
"240 6 CURVE",
"240 -86 LINE"
);
}
);
width = 642;
}
);
},
{
glyphname = divisionslash;
lastChange = "2021-12-09 13:56:25 +0000";
layers = (
{
layerId = "0A901A10-6B10-40AA-AC10-6ECA400C9626";
paths = (
{
closed = 1;
nodes = (
"41 0 LINE",
"356 679 LINE",
"326 679 LINE",
"10 0 LINE"
);
}
);
width = 366;
},
{
layerId = "88F21F75-214F-41EE-AE9C-B4AA79D6697C";
paths = (
{
closed = 1;
nodes = (
"196 0 LINE",
"514 684 LINE",
"338 684 LINE",
"20 0 LINE"
);
}
);
width = 534;
}
);
unicode = 2215;
},
{
glyphname = plus;
lastChange = "2021-10-06 15:00:21 +0000";
layers = (
{
hints = (
{
horizontal = 1;
place = "{240, 28}";
type = Stem;
},
{
place = "{196, 28}";
type = Stem;
}
);
layerId = "0A901A10-6B10-40AA-AC10-6ECA400C9626";
paths = (
{
closed = 1;
nodes = (
"224 74 LINE",
"224 240 LINE",
"390 240 LINE",
"390 268 LINE",
"224 268 LINE",
"224 434 LINE",
"196 434 LINE",
"196 268 LINE",
"30 268 LINE",
"30 240 LINE",
"196 240 LINE",
"196 74 LINE"
);
}
);
width = 420;
},
{
hints = (
{
horizontal = 1;
place = "{178, 160}";
type = Stem;
},
{
place = "{150, 160}";
type = Stem;
}
);
layerId = "88F21F75-214F-41EE-AE9C-B4AA79D6697C";
paths = (
{
closed = 1;
nodes = (
"310 58 LINE",
"310 178 LINE",
"430 178 LINE",
"430 338 LINE",
"310 338 LINE",
"310 458 LINE",
"150 458 LINE",
"150 338 LINE",
"30 338 LINE",
"30 178 LINE",
"150 178 LINE",
"150 58 LINE"
);
}
);
width = 460;
}
);
note = plus;
unicode = 002B;
},
{
glyphname = minus;
lastChange = "2021-10-11 16:18:02 +0000";
layers = (
{
layerId = "0A901A10-6B10-40AA-AC10-6ECA400C9626";
paths = (
{
closed = 1;
nodes = (
"390 240 LINE",
"390 268 LINE",
"30 268 LINE",
"30 240 LINE"
);
}
);
width = 420;
},
{
layerId = "88F21F75-214F-41EE-AE9C-B4AA79D6697C";
paths = (
{
closed = 1;
nodes = (
"430 178 LINE",
"430 338 LINE",
"30 338 LINE",
"30 178 LINE"
);
}
);
width = 460;
}
);
unicode = 2212;
},
{
glyphname = multiply;
lastChange = "2021-12-27 21:26:55 +0000";
layers = (
{
layerId = "0A901A10-6B10-40AA-AC10-6ECA400C9626";
paths = (
{
closed = 1;
nodes = (
"157 234 LINE",
"274 117 LINE",
"294 137 LINE",
"177 254 LINE",
"294 371 LINE",
"274 391 LINE",
"157 274 LINE",
"40 391 LINE",
"20 371 LINE",
"137 254 LINE",
"20 137 LINE",
"40 117 LINE"
);
}
);
width = 314;
},
{
layerId = "88F21F75-214F-41EE-AE9C-B4AA79D6697C";
paths = (
{
closed = 1;
nodes = (
"228 145 LINE",
"313 60 LINE",
"426 173 LINE",
"341 258 LINE",
"426 343 LINE",
"313 456 LINE",
"228 371 LINE",
"143 456 LINE",
"30 343 LINE",
"115 258 LINE",
"30 173 LINE",
"143 60 LINE"
);
}
);
width = 456;
}
);
unicode = 00D7;
},
{
glyphname = divide;
lastChange = "2021-12-09 13:50:09 +0000";
layers = (
{
layerId = "0A901A10-6B10-40AA-AC10-6ECA400C9626";
paths = (
{
closed = 1;
nodes = (
"390 240 LINE",
"390 268 LINE",
"30 268 LINE",
"30 240 LINE"
);
},
{
closed = 1;
nodes = (
"224 74 LINE",
"224 144 LINE",
"196 144 LINE",
"196 74 LINE"
);
},
{
closed = 1;
nodes = (
"224 364 LINE",
"224 434 LINE",
"196 434 LINE",
"196 364 LINE"
);
}
);
width = 420;
},
{
layerId = "88F21F75-214F-41EE-AE9C-B4AA79D6697C";
paths = (
{
closed = 1;
nodes = (
"430 188 LINE",
"430 328 LINE",
"30 328 LINE",
"30 188 LINE"
);
},
{
closed = 1;
nodes = (
"310 20 LINE",
"310 150 LINE",
"150 150 LINE",
"150 20 LINE"
);
},
{
closed = 1;
nodes = (
"310 368 LINE",
"310 498 LINE",
"150 498 LINE",
"150 368 LINE"
);
}
);
width = 460;
}
);
unicode = 00F7;
},
{
glyphname = equal;
lastChange = "2021-10-06 15:00:21 +0000";
layers = (
{
hints = (
{
horizontal = 1;
place = "{184, 28}";
type = Stem;
},
{
horizontal = 1;
place = "{295, 28}";
type = Stem;
},
{
place = "{20, 360}";
type = Stem;
}
);
layerId = "0A901A10-6B10-40AA-AC10-6ECA400C9626";
paths = (
{
closed = 1;
nodes = (
"380 295 LINE",
"380 323 LINE",
"20 323 LINE",
"20 295 LINE"
);
},
{
closed = 1;
nodes = (
"380 184 LINE",
"380 212 LINE",
"20 212 LINE",
"20 184 LINE"
);
}
);
width = 400;
},
{
hints = (
{
horizontal = 1;
place = "{84, 160}";
type = Stem;
},
{
horizontal = 1;
place = "{275, 160}";
type = Stem;
},
{
place = "{30, 360}";
type = Stem;
}
);
layerId = "88F21F75-214F-41EE-AE9C-B4AA79D6697C";
paths = (
{
closed = 1;
nodes = (
"390 275 LINE",
"390 435 LINE",
"30 435 LINE",
"30 275 LINE"
);
},
{
closed = 1;
nodes = (
"390 84 LINE",
"390 244 LINE",
"30 244 LINE",
"30 84 LINE"
);
}
);
width = 420;
}
);
note = equal;
unicode = 003D;
},
{
glyphname = greater;
lastChange = "2021-10-06 15:00:21 +0000";
layers = (
{
hints = (
{
horizontal = 1;
place = "{129, 358}";
type = Stem;
},
{
place = "{253, 26}";
type = Stem;
}
);
layerId = "0A901A10-6B10-40AA-AC10-6ECA400C9626";
paths = (
{
closed = 1;
nodes = (
"279 291 LINE",
"279 325 LINE",
"20 487 LINE",
"20 454 LINE",
"253 308 LINE",
"20 162 LINE",
"20 129 LINE"
);
}
);
width = 309;
},
{
hints = (
{
horizontal = 1;
place = "{74, 468}";
type = Stem;
},
{
place = "{20, 259}";
type = Stem;
}
);
layerId = "88F21F75-214F-41EE-AE9C-B4AA79D6697C";
paths = (
{
closed = 1;
nodes = (
"279 237 LINE",
"279 379 LINE",
"20 542 LINE",
"20 400 LINE",
"166 308 LINE",
"20 216 LINE",
"20 74 LINE"
);
}
);
width = 309;
}
);
note = greater;
unicode = 003E;
},
{
glyphname = less;
lastChange = "2021-10-06 15:00:21 +0000";
layers = (
{
hints = (
{
horizontal = 1;
place = "{129, 358}";
type = Stem;
},
{
place = "{30, 26}";
type = Stem;
}
);
layerId = "0A901A10-6B10-40AA-AC10-6ECA400C9626";
paths = (
{
closed = 1;
nodes = (
"289 162 LINE",
"56 308 LINE",
"289 454 LINE",
"289 487 LINE",
"30 325 LINE",
"30 291 LINE",
"289 129 LINE"
);
}
);
width = 319;
},
{
hints = (
{
horizontal = 1;
place = "{74, 468}";
type = Stem;
},
{
place = "{30, 259}";
type = Stem;
}
);
layerId = "88F21F75-214F-41EE-AE9C-B4AA79D6697C";
paths = (
{
closed = 1;
nodes = (
"289 216 LINE",
"143 308 LINE",
"289 400 LINE",
"289 542 LINE",
"30 379 LINE",
"30 237 LINE",
"289 74 LINE"
);
}
);
width = 319;
}
);
note = less;
unicode = 003C;
},
{
glyphname = plusminus;
lastChange = "2021-12-09 13:50:45 +0000";
layers = (
{
layerId = "0A901A10-6B10-40AA-AC10-6ECA400C9626";
paths = (
{
closed = 1;
nodes = (
"224 248 LINE",
"224 324 LINE",
"390 324 LINE",
"390 352 LINE",
"224 352 LINE",
"224 518 LINE",
"196 518 LINE",
"196 352 LINE",
"30 352 LINE",
"30 324 LINE",
"196 324 LINE",
"196 248 LINE"
);
},
{
closed = 1;
nodes = (
"390 120 LINE",
"390 148 LINE",
"30 148 LINE",
"30 120 LINE"
);
}
);
width = 420;
},
{
layerId = "88F21F75-214F-41EE-AE9C-B4AA79D6697C";
paths = (
{
closed = 1;
nodes = (
"310 176 LINE",
"310 236 LINE",
"430 236 LINE",
"430 376 LINE",
"310 376 LINE",
"310 496 LINE",
"150 496 LINE",
"150 376 LINE",
"30 376 LINE",
"30 236 LINE",
"150 236 LINE",
"150 176 LINE"
);
},
{
closed = 1;
nodes = (
"430 20 LINE",
"430 160 LINE",
"30 160 LINE",
"30 20 LINE"
);
}
);
width = 460;
}
);
unicode = 00B1;
},
{
glyphname = asciitilde;
lastChange = "2021-10-22 15:54:27 +0000";
layers = (
{
hints = (
{
horizontal = 1;
place = "{222, 30}";
type = Stem;
},
{
horizontal = 1;
place = "{274, 30}";
type = Stem;
},
{
place = "{52, 310}";
type = Stem;
}
);
layerId = "0A901A10-6B10-40AA-AC10-6ECA400C9626";
paths = (
{
closed = 1;
nodes = (
"319 222 OFFCURVE",
"342 229 OFFCURVE",
"362 242 CURVE",
"362 279 LINE",
"344 262 OFFCURVE",
"319 252 OFFCURVE",
"297 252 CURVE SMOOTH",
"280 252 OFFCURVE",
"262 255 OFFCURVE",
"214 276 CURVE SMOOTH",
"167 297 OFFCURVE",
"140 304 OFFCURVE",
"118 304 CURVE SMOOTH",
"95 304 OFFCURVE",
"72 297 OFFCURVE",
"52 284 CURVE",
"52 246 LINE",
"71 263 OFFCURVE",
"96 274 OFFCURVE",
"118 274 CURVE SMOOTH",
"135 274 OFFCURVE",
"153 271 OFFCURVE",
"201 250 CURVE SMOOTH",
"248 229 OFFCURVE",
"275 222 OFFCURVE",
"297 222 CURVE SMOOTH"
);
}
);
width = 414;
},
{
hints = (
{
horizontal = 1;
place = "{162, 212}";
type = Stem;
},
{
place = "{20, 311}";
type = Stem;
},
{
horizontal = 1;
place = "{162, 160}";
type = Stem;
},
{
horizontal = 1;
place = "{214, 160}";
type = Stem;
}
);
layerId = "88F21F75-214F-41EE-AE9C-B4AA79D6697C";
paths = (
{
closed = 1;
nodes = (
"287 162 OFFCURVE",
"309 166 OFFCURVE",
"331 172 CURVE",
"331 344 LINE",
"313 335 OFFCURVE",
"294 329 OFFCURVE",
"270 329 CURVE SMOOTH",
"249 329 OFFCURVE",
"224 334 OFFCURVE",
"192 348 CURVE SMOOTH",
"173 356 OFFCURVE",
"129 374 OFFCURVE",
"86 374 CURVE SMOOTH",
"64 374 OFFCURVE",
"41 370 OFFCURVE",
"20 363 CURVE",
"20 192 LINE",
"40 202 OFFCURVE",
"59 208 OFFCURVE",
"82 208 CURVE SMOOTH",
"103 208 OFFCURVE",
"129 203 OFFCURVE",
"161 189 CURVE SMOOTH",
"196 174 OFFCURVE",
"232 162 OFFCURVE",
"266 162 CURVE SMOOTH"
);
}
);
width = 351;
}
);
note = asciitilde;
unicode = 007E;
},
{
glyphname = logicalnot;
lastChange = "2021-12-09 13:51:06 +0000";
layers = (
{
layerId = "0A901A10-6B10-40AA-AC10-6ECA400C9626";
paths = (
{
closed = 1;
nodes = (
"380 74 LINE",
"380 268 LINE",
"20 268 LINE",
"20 240 LINE",
"352 240 LINE",
"352 74 LINE"
);
}
);
width = 410;
},
{
layerId = "88F21F75-214F-41EE-AE9C-B4AA79D6697C";
paths = (
{
closed = 1;
nodes = (
"420 107 LINE",
"420 377 LINE",
"20 377 LINE",
"20 237 LINE",
"260 237 LINE",
"260 107 LINE"
);
}
);
width = 450;
}
);
unicode = 00AC;
},
{
glyphname = asciicircum;
lastChange = "2022-05-26 23:38:48 +0000";
layers = (
{
hints = (
{
horizontal = 1;
place = "{577, 26}";
type = Stem;
},
{
place = "{20, 359}";
type = Stem;
}
);
layerId = "0A901A10-6B10-40AA-AC10-6ECA400C9626";
paths = (
{
closed = 1;
nodes = (
"53 344 LINE",
"199 577 LINE",
"346 344 LINE",
"379 344 LINE",
"216 603 LINE",
"183 603 LINE",
"20 344 LINE"
);
}
);
width = 399;
},
{
hints = (
{
horizontal = 1;
place = "{344, 259}";
type = Stem;
},
{
place = "{20, 467}";
type = Stem;
}
);
layerId = "88F21F75-214F-41EE-AE9C-B4AA79D6697C";
paths = (
{
closed = 1;
nodes = (
"162 344 LINE",
"254 490 LINE",
"346 344 LINE",
"487 344 LINE",
"325 603 LINE",
"183 603 LINE",
"20 344 LINE"
);
}
);
width = 507;
}
);
note = ltr94;
unicode = 005E;
},
{
glyphname = micro;
lastChange = "2021-12-09 13:57:22 +0000";
layers = (
{
layerId = "0A901A10-6B10-40AA-AC10-6ECA400C9626";
paths = (
{
closed = 1;
nodes = (
"313 -5 OFFCURVE",
"378 44 OFFCURVE",
"404 129 CURVE",
"408 129 LINE",
"408 0 LINE",
"434 0 LINE",
"434 518 LINE",
"406 518 LINE",
"406 251 LINE SMOOTH",
"406 110 OFFCURVE",
"332 23 OFFCURVE",
"224 23 CURVE SMOOTH",
"131 23 OFFCURVE",
"78 81 OFFCURVE",
"78 202 CURVE SMOOTH",
"78 518 LINE",
"50 518 LINE",
"50 200 LINE SMOOTH",
"50 63 OFFCURVE",
"112 -5 OFFCURVE",
"222 -5 CURVE SMOOTH"
);
},
{
closed = 1;
nodes = (
"78 -165 LINE",
"78 518 LINE",
"50 518 LINE",
"50 -165 LINE"
);
}
);
width = 484;
},
{
layerId = "88F21F75-214F-41EE-AE9C-B4AA79D6697C";
paths = (
{
closed = 1;
nodes = (
"315 -5 OFFCURVE",
"366 33 OFFCURVE",
"395 81 CURVE",
"399 81 LINE",
"399 0 LINE",
"552 0 LINE",
"552 518 LINE",
"392 518 LINE",
"392 279 LINE SMOOTH",
"392 198 OFFCURVE",
"361 155 OFFCURVE",
"291 155 CURVE SMOOTH",
"226 155 OFFCURVE",
"200 191 OFFCURVE",
"200 272 CURVE SMOOTH",
"200 518 LINE",
"40 518 LINE",
"40 203 LINE SMOOTH",
"40 80 OFFCURVE",
"103 -5 OFFCURVE",
"232 -5 CURVE SMOOTH"
);
},
{
closed = 1;
nodes = (
"200 -218 LINE",
"200 518 LINE",
"40 518 LINE",
"40 -218 LINE"
);
}
);
width = 612;
}
);
rightMetricsKey = u;
unicode = 00B5;
},
{
color = 0;
glyphname = percent;
lastChange = "2022-05-27 01:46:22 +0000";
layers = (
{
hints = (
{
horizontal = 1;
place = "{0, 28}";
type = Stem;
},
{
horizontal = 1;
place = "{210, 28}";
type = Stem;
},
{
horizontal = 1;
place = "{280, 28}";
type = Stem;
},
{
horizontal = 1;
place = "{490, 28}";
type = Stem;
},
{
place = "{40, 28}";
type = Stem;
},
{
place = "{219, 28}";
type = Stem;
},
{
place = "{297, 28}";
type = Stem;
},
{
place = "{476, 28}";
type = Stem;
}
);
layerId = "0A901A10-6B10-40AA-AC10-6ECA400C9626";
paths = (
{
closed = 1;
nodes = (
"124 0 LINE",
"453 518 LINE",
"420 518 LINE",
"91 0 LINE"
);
},
{
closed = 1;
nodes = (
"468 0 OFFCURVE",
"504 56 OFFCURVE",
"504 119 CURVE SMOOTH",
"504 182 OFFCURVE",
"468 238 OFFCURVE",
"401 238 CURVE SMOOTH",
"333 238 OFFCURVE",
"297 182 OFFCURVE",
"297 119 CURVE SMOOTH",
"297 56 OFFCURVE",
"333 0 OFFCURVE",
"401 0 CURVE SMOOTH"
);
},
{
closed = 1;
nodes = (
"345 28 OFFCURVE",
"325 77 OFFCURVE",
"325 119 CURVE SMOOTH",
"325 161 OFFCURVE",
"345 210 OFFCURVE",
"401 210 CURVE SMOOTH",
"456 210 OFFCURVE",
"476 161 OFFCURVE",
"476 119 CURVE SMOOTH",
"476 77 OFFCURVE",
"456 28 OFFCURVE",
"401 28 CURVE SMOOTH"
);
},
{
closed = 1;
nodes = (
"211 280 OFFCURVE",
"247 336 OFFCURVE",
"247 399 CURVE SMOOTH",
"247 462 OFFCURVE",
"211 518 OFFCURVE",
"143 518 CURVE SMOOTH",
"76 518 OFFCURVE",
"40 462 OFFCURVE",
"40 399 CURVE SMOOTH",
"40 336 OFFCURVE",
"76 280 OFFCURVE",
"143 280 CURVE SMOOTH"
);
},
{
closed = 1;
nodes = (
"88 308 OFFCURVE",
"68 357 OFFCURVE",
"68 399 CURVE SMOOTH",
"68 441 OFFCURVE",
"88 490 OFFCURVE",
"143 490 CURVE SMOOTH",
"199 490 OFFCURVE",
"219 441 OFFCURVE",
"219 399 CURVE SMOOTH",
"219 357 OFFCURVE",
"199 308 OFFCURVE",
"143 308 CURVE SMOOTH"
);
}
);
width = 544;
},
{
hints = (
{
horizontal = 1;
place = "{-41, 147}";
type = Stem;
},
{
horizontal = 1;
place = "{152, 147}";
type = Stem;
},
{
horizontal = 1;
place = "{412, 147}";
type = Stem;
},
{
place = "{40, 135}";
type = Stem;
},
{
place = "{217, 135}";
type = Stem;
},
{
place = "{457, 135}";
type = Stem;
},
{
place = "{634, 135}";
type = Stem;
},
{
horizontal = 1;
place = "{219, 147}";
type = Stem;
}
);
layerId = "88F21F75-214F-41EE-AE9C-B4AA79D6697C";
paths = (
{
closed = 1;
nodes = (
"316 -20 LINE",
"671 538 LINE",
"493 538 LINE",
"138 -20 LINE"
);
},
{
closed = 1;
nodes = (
"286 219 OFFCURVE",
"352 291 OFFCURVE",
"352 389 CURVE SMOOTH",
"352 488 OFFCURVE",
"286 559 OFFCURVE",
"196 559 CURVE SMOOTH",
"106 559 OFFCURVE",
"40 488 OFFCURVE",
"40 389 CURVE SMOOTH",
"40 291 OFFCURVE",
"106 219 OFFCURVE",
"196 219 CURVE SMOOTH"
);
},
{
closed = 1;
nodes = (
"184 366 OFFCURVE",
"175 376 OFFCURVE",
"175 389 CURVE SMOOTH",
"175 402 OFFCURVE",
"184 412 OFFCURVE",
"196 412 CURVE SMOOTH",
"208 412 OFFCURVE",
"217 402 OFFCURVE",
"217 389 CURVE SMOOTH",
"217 376 OFFCURVE",
"208 366 OFFCURVE",
"196 366 CURVE SMOOTH"
);
},
{
closed = 1;
nodes = (
"703 -41 OFFCURVE",
"769 31 OFFCURVE",
"769 129 CURVE SMOOTH",
"769 228 OFFCURVE",
"703 299 OFFCURVE",
"613 299 CURVE SMOOTH",
"523 299 OFFCURVE",
"457 228 OFFCURVE",
"457 129 CURVE SMOOTH",
"457 31 OFFCURVE",
"523 -41 OFFCURVE",
"613 -41 CURVE SMOOTH"
);
},
{
closed = 1;
nodes = (
"601 106 OFFCURVE",
"592 116 OFFCURVE",
"592 129 CURVE SMOOTH",
"592 142 OFFCURVE",
"601 152 OFFCURVE",
"613 152 CURVE SMOOTH",
"625 152 OFFCURVE",
"634 142 OFFCURVE",
"634 129 CURVE SMOOTH",
"634 116 OFFCURVE",
"625 106 OFFCURVE",
"613 106 CURVE SMOOTH"
);
}
);
width = 809;
}
);
note = percent;
unicode = 0025;
},
{
glyphname = dieresiscomb;
lastChange = "2021-12-28 15:57:55 +0000";
layers = (
{
anchors = (
{
name = _top;
position = "{83, 621}";
},
{
name = top;
position = "{80, 782}";
}
);
hints = (
{
horizontal = 1;
origin = "{1, 3}";
target = "{1, 2}";
type = Stem;
},
{
origin = "{1, 3}";
target = "{1, 0}";
type = Stem;
},
{
origin = "{0, 3}";
target = "{0, 0}";
type = Stem;
}
);
layerId = "0A901A10-6B10-40AA-AC10-6ECA400C9626";
paths = (
{
closed = 1;
nodes = (
"150 750 LINE",
"150 782 LINE",
"124 782 LINE",
"124 750 LINE"
);
},
{
closed = 1;
nodes = (
"36 750 LINE",
"36 782 LINE",
"10 782 LINE",
"10 750 LINE"
);
}
);
width = 160;
},
{
anchors = (
{
name = _top;
position = "{203, 558}";
},
{
name = top;
position = "{203, 782}";
}
);
hints = (
{
horizontal = 1;
place = "{623, 129}";
type = Stem;
},
{
place = "{-16, 110}";
type = Stem;
},
{
place = "{149, 110}";
type = Stem;
}
);
layerId = "88F21F75-214F-41EE-AE9C-B4AA79D6697C";
paths = (
{
closed = 1;
nodes = (
"395 622 LINE",
"395 782 LINE",
"235 782 LINE",
"235 622 LINE"
);
},
{
closed = 1;
nodes = (
"170 622 LINE",
"170 782 LINE",
"10 782 LINE",
"10 622 LINE"
);
}
);
width = 405;
}
);
note = dieresis;
unicode = 0308;
},
